<?xml version="1.0" encoding="utf-8"?>
<!-- Generator: Adobe Illustrator 26.4.0, SVG Export Plug-In . SVG Version: 6.00 Build 0)  -->
<svg version="1.1" id="레이어_1" xmlns="http://www.w3.org/2000/svg" xmlns:xlink="http://www.w3.org/1999/xlink" x="0px"
	 y="0px" viewBox="0 0 190 150" style="enable-background:new 0 0 190 150;" xml:space="preserve">
<style type="text/css">
	.st0{clip-path:url(#SVGID_00000029725505998735409000000009577776279578077827_);}
	.st1{fill:#066D5E;}
	.st2{clip-path:url(#SVGID_00000083084962720771790520000010644320700476340378_);}
	.st3{clip-path:url(#SVGID_00000172403397050720586210000010855683499790862490_);}
	.st4{clip-path:url(#SVGID_00000127014885422630680720000001420690098673599380_);}
	.st5{clip-path:url(#SVGID_00000075873420820341938140000001430084091496204453_);}
	.st6{fill:#E54D26;}
	.st7{fill:#F66B3A;}
	.st8{fill:#FFFFFF;}
	.st9{fill:#E6C72F;}
	.st10{fill:#FFDE24;}
	.st11{fill:#006EBA;}
	.st12{fill:#15A0DB;}
	.st13{fill:#1ABCFE;}
	.st14{fill:#FF7262;}
	.st15{fill:#F24E1E;}
	.st16{fill:#A259FF;}
	.st17{fill:#0ACF83;}
	.st18{fill:#330000;}
	.st19{fill:#FF9A00;}
	.st20{fill:#001E36;}
	.st21{fill:#31A8FF;}
	.st22{fill:#7011F5;}
</style>
<g>
	<g>
		<defs>
			<circle id="SVGID_1_" cx="-372.8" cy="-309.6" r="75"/>
		</defs>
		<clipPath id="SVGID_00000119801398785468863240000002297738746332406196_">
			<use xlink:href="#SVGID_1_"  style="overflow:visible;"/>
		</clipPath>
		<g style="clip-path:url(#SVGID_00000119801398785468863240000002297738746332406196_);">
			<rect x="-452.8" y="-362.6" class="st1" width="163.1" height="133.2"/>
		</g>
	</g>
</g>
<g>
	<g>
		<defs>
			<circle id="SVGID_00000116935854684772137220000011083756915151028405_" cx="-190.5" cy="-309.6" r="75"/>
		</defs>
		<clipPath id="SVGID_00000096774639251126453020000008991628096607209877_">
			<use xlink:href="#SVGID_00000116935854684772137220000011083756915151028405_"  style="overflow:visible;"/>
		</clipPath>
		<g style="clip-path:url(#SVGID_00000096774639251126453020000008991628096607209877_);">
			<rect x="-270.4" y="-370.6" class="st1" width="163.1" height="141.2"/>
		</g>
	</g>
</g>
<g>
	<g>
		<defs>
			<circle id="SVGID_00000171721305541513568270000012401950435874483330_" cx="-4.8" cy="-318" r="75"/>
		</defs>
		<clipPath id="SVGID_00000047019892717329353680000013887515026266827178_">
			<use xlink:href="#SVGID_00000171721305541513568270000012401950435874483330_"  style="overflow:visible;"/>
		</clipPath>
		<g style="clip-path:url(#SVGID_00000047019892717329353680000013887515026266827178_);">
			<rect x="-84.8" y="-361.7" class="st1" width="163.1" height="123.8"/>
		</g>
	</g>
</g>
<g>
	<g>
		<defs>
			<circle id="SVGID_00000009578930760448474260000013499684296413247667_" cx="-270.5" cy="-137" r="75"/>
		</defs>
		<clipPath id="SVGID_00000124877597740578991160000011774480197253602238_">
			<use xlink:href="#SVGID_00000009578930760448474260000013499684296413247667_"  style="overflow:visible;"/>
		</clipPath>
		<g style="clip-path:url(#SVGID_00000124877597740578991160000011774480197253602238_);">
			<rect x="-350.5" y="-165.4" class="st1" width="163.1" height="108.5"/>
		</g>
	</g>
</g>
<g>
	<g>
		<defs>
			<circle id="SVGID_00000032607012302817166330000007738442471478740664_" cx="-44.7" cy="-131.8" r="75"/>
		</defs>
		<clipPath id="SVGID_00000140730913114716025180000000874571793684396978_">
			<use xlink:href="#SVGID_00000032607012302817166330000007738442471478740664_"  style="overflow:visible;"/>
		</clipPath>
		<g style="clip-path:url(#SVGID_00000140730913114716025180000000874571793684396978_);">
			<rect x="-124.6" y="-169.9" class="st1" width="163.1" height="118.3"/>
		</g>
	</g>
</g>
<text transform="matrix(1 0 0 1 -376.4822 114.9587)" class="st8" style="font-family:'ArialMT'; font-size:28px;">90%</text>
<text transform="matrix(1 0 0 1 -247.9151 114.5667)" class="st8" style="font-family:'ArialMT'; font-size:28px;">95%</text>
<text transform="matrix(1 0 0 1 -117.4241 118.519)" class="st8" style="font-family:'ArialMT'; font-size:28px;">85%</text>
<text transform="matrix(1 0 0 1 -333.7791 247.3323)" class="st8" style="font-family:'ArialMT'; font-size:28px;">80%</text>
<text transform="matrix(1 0 0 1 -196.877 239.2088)" class="st8" style="font-family:'ArialMT'; font-size:28px;">83%</text>
<g>
	<path class="st6" d="M717.4-236.8L729-102.3l54,15.5l54.8-14.7l11.6-135.3H717.4z M826.3-110l-43.2,12.4v-126h52.5L826.3-110z"/>
	<polygon class="st7" points="783,-97.6 826.3,-110 835.5,-223.6 783,-223.6 	"/>
	<polygon class="st8" points="741.3,-207.4 824.7,-207.4 823.9,-189.6 762.2,-189.6 763,-174.2 820.9,-174.2 818.5,-123.1 
		783.8,-113.8 749.1,-123.1 747.5,-147.9 764.5,-147.9 765.3,-135.5 783.8,-130.9 802.3,-136.3 803.1,-157.1 746.8,-157.1 	"/>
</g>
<g>
	<path class="st9" d="M260.8-137L272.4-2.5l54,15.5l54.8-14.7L392.8-137H260.8z M369.6-10.2L326.4,2.2v-126h52.5L369.6-10.2z"/>
	<polygon class="st10" points="326.4,2.2 369.6,-10.2 378.9,-123.9 326.4,-123.9 	"/>
	<g>
		<path class="st8" d="M306.3-105.3H321v93.6l-40.1-10.8V-38l25.5,6.2C306.3-31.8,306.3-104.5,306.3-105.3z"/>
		<polygon class="st8" points="331.8,-105.3 372.7,-105.3 371.2,-90.6 345.7,-90.6 345.7,-65.1 369.6,-69 365,-21 331,-11.7 
			331,-27.2 352.7,-32.6 354.2,-51.9 331,-48.9 331,-105.3 		"/>
	</g>
</g>
<g>
	<path class="st11" d="M675.3,32.5L686.9,167l54,15.5l54.8-14.7l11.6-135.3H675.3z M784.2,159.3L741,171.7v-126h52.5L784.2,159.3z"
		/>
	<polygon class="st12" points="741,171.7 784.2,159.3 793.5,45.7 741,45.7 	"/>
	<polygon class="st8" points="700,62.7 782.6,62.7 781.9,78.9 749.5,95.9 780.3,95.9 776.5,147 741.7,155.5 707,147 705.5,120.7 
		723.2,120.7 724,134.6 741.7,139.2 760.3,133.8 761.8,113 704.7,113 703.1,95.9 735.6,79.7 701.6,79.7 	"/>
</g>
<g>
	<ellipse class="st13" cx="637.2" cy="-211.7" rx="25" ry="25.1"/>
	<g>
		<path class="st14" d="M637.5-287L637.5-287h-25.4v50.2h25.4l0,0c13.6-0.2,24.6-11.4,24.6-25.1C662.2-275.7,651.2-286.8,637.5-287z
			"/>
	</g>
	<g>
		<path class="st15" d="M586.8-287L586.8-287c-13.6,0.2-24.6,11.4-24.6,25.1c0,13.8,11,24.9,24.6,25.1l0,0h25.4V-287H586.8z"/>
	</g>
	<g>
		<path class="st16" d="M586.8-236.8L586.8-236.8c-13.6,0.2-24.6,11.4-24.6,25.1s11,24.9,24.6,25.1l0,0h25.4v-50.2L586.8-236.8
			L586.8-236.8z"/>
	</g>
	<path class="st17" d="M587.5-186.5c-13.6,0-24.6,11.1-24.6,24.8s11,24.8,24.6,24.8s24.6-11.1,24.6-24.8v-24.8H587.5z"/>
</g>
<g>
	<path class="st18" d="M1042.7,190.4H913.6c-5.8,0-10.4-4.7-10.4-10.4V50.8c0-5.8,4.7-10.4,10.4-10.4h129.1
		c5.8,0,10.4,4.7,10.4,10.4v129.1C1053.2,185.7,1048.5,190.4,1042.7,190.4z"/>
	<g>
		<g>
			<path class="st19" d="M982,142.6l-3.8-13.5h-23.6l-3.8,13.5h-14.9l22.4-70.2h16.1l22.4,70.2H982z M957.9,117.3h16.9l-8.4-29.8
				L957.9,117.3z"/>
			<path class="st19" d="M1002.5,72.5h13.8v12.1h-13.8V72.5z M1002.5,92.5h13.8v50.1h-13.8V92.5z"/>
		</g>
	</g>
</g>
<g>
	<path class="st20" d="M1255.5,189.6h-129.1c-5.8,0-10.4-4.7-10.4-10.4V50c0-5.8,4.7-10.4,10.4-10.4h129.1c5.8,0,10.4,4.7,10.4,10.4
		v129.1C1265.9,184.9,1261.3,189.6,1255.5,189.6z"/>
	<g>
		<g>
			<path class="st21" d="M1157.5,116.9v24.9H1143V71.7h28.3c14.6,0,23.1,8.2,23.1,22.6c0,14.5-8.4,22.6-23.1,22.6
				C1171.3,116.9,1157.5,116.9,1157.5,116.9z M1169.3,104.8c6.9,0,10.4-3.5,10.4-10.5c0-6.9-3.5-10.5-10.4-10.5h-11.8v20.9
				L1169.3,104.8L1169.3,104.8z"/>
			<path class="st21" d="M1199.8,126.4h13.7v1.3c0,3.3,2.7,5.4,7.1,5.4c4.3,0,7-2.2,7-5.3c0-3.2-1.7-4.9-6.7-5.8l-4.9-0.9
				c-10.7-2-16.2-6.7-16.2-15.3c0-8.9,7.4-15.3,19.8-15.3c12.8,0,19.7,6.3,19.7,15v0.9h-13.7v-1c0-2.8-2-5-5.9-5
				c-3.8,0-5.9,2-5.9,4.9s1.9,4.4,6.7,5.3l5,0.9c11.3,2.1,16,6.7,16,15.8s-7.8,15.8-20.8,15.8c-13.3,0-20.8-6.8-20.8-15.8
				L1199.8,126.4L1199.8,126.4z"/>
		</g>
	</g>
</g>
<image style="overflow:visible;" width="400" height="330" xlink:href="EDCE3BA6.png"  transform="matrix(0.4347 0 0 0.4347 184.893 4.5763)">
</image>
<g>
	<path class="st22" d="M173.5,59.3c-4.3-8.1-5.4-16.8-5.7-25.8c-0.1-4.3-0.4-8.6-0.4-13c-0.1-4.7-1-8.6-3.8-12.5
		C158.9,1.3,151,1.4,151,1.4H95H39c0,0-7.9-0.1-12.7,6.6c-2.8,3.9-3.7,7.7-3.8,12.5c-0.1,4.3-0.3,8.6-0.4,13
		c-0.2,9.1-1.4,17.7-5.7,25.8c-3,5.8-7.7,10.2-14.4,11.2c0,3,0,6,0,9c0,0,7.3-0.3,12.4,7.7c2.4,3.6,4,7.5,5.1,11.7
		c1.4,5.4,2.2,11,2.5,16.5c0.4,6.7-1.2,14.5,1.1,20.8c3.1,8.8,10.4,12.3,19.2,12.3c17.5,0,35,0,52.6,0c17.5,0,35,0,52.6,0
		c8.9,0,16.1-3.5,19.2-12.3c2.2-6.3,0.7-14.2,1.1-20.8c0.3-5.6,1-11.1,2.5-16.5c1.1-4.2,2.7-8.1,5.1-11.7c5.2-7.9,12.4-7.7,12.4-7.7
		c0-3,0-6,0-9C181.3,69.5,176.6,65.1,173.5,59.3z"/>
	<g>
		<path class="st8" d="M65.3,114.9V35.4h31c5.2,0,9.6,0.5,13,1.6c3.5,1.1,6.4,3.4,9,6.8c2.5,3.5,3.8,7.5,3.8,12.2
			c0,4.4-1.3,8.2-3.8,11.4c-2.6,3.2-6.1,5.3-10.6,6.2c5.6,1,9.8,3.2,12.7,6.8c2.9,3.6,4.3,7.8,4.3,12.7c0,6.1-2,11.3-6,15.5
			s-10.2,6.3-18.6,6.3H65.3z M78.9,68.7h17.5c3.6,0,6.4-1.1,8.5-3.2c2.1-2.1,3.1-4.9,3.1-8.2c0-3.6-1.2-6.3-3.6-8.1
			c-2.4-1.7-5.1-2.6-8.3-2.6H78.9V68.7z M78.9,102.9h18.5c3.9,0,7-1,9.3-3.1c2.3-2.1,3.4-4.8,3.4-8.3c0-3.3-1.2-6.1-3.5-8.2
			c-2.3-2.1-5.4-3.2-9.2-3.2H78.9V102.9z"/>
	</g>
</g>
<g>
	<path class="st22" d="M508.5,203.1c-4.3-8.1-5.4-16.8-5.7-25.8c-0.1-4.3-0.4-8.6-0.4-13c-0.1-4.7-1-8.6-3.8-12.5
		c-4.8-6.7-12.7-6.6-12.7-6.6h-56h-56c0,0-7.9-0.1-12.7,6.6c-2.8,3.9-3.7,7.7-3.8,12.5c-0.1,4.3-0.3,8.6-0.4,13
		c-0.2,9.1-1.4,17.7-5.7,25.8c-3,5.8-7.7,10.2-14.4,11.2c0,3,0,6,0,9c0,0,7.3-0.3,12.4,7.7c2.4,3.6,4,7.5,5.1,11.7
		c1.4,5.4,2.2,11,2.5,16.5c0.4,6.7-1.2,14.5,1.1,20.8c3.1,8.8,10.4,12.3,19.2,12.3c17.5,0,35,0,52.6,0c17.5,0,35,0,52.6,0
		c8.9,0,16.1-3.5,19.2-12.3c2.2-6.3,0.7-14.2,1.1-20.8c0.3-5.6,1-11.1,2.5-16.5c1.1-4.2,2.7-8.1,5.1-11.7c5.2-7.9,12.4-7.7,12.4-7.7
		c0-3,0-6,0-9C516.2,213.3,511.6,208.9,508.5,203.1z"/>
	
		<text transform="matrix(1 0 0 1 391.5729 258.6922)" class="st8" style="font-family:'FranklinGothic-Medium'; font-size:119.2808px;">B</text>
</g>
</svg>
