<?xml version="1.0" encoding="utf-8"?>
<!-- Generator: Adobe Illustrator 26.3.1, SVG Export Plug-In . SVG Version: 6.00 Build 0)  -->
<svg version="1.1" id="Layer_1" xmlns="http://www.w3.org/2000/svg" xmlns:xlink="http://www.w3.org/1999/xlink" x="0px" y="0px"
	 viewBox="0 0 600 268" style="enable-background:new 0 0 600 268;" xml:space="preserve">
<style type="text/css">
	.st0{opacity:0.55;fill:#1C1C1C;}
	.st1{fill:#376CB7;}
	.st2{opacity:0.7;fill:#FFFFFF;}
	.st3{fill:#EDDCB7;}
	.st4{fill:#171717;}
	.st5{fill:#B7B7B7;}
	.st6{fill:#0B273D;}
	.st7{fill:#FFFFFF;}
	.st8{opacity:0.4;}
	.st9{clip-path:url(#SVGID_00000173846019687785901110000005049305751171891338_);fill:#FFFFFF;}
	.st10{clip-path:url(#SVGID_00000079483501603555881990000006539999735771106703_);fill:#FFFFFF;}
	.st11{clip-path:url(#SVGID_00000121247124717592899320000014345680748314760324_);fill:#FFFFFF;}
	.st12{clip-path:url(#SVGID_00000181057482397969693630000014693742441010806686_);fill:#FFFFFF;}
	.st13{clip-path:url(#SVGID_00000137820173875336740910000015425067644000844981_);fill:#FFFFFF;}
	.st14{clip-path:url(#SVGID_00000112605146986961772260000017812989501976843157_);fill:#FFFFFF;}
	.st15{clip-path:url(#SVGID_00000049902664261586395820000005942659628063045251_);fill:#FFFFFF;}
	.st16{clip-path:url(#SVGID_00000067951961043607962940000014032091068494913670_);fill:#FFFFFF;}
	.st17{opacity:0.8;fill:#FFFFFF;}
</style>
<g>
	<ellipse class="st0" cx="300" cy="251.3" rx="298.4" ry="16.7"/>
	<g>
		<path class="st1" d="M579.8,219.7H20.2C9,219.7,0,210.7,0,199.5v-170C0,18.4,9,9.3,20.2,9.3h559.6c11.2,0,20.2,9,20.2,20.2v170
			C600,210.7,591,219.7,579.8,219.7z"/>
		<path class="st2" d="M588.3,184.7c0,5.1,4.2,9.3,9.4,9.3h2.3v-18.7h-2.3C592.5,175.3,588.3,179.5,588.3,184.7z"/>
		<path class="st1" d="M461.2,18.7H275.6c-4.6,0-7.6-5-5.3-9l3.6-6.5C275,1.2,277,0,279.2,0h178.4c2.2,0,4.3,1.2,5.3,3.2l3.6,6.5
			C468.8,13.7,465.9,18.7,461.2,18.7z"/>
		<rect y="133.2" class="st3" width="508.6" height="35.1"/>
		<rect y="173" class="st3" width="508.6" height="7"/>
		<g>
			<ellipse class="st4" cx="177.8" cy="224.4" rx="35.2" ry="35.1"/>
			<ellipse class="st5" cx="177.8" cy="224.4" rx="18.8" ry="18.7"/>
		</g>
		<g>
			<ellipse class="st4" cx="419.5" cy="224.4" rx="35.2" ry="35.1"/>
			<ellipse class="st5" cx="419.5" cy="224.4" rx="18.8" ry="18.7"/>
		</g>
		<path class="st6" d="M581.2,35.1c-7.8,0-14.1,6.6-14.1,14.7v85.1c0,8.1,6.3,14.7,14.1,14.7H600V35.1H581.2z"/>
		<path class="st2" d="M581.2,39.7c-5.2,0-9.4,4.5-9.4,10v85.1c0,5.5,4.2,10,9.4,10H600V39.7H581.2z"/>
		<path class="st7" d="M18.8,184.7c0-5.1-4.2-9.3-9.4-9.3H0V194h9.4C14.5,194,18.8,189.8,18.8,184.7z"/>
		<path class="st7" d="M11.7,156.9v-7.6c0-5-4.1-9.1-9.1-9.1H0V166h2.6C7.6,166,11.7,161.9,11.7,156.9z"/>
		<path class="st6" d="M177.9,184.7c-20.8,0-37.9,16-39.7,36.2h4.7c1.8-17.7,16.7-31.6,35-31.6s33.2,13.8,35,31.6h4.7
			C215.8,200.6,198.7,184.7,177.9,184.7z"/>
		<path class="st6" d="M419.7,184.7c-20.8,0-37.9,16-39.7,36.2h4.7c1.8-17.7,16.7-31.6,35-31.6c18.2,0,33.2,13.8,35,31.6h4.7
			C457.6,200.6,440.5,184.7,419.7,184.7z"/>
		<g>
			<g>
				<path class="st6" d="M293,208h-56.3c-5.2,0-9.4-4.2-9.4-9.4V49.1c0-5.2,4.2-9.4,9.4-9.4H293c5.2,0,9.4,4.2,9.4,9.4v149.6
					C302.3,203.8,298.2,208,293,208z"/>
				<path class="st2" d="M293.3,44.4h-26.1v158.9h26.1c2.4,0,4.4-2.1,4.4-4.7V49.1C297.7,46.5,295.7,44.4,293.3,44.4z"/>
				<path class="st2" d="M236.4,44.4c-2.4,0-4.4,2.1-4.4,4.7v149.6c0,2.6,2,4.7,4.4,4.7h26.1V44.4H236.4z"/>
				<g class="st8">
					<defs>
						<path id="SVGID_1_" class="st8" d="M236.4,44.4c-2.4,0-4.4,2.1-4.4,4.7v149.6c0,2.6,2,4.7,4.4,4.7h26.1V44.4H236.4z"/>
					</defs>
					<clipPath id="SVGID_00000173875746560446705570000000754890348283524994_">
						<use xlink:href="#SVGID_1_"  style="overflow:visible;"/>
					</clipPath>
					<polyline style="clip-path:url(#SVGID_00000173875746560446705570000000754890348283524994_);fill:#FFFFFF;" points="
						179.3,-90.4 184,-90.4 309.4,241.9 229.1,241.9 110.2,-73.3 169.9,-102.8 184,-90.4 					"/>
				</g>
			</g>
			<g class="st8">
				<defs>
					<path id="SVGID_00000105387896497161390380000010062914796522257560_" class="st8" d="M293.3,44.4h-26.1v158.9h26.1
						c2.4,0,4.4-2.1,4.4-4.7V49.1C297.7,46.5,295.7,44.4,293.3,44.4z"/>
				</defs>
				<clipPath id="SVGID_00000136370772959668544680000004567669067225661862_">
					<use xlink:href="#SVGID_00000105387896497161390380000010062914796522257560_"  style="overflow:visible;"/>
				</clipPath>
				<polyline style="clip-path:url(#SVGID_00000136370772959668544680000004567669067225661862_);fill:#FFFFFF;" points="
					179.3,-90.4 184,-90.4 309.4,241.9 229.1,241.9 110.2,-73.3 169.9,-102.8 184,-90.4 				"/>
			</g>
		</g>
		<g>
			<path class="st6" d="M534.4,208h-56.3c-5.2,0-9.4-4.2-9.4-9.4V49.1c0-5.2,4.2-9.4,9.4-9.4h56.3c5.2,0,9.4,4.2,9.4,9.4v149.6
				C543.8,203.8,539.6,208,534.4,208z"/>
			<path class="st2" d="M534.7,44.4h-26.1v158.9h26.1c2.4,0,4.4-2.1,4.4-4.7V49.1C539.1,46.5,537.1,44.4,534.7,44.4z"/>
			<path class="st2" d="M477.8,44.4c-2.4,0-4.4,2.1-4.4,4.7v149.6c0,2.6,2,4.7,4.4,4.7h26.1V44.4H477.8z"/>
			<g class="st8">
				<defs>
					<path id="SVGID_00000163047813323582850660000017648228390583276690_" class="st8" d="M477.8,44.4c-2.4,0-4.4,2.1-4.4,4.7
						v149.6c0,2.6,2,4.7,4.4,4.7h26.1V44.4H477.8z"/>
				</defs>
				<clipPath id="SVGID_00000116200857154508921880000007945439540962716822_">
					<use xlink:href="#SVGID_00000163047813323582850660000017648228390583276690_"  style="overflow:visible;"/>
				</clipPath>
				<polyline style="clip-path:url(#SVGID_00000116200857154508921880000007945439540962716822_);fill:#FFFFFF;" points="
					420.7,-90.4 425.4,-90.4 550.8,241.9 470.5,241.9 351.6,-73.3 411.3,-102.8 425.4,-90.4 				"/>
			</g>
			<g class="st8">
				<defs>
					<path id="SVGID_00000029737562013457292600000012298722888106747537_" class="st8" d="M534.7,44.4h-26.1v158.9h26.1
						c2.4,0,4.4-2.1,4.4-4.7V49.1C539.1,46.5,537.1,44.4,534.7,44.4z"/>
				</defs>
				<clipPath id="SVGID_00000076569655900928865670000005512920541130060190_">
					<use xlink:href="#SVGID_00000029737562013457292600000012298722888106747537_"  style="overflow:visible;"/>
				</clipPath>
				<polyline style="clip-path:url(#SVGID_00000076569655900928865670000005512920541130060190_);fill:#FFFFFF;" points="
					420.7,-90.4 425.4,-90.4 550.8,241.9 470.5,241.9 351.6,-73.3 411.3,-102.8 425.4,-90.4 				"/>
			</g>
		</g>
		<g>
			<path class="st6" d="M187.5,35.1H143h-4.7H84.4h-4.7H35.2c-7.8,0-14.1,6.3-14.1,14v56.1c0,7.7,6.3,14,14.1,14h44.5h4.7h53.9h4.7
				h44.5c7.8,0,14.1-6.3,14.1-14V49.1C201.6,41.4,195.3,35.1,187.5,35.1z"/>
			<rect x="84.4" y="39.7" class="st2" width="53.9" height="74.8"/>
			<path class="st2" d="M187.5,39.7H143v74.8h44.5c5.2,0,9.4-4.2,9.4-9.3V49.1C196.9,43.9,192.7,39.7,187.5,39.7z"/>
			<path class="st2" d="M35.2,114.5h44.5V39.7H35.2c-5.2,0-9.4,4.2-9.4,9.3v56.1C25.8,110.3,30,114.5,35.2,114.5z"/>
			<g class="st8">
				<defs>
					<path id="SVGID_00000039830016767383871180000016105881051899446414_" class="st8" d="M35.2,114.5h44.5V39.7H35.2
						c-5.2,0-9.4,4.2-9.4,9.3v56.1C25.8,110.3,30,114.5,35.2,114.5z"/>
				</defs>
				<clipPath id="SVGID_00000121281411813314644050000000677187582470466716_">
					<use xlink:href="#SVGID_00000039830016767383871180000016105881051899446414_"  style="overflow:visible;"/>
				</clipPath>
				<polyline style="clip-path:url(#SVGID_00000121281411813314644050000000677187582470466716_);fill:#FFFFFF;" points="
					-1.2,-92.8 3.5,-92.8 128.9,239.6 97.3,239.6 -21.7,-75.7 -10.5,-105.2 3.5,-92.8 				"/>
				<polygon style="clip-path:url(#SVGID_00000121281411813314644050000000677187582470466716_);fill:#FFFFFF;" points="
					-15.2,-27.5 82,230.3 89.1,230.3 -12.9,-40 				"/>
			</g>
		</g>
		<g>
			<path class="st6" d="M435.9,35.1h-44.5h-4.7h-44.5c-7.8,0-14.1,6.3-14.1,14v56.1c0,7.7,6.3,14,14.1,14h44.5h4.7h44.5
				c7.8,0,14.1-6.3,14.1-14V49.1C450,41.4,443.7,35.1,435.9,35.1z"/>
			<path class="st2" d="M435.9,39.7h-44.5v74.8h44.5c5.2,0,9.4-4.2,9.4-9.3V49.1C445.3,43.9,441.1,39.7,435.9,39.7z"/>
			<path class="st2" d="M342.2,39.7c-5.2,0-9.4,4.2-9.4,9.3v56.1c0,5.2,4.2,9.3,9.4,9.3h44.5V39.7H342.2z"/>
			<g class="st8">
				<defs>
					<path id="SVGID_00000182500676425848677440000014506285364749725599_" class="st8" d="M342.2,39.7c-5.2,0-9.4,4.2-9.4,9.3v56.1
						c0,5.2,4.2,9.3,9.4,9.3h44.5V39.7H342.2z"/>
				</defs>
				<clipPath id="SVGID_00000047738843496152817360000007180044944974090908_">
					<use xlink:href="#SVGID_00000182500676425848677440000014506285364749725599_"  style="overflow:visible;"/>
				</clipPath>
				<polyline style="clip-path:url(#SVGID_00000047738843496152817360000007180044944974090908_);fill:#FFFFFF;" points="
					318.2,-92.8 322.9,-92.8 448.2,239.6 416.6,239.6 297.7,-75.7 308.8,-105.2 322.9,-92.8 				"/>
				<polygon style="clip-path:url(#SVGID_00000047738843496152817360000007180044944974090908_);fill:#FFFFFF;" points="
					304.1,-27.5 401.4,230.3 408.4,230.3 306.4,-40 				"/>
			</g>
			<g class="st8">
				<defs>
					<path id="SVGID_00000050657109641329311240000005466859518418457476_" class="st8" d="M435.9,39.7h-44.5v74.8h44.5
						c5.2,0,9.4-4.2,9.4-9.3V49.1C445.3,43.9,441.1,39.7,435.9,39.7z"/>
				</defs>
				<clipPath id="SVGID_00000051379945570206022250000009219952608702829738_">
					<use xlink:href="#SVGID_00000050657109641329311240000005466859518418457476_"  style="overflow:visible;"/>
				</clipPath>
				<polyline style="clip-path:url(#SVGID_00000051379945570206022250000009219952608702829738_);fill:#FFFFFF;" points="
					318.2,-92.8 322.9,-92.8 448.2,239.6 416.6,239.6 297.7,-75.7 308.8,-105.2 322.9,-92.8 				"/>
			</g>
		</g>
		<g class="st8">
			<defs>
				<path id="SVGID_00000088853518368026699520000005685644931632701353_" class="st8" d="M581.2,39.7c-5.2,0-9.4,4.5-9.4,10v85.1
					c0,5.5,4.2,10,9.4,10H600V39.7H581.2z"/>
			</defs>
			<clipPath id="SVGID_00000114073435255503551910000006316662683648439994_">
				<use xlink:href="#SVGID_00000088853518368026699520000005685644931632701353_"  style="overflow:visible;"/>
			</clipPath>
			<polyline style="clip-path:url(#SVGID_00000114073435255503551910000006316662683648439994_);fill:#FFFFFF;" points="
				547.3,-112.6 552,-112.6 677.3,219.7 645.7,219.7 526.8,-95.5 537.9,-125 552,-112.6 			"/>
		</g>
		<g>
			<path class="st6" d="M39.7,141.8H42v6.5l10.5-6.5v2.6l-9.3,5.8l9.7,7.7v2.8L42,152.3v8.5h-2.3V141.8z"/>
			<path class="st6" d="M65.3,141.8h2.3v19h-2.3V141.8z"/>
			<path class="st6" d="M80.7,141.8h2.8l5.5,6.1l5.5-6.1H97v19h-2.4v-15.8l-5.7,5.4l-5.6-5.4v15.8h-2.7V141.8z"/>
			<path class="st6" d="M109.3,147.6c0-3.5,2.7-5.9,6.4-5.9h2.3c2.6,0,5.2,1.7,5.9,4.1l-2.3,0.7c-0.6-1.5-1.8-2.6-3.9-2.6h-1.8
				c-2.5,0-4.1,1.5-4.1,3.8v6.6c0,2.3,1.1,4.5,3.9,4.5h2.1c2.9,0,4-1.9,4-3.9v-2.5h-4.3v-1.3h6.6v3.8c0,3.5-1.9,5.9-6,5.9
				c-1.2,0-1.7,0-2.9-0.1c-2.5-0.1-5.7-2-5.7-5.8V147.6z"/>
			<path class="st6" d="M142.6,141.8h2.2l7.1,19h-2.1l-1.8-5.1h-8.2l-1.8,5.1h-2.6L142.6,141.8z M147.4,154.5l-3.4-10l-3.7,10H147.4
				z"/>
			<path class="st6" d="M164,141.8h2.3v19H164V141.8z"/>
			<path class="st6" d="M179.3,141.8h2.6l10.4,15.4v-15.4h2.3v19h-2.6l-9.9-14.6v14.6h-2.8V141.8z"/>
		</g>
		<g>
			<path class="st6" d="M400.3,141.4h12.7l-8.6,19h-2.3l7.8-17.8h-9.7V141.4z"/>
			<path class="st6" d="M423.6,151.4c0.8-0.9,2.2-3.2,2.2-4.5l0-0.8c-0.1-1.9-1.8-3.2-3.6-3.2h-0.8c-1.6,0-3.4,1.3-3.4,3.3v0.6h-1.8
				v-0.9c0-2.7,2.3-4.9,5.5-4.9c4.4,0,6.4,2.6,6.4,5.3c0,2.3-0.6,3.4-2.5,5.6c-1,1.2-3.4,3.8-5.7,6.2h8.2v2.2h-12.4L423.6,151.4z"/>
			<path class="st6" d="M431.4,156.6c0.8,0.8,1.8,1.5,2.8,1.9c1.3,0.5,2.5,0.7,3.5,0.5c2.3-0.4,3-2,3-4c0-1.9-0.7-3.8-3.3-4.5
				c-1.8-0.5-4.2-0.4-6-0.3v-8.9h10.9v2.2h-9.5v4.5c1.9-0.1,3.8,0,5,0.3c3.2,0.6,5.7,2.2,5.7,6.5c0,3.7-2.2,5.4-4.8,5.8
				c-1.4,0.2-2.9,0.2-4.3-0.2c-1.1-0.3-2.1-0.8-3.1-1.5V156.6z"/>
		</g>
		<path class="st17" d="M385.6,166h-41.2c-1.6,0-2.9-1.3-2.9-2.9v-24.7c0-1.6,1.3-2.9,2.9-2.9h41.2c1.6,0,2.9,1.3,2.9,2.9v24.7
			C388.5,164.7,387.2,166,385.6,166z"/>
		<g>
			<g>
				<path class="st6" d="M347.1,139.3c0-0.6,0.5-1,0.9-1h0.6c0.5,0,0.9,0.4,0.9,1v1.9c0,0.6-0.4,0.9-0.9,0.9H348
					c-0.5,0-0.9-0.3-0.9-0.9V139.3z M347.5,141c0,0.4,0.2,0.6,0.6,0.6h0.3c0.4,0,0.6-0.2,0.6-0.6v-1.6c0-0.4-0.2-0.7-0.6-0.7h-0.3
					c-0.4,0-0.6,0.3-0.6,0.7V141z M350.4,137.8h0.5v5.5h-0.5V137.8z"/>
				<path class="st6" d="M347,146.2h2v-0.7h-2v-0.4h2.3v1.3h-1.9v0.8h1.9v0.4H347V146.2z M347.6,148.6h3.3v0.5
					c0,0.3-0.1,0.9-0.2,1.2h-0.4c0.2-0.4,0.2-0.8,0.2-1.3h-2.9V148.6z M349.8,146.7h0.8v-0.8h-0.8v-0.4h0.8v-0.7h0.4v3.2h-0.4V147
					h-0.8V146.7z"/>
				<path class="st6" d="M347,155.4c0.8-0.6,1.1-1.2,1.1-2.1v-0.9h0.5v0.9c0,0.9,0.2,1.5,1,2.1v0.5c-0.1,0-0.2-0.1-0.2-0.2
					c-0.3-0.2-0.7-0.6-1-1.2c-0.3,0.6-0.7,1-1,1.2l-0.3,0.2V155.4z M349.4,153.5h1v-1.7h0.4v5.5h-0.4V154h-1V153.5z"/>
			</g>
			<g>
				<path class="st6" d="M357.7,139.7h2.4v0.3h-1.1v1h-0.4v-1h-0.8V139.7z M357.8,138.4c0-0.4,0.3-0.6,0.7-0.6h0.7
					c0.4,0,0.6,0.2,0.6,0.6v0.1c0,0.5-0.3,0.7-0.6,0.7h-0.6c-0.4,0-0.7-0.1-0.7-0.6V138.4z M358.3,138.6c0,0.3,0.1,0.4,0.4,0.4h0.3
					c0.3,0,0.4-0.1,0.4-0.4v-0.1c0-0.3-0.2-0.4-0.4-0.4h-0.3c-0.3,0-0.5,0.1-0.5,0.4V138.6z M358.7,141.5h0.4v0.5h2.5v-0.5h0.4v1.9
					h-3.3V141.5z M361.6,143v-0.7h-2.5v0.7H361.6z M359.6,140.6h0.9v-2.8h0.4v3.3h-0.4v-0.3h-0.9V140.6z M361.6,137.8h0.4v3.3h-0.4
					V137.8z"/>
				<path class="st6" d="M357.8,148.3c0.1,0,0.3-0.2,0.4-0.3c0.6-0.6,0.7-1.3,0.7-2.2v-0.5h0.4v0.5c0,1,0,1.6,0.6,2.2
					c0.1,0.1,0.3,0.3,0.4,0.3v0.5c-0.5-0.2-1-0.8-1.2-1.3c-0.2,0.5-0.8,1.1-1.3,1.3V148.3z M361.1,144.9h0.4v1.9h0.7v0.5h-0.7v3
					h-0.4V144.9z"/>
				<path class="st6" d="M358,153.3c0-0.6,0.5-1,0.9-1h0.6c0.5,0,0.9,0.4,0.9,1v1.9c0,0.6-0.4,0.9-0.9,0.9h-0.6
					c-0.5,0-0.9-0.3-0.9-0.9V153.3z M358.4,155.1c0,0.4,0.2,0.6,0.6,0.6h0.3c0.4,0,0.6-0.2,0.6-0.6v-1.6c0-0.4-0.2-0.7-0.6-0.7h-0.3
					c-0.4,0-0.6,0.3-0.6,0.7V155.1z M361.3,151.8h0.5v5.5h-0.5V151.8z"/>
				<path class="st6" d="M357.8,163.3h4.3v0.5h-4.3V163.3z M358.4,159.3h3v0.4h-3V159.3z M358.4,160.4h3v0.4h-2.6v1h2.7v0.4h-3.1
					V160.4z"/>
			</g>
			<g>
				<path class="st6" d="M368.9,138.1h0.4v1h1.4v-1h0.4v2.7h-2.3V138.1z M370.7,140.3v-0.9h-1.4v0.9H370.7z M369.3,141.5h0.4v1.2
					h2.9v0.4h-3.4V141.5z M372.1,137.8h0.4v1.7h0.6v0.4h-0.6v1.4h-0.4V137.8z"/>
				<path class="st6" d="M368.6,147.4h4.5v0.4h-4.5V147.4z M369.1,149.3c0-0.5,0.4-0.7,0.7-0.7h2.1c0.4,0,0.7,0.3,0.7,0.7v0.4
					c0,0.5-0.3,0.7-0.6,0.7h-2.3c-0.4,0-0.6-0.3-0.6-0.6V149.3z M369.1,145.5c0-0.5,0.4-0.8,0.8-0.8h1.8c0.4,0,0.8,0.3,0.8,0.8v0.3
					c0,0.5-0.4,0.8-0.8,0.8H370c-0.5,0-0.8-0.3-0.8-0.8V145.5z M370.1,146.3h1.5c0.4,0,0.5-0.2,0.5-0.6c0-0.4-0.2-0.6-0.5-0.6h-1.5
					c-0.4,0-0.5,0.2-0.5,0.6C369.5,146.1,369.7,146.3,370.1,146.3z M369.5,149.6c0,0.4,0.2,0.4,0.5,0.4h1.8c0.3,0,0.4-0.2,0.4-0.4
					v-0.2c0-0.3-0.1-0.4-0.4-0.4H370c-0.4,0-0.5,0.2-0.5,0.4V149.6z"/>
				<path class="st6" d="M368.5,152.4h1.1v-0.5h0.5v0.5h1.1v0.3h-0.6c0.1,0.1,0.3,0.3,0.3,0.8v0.6c0,0.6-0.4,0.8-0.7,0.8h-0.6
					c-0.4,0-0.7-0.3-0.7-0.8v-0.6c0-0.4,0.2-0.7,0.3-0.8h-0.6V152.4z M369.1,153.9c0,0.4,0.2,0.6,0.6,0.6h0.3c0.4,0,0.6-0.2,0.6-0.6
					v-0.3c0-0.5-0.2-0.7-0.6-0.7h-0.3c-0.4,0-0.6,0.2-0.6,0.7V153.9z M369.5,156.3c0-0.4,0.3-0.7,0.7-0.7h2c0.3,0,0.6,0.3,0.6,0.6
					v0.5c0,0.3-0.2,0.5-0.5,0.5H370c-0.3,0-0.5-0.2-0.5-0.6V156.3z M370,156.6c0,0.3,0.1,0.4,0.4,0.4h1.7c0.2,0,0.4-0.1,0.4-0.4
					v-0.3c0-0.2-0.1-0.3-0.4-0.3h-1.7c-0.4,0-0.4,0.3-0.4,0.4V156.6z M371.5,153.7h0.8V153h-0.8v-0.4h0.8v-0.7h0.5v3.2h-0.5v-0.9
					h-0.8V153.7z"/>
			</g>
			<g>
				<path class="st6" d="M379.7,142.2h4.2v0.5h-4.2V142.2z M380.1,138.2h3.3v0.4c0,1-0.1,1.8-0.2,2.2c-0.1,0.2-0.1,0.4-0.2,0.6h-0.5
					c0.4-0.8,0.5-2.1,0.4-2.8h-2.8V138.2z"/>
				<path class="st6" d="M379.6,145.4h2v2h-1.5v1.3h1.7v0.4h-2.1v-2.2h1.5v-1.1h-1.6V145.4z M382.3,144.9h0.4v1.9h0.8v-1.9h0.4v5.4
					h-0.4v-3h-0.8c0,0.9,0,2,0,3h-0.4V144.9z"/>
				<path class="st6" d="M379.9,152.1h2.7v0.4h-2.7V152.1z M379.9,154.3h0.8l-0.5-1.4h0.4l0.5,1.4h0.4l0.5-1.4h0.4l-0.5,1.4h0.8v0.4
					h-2.7V154.3z M380.5,155.7h3.1v0.4c0,0.4-0.1,0.8-0.1,1c0,0.1,0,0.1-0.1,0.2H383c0.1-0.3,0.2-0.6,0.2-0.7c0-0.1,0-0.4,0-0.5
					h-2.7V155.7z M383.2,151.8h0.4v3h-0.4V151.8z"/>
			</g>
		</g>
	</g>
</g>
</svg>
