<?xml version="1.0" encoding="utf-8"?>
<!-- Generator: Adobe Illustrator 26.3.1, SVG Export Plug-In . SVG Version: 6.00 Build 0)  -->
<svg version="1.1" id="Layer_1" xmlns="http://www.w3.org/2000/svg" xmlns:xlink="http://www.w3.org/1999/xlink" x="0px" y="0px"
	 viewBox="0 0 500 380" style="enable-background:new 0 0 500 380;" xml:space="preserve">
<style type="text/css">
	.st0{clip-path:url(#SVGID_00000019659227344473470760000009102306396447346349_);}
	.st1{opacity:0.7;fill:#FFFFFF;}
	.st2{fill:#2E383D;}
	.st3{fill:#F7E5A9;}
	.st4{fill:#202C33;}
	.st5{fill:#382201;}
</style>
<g>
	<defs>
		<rect id="SVGID_1_" width="500" height="380"/>
	</defs>
	<clipPath id="SVGID_00000165216367093873922020000007940591045551073957_">
		<use xlink:href="#SVGID_1_"  style="overflow:visible;"/>
	</clipPath>
	<g style="clip-path:url(#SVGID_00000165216367093873922020000007940591045551073957_);">
		<g>
			<g>
				<rect x="35.1" y="57.6" class="st1" width="429.8" height="335.9"/>
				<path class="st2" d="M40.6,397.1L40.6,397.1c-3,0-5.5-2.5-5.5-5.5V69.9c0-3,2.5-5.5,5.5-5.5h0c3,0,5.5,2.5,5.5,5.5v321.7
					C46.1,394.6,43.6,397.1,40.6,397.1z"/>
				<path class="st2" d="M459.4,397.1L459.4,397.1c-3,0-5.5-2.5-5.5-5.5V69.9c0-3,2.5-5.5,5.5-5.5l0,0c3,0,5.5,2.5,5.5,5.5v321.7
					C464.9,394.6,462.4,397.1,459.4,397.1z"/>
				<path class="st2" d="M319.8,397.1L319.8,397.1c-3,0-5.5-2.5-5.5-5.5V69.9c0-3,2.5-5.5,5.5-5.5h0c3,0,5.5,2.5,5.5,5.5v321.7
					C325.3,394.6,322.8,397.1,319.8,397.1z"/>
				<path class="st2" d="M180.2,397.1L180.2,397.1c-3,0-5.5-2.5-5.5-5.5V69.9c0-3,2.5-5.5,5.5-5.5h0c3,0,5.5,2.5,5.5,5.5v321.7
					C185.7,394.6,183.2,397.1,180.2,397.1z"/>
			</g>
			<path class="st3" d="M489.9,65.2H10.1V38.4C10.1,17.2,27.3,0,48.4,0h403.1c21.2,0,38.4,17.2,38.4,38.4V65.2z"/>
			<g>
				<path class="st4" d="M402.8,402.5L402.8,402.5c-3.3,0-6-2.7-6-6V290.4c0-3.3,2.7-6,6-6l0,0c3.3,0,6,2.7,6,6v106.1
					C408.9,399.8,406.1,402.5,402.8,402.5z"/>
				<path class="st4" d="M97.2,402.5L97.2,402.5c-3.3,0-6-2.7-6-6V290.4c0-3.3,2.7-6,6-6h0c3.3,0,6,2.7,6,6v106.1
					C103.2,399.8,100.5,402.5,97.2,402.5z"/>
				<path class="st5" d="M425.5,300.8h-351c-8,0-14.5-6.5-14.5-14.5v-0.8c0-8,6.5-14.5,14.5-14.5h351c8,0,14.5,6.5,14.5,14.5v0.8
					C440,294.2,433.5,300.8,425.5,300.8z"/>
			</g>
		</g>
		<path class="st2" d="M494,72.9H6c-3.3,0-6-2.7-6-6l0-3.2c0-3.3,2.7-6,6-6H494c3.3,0,6,2.7,6,6v3.2C500,70.2,497.3,72.9,494,72.9z"
			/>
	</g>
</g>
</svg>
