<?xml version="1.0" encoding="utf-8"?>
<!-- Generator: Adobe Illustrator 23.1.0, SVG Export Plug-In . SVG Version: 6.00 Build 0)  -->
<svg version="1.1" id="Layer_1" xmlns="http://www.w3.org/2000/svg" xmlns:xlink="http://www.w3.org/1999/xlink" x="0px" y="0px"
	 viewBox="0 0 500 380" style="enable-background:new 0 0 500 380;" xml:space="preserve">
<style type="text/css">
	.st0{clip-path:url(#SVGID_2_);}
	.st1{opacity:0.5;fill:#C0EAFF;}
	.st2{fill:#2E383D;}
	.st3{fill:#066D5E;}
	.st4{fill:#202C33;}
	.st5{fill:#F4D7A8;}
</style>
<g>
	<defs>
		<rect id="SVGID_1_" width="500" height="380"/>
	</defs>
	<clipPath id="SVGID_2_">
		<use xlink:href="#SVGID_1_"  style="overflow:visible;"/>
	</clipPath>
	<g class="st0">
		<g>
			<g>
				<rect x="35.09" y="57.71" class="st1" width="429.82" height="336.65"/>
				<path class="st2" d="M41.09,398h-1.01c-2.74,0-4.99-2.25-4.99-4.99V69.57c0-2.74,2.25-4.99,4.99-4.99h1.01
					c2.74,0,4.99,2.25,4.99,4.99v323.44C46.08,395.75,43.83,398,41.09,398z"/>
				<path class="st2" d="M459.92,398h-1.01c-2.74,0-4.99-2.25-4.99-4.99V69.57c0-2.74,2.25-4.99,4.99-4.99h1.01
					c2.74,0,4.99,2.25,4.99,4.99v323.44C464.91,395.75,462.66,398,459.92,398z"/>
				<path class="st2" d="M320.31,398h-1.01c-2.74,0-4.99-2.25-4.99-4.99V69.57c0-2.74,2.25-4.99,4.99-4.99h1.01
					c2.74,0,4.99,2.25,4.99,4.99v323.44C325.3,395.75,323.05,398,320.31,398z"/>
				<path class="st2" d="M180.7,398h-1.01c-2.74,0-4.99-2.25-4.99-4.99V69.57c0-2.74,2.25-4.99,4.99-4.99h1.01
					c2.74,0,4.99,2.25,4.99,4.99v323.44C185.69,395.75,183.44,398,180.7,398z"/>
			</g>
			<path class="st3" d="M489.92,65.39H10.08V34.85C10.08,15.6,25.68,0,44.93,0h410.14c19.25,0,34.85,15.6,34.85,34.85V65.39z"/>
			<g>
				<path class="st4" d="M403.36,384.67h-1.11c-3.02,0-5.49-2.47-5.49-5.49V271.71c0-3.02,2.47-5.49,5.49-5.49h1.11
					c3.02,0,5.49,2.47,5.49,5.49v107.47C408.85,382.2,406.38,384.67,403.36,384.67z"/>
				<path class="st4" d="M97.75,384.67h-1.11c-3.02,0-5.49-2.47-5.49-5.49V271.71c0-3.02,2.47-5.49,5.49-5.49h1.11
					c3.02,0,5.49,2.47,5.49,5.49v107.47C103.24,382.2,100.77,384.67,97.75,384.67z"/>
				<path class="st5" d="M426.82,282.69H73.18c-7.25,0-13.18-5.93-13.18-13.18v-3.54c0-7.25,5.93-13.18,13.18-13.18h353.64
					c7.25,0,13.18,5.93,13.18,13.18v3.54C440.01,276.75,434.07,282.69,426.82,282.69z"/>
			</g>
		</g>
		<path class="st2" d="M494.51,73.07H5.49C2.47,73.07,0,70.6,0,67.58l0-4.38c0-3.02,2.47-5.49,5.49-5.49h489.03
			c3.02,0,5.49,2.47,5.49,5.49v4.38C500,70.6,497.53,73.07,494.51,73.07z"/>
	</g>
</g>
</svg>
