<?xml version="1.0" encoding="utf-8"?>
<!-- Generator: Adobe Illustrator 23.1.0, SVG Export Plug-In . SVG Version: 6.00 Build 0)  -->
<svg version="1.1" id="Layer_1" xmlns="http://www.w3.org/2000/svg" xmlns:xlink="http://www.w3.org/1999/xlink" x="0px" y="0px"
	 viewBox="0 0 160 100" style="enable-background:new 0 0 160 100;" xml:space="preserve">
<style type="text/css">
	.st0{fill:#FFFFFF;}
</style>
<path class="st0" d="M143.2,59.01c0.55-2.11,0.87-4.31,0.87-6.59c0-14.47-11.78-26.21-26.32-26.21c-4.98,0-9.62,1.4-13.59,3.8
	C99.96,12.79,84.38,0,65.8,0C44,0,26.32,17.6,26.32,39.31c0,2.86,0.31,5.64,0.89,8.32c-0.3-0.01-0.59-0.04-0.89-0.04
	C11.78,47.59,0,59.32,0,73.79S11.78,100,26.32,100h112.9C150.7,100,160,90.74,160,79.31C160,69.24,152.77,60.86,143.2,59.01z"/>
</svg>
