<?xml version="1.0" encoding="utf-8"?>
<!-- Generator: Adobe Illustrator 27.5.0, SVG Export Plug-In . SVG Version: 6.00 Build 0)  -->
<svg version="1.1" id="Layer_1" xmlns="http://www.w3.org/2000/svg" xmlns:xlink="http://www.w3.org/1999/xlink" x="0px" y="0px"
	 viewBox="0 0 140 430" style="enable-background:new 0 0 140 430;" xml:space="preserve">
<style type="text/css">
	.st0{fill:#066D5E;}
	.st1{fill:#F7E5A9;}
	.st2{fill:#FFFFFF;}
	.st3{enable-background:new    ;}
</style>
<path class="st0" d="M71.3,430h-2.6c-1.9,0-3.4-1.5-3.4-3.4V48.2c0-1.9,1.5-3.4,3.4-3.4h2.6c1.9,0,3.4,1.5,3.4,3.4v378.4
	C74.7,428.5,73.2,430,71.3,430z"/>
<path class="st0" d="M109.7,163.8H30.3C13.6,163.8,0,150.1,0,133.5V30.3C0,13.6,13.6,0,30.3,0h79.4C126.4,0,140,13.6,140,30.3v103.2
	C140,150.1,126.4,163.8,109.7,163.8z"/>
<path class="st1" d="M6.3,133.2V30.6c0-13.4,10.9-24.3,24.3-24.3h78.9c13.4,0,24.3,10.9,24.3,24.3v102.7c0,13.4-10.9,24.3-24.3,24.3
	H30.6C17.1,157.5,6.3,146.6,6.3,133.2z"/>
<rect x="-0.3" y="49.3" class="st0" width="140" height="60.9"/>
<g>
	<path class="st0" d="M-143.1,430h-2.6c-1.9,0-3.4-1.5-3.4-3.4V48.2c0-1.9,1.5-3.4,3.4-3.4h2.6c1.9,0,3.4,1.5,3.4,3.4v378.4
		C-139.7,428.5-141.2,430-143.1,430z"/>
	<path class="st0" d="M-104.7,163.8h-79.4c-16.7,0-30.3-13.6-30.3-30.3V30.3c0-16.7,13.6-30.3,30.3-30.3h79.4
		C-88,0-74.4,13.6-74.4,30.3v103.2C-74.4,150.1-88,163.8-104.7,163.8z"/>
	<path class="st1" d="M-208.1,133.2V30.6c0-13.4,10.9-24.3,24.3-24.3h78.9c13.4,0,24.3,10.9,24.3,24.3v102.7
		c0,13.4-10.9,24.3-24.3,24.3h-78.9C-197.2,157.5-208.1,146.6-208.1,133.2z"/>
	<rect x="-214.4" y="51.4" class="st0" width="140" height="60.9"/>
	<g>
		<path class="st2" d="M-183.1,72.9c3.9,0,6.2,2.4,6.4,5.9h-3.1c-0.1-2-1.3-3.2-3.3-3.2c-2.3,0-3.5,1.3-3.5,5.9s1.2,5.9,3.5,5.9
			c2.4,0,3.2-1.6,3.4-3.9h-3.3V81h6.2v8.7h-2.2l-0.4-2c-0.6,1.3-2,2.3-4,2.3c-5,0-6.3-4.2-6.3-8.6
			C-189.7,77.2-188.5,72.9-183.1,72.9z"/>
		<path class="st2" d="M-165.7,86.2c-0.1-1.7-0.9-2.4-2.7-2.4h-2.8v6h-3.1V73.2h6.6c3.5,0,5.3,1.9,5.3,5.1c0,2.2-1,3.6-2.9,4.2
			c1.7,0.3,2.5,1.3,2.6,3.5l0.1,2.3c0,0.6,0.2,1.1,0.3,1.5h-3.1c-0.2-0.3-0.2-0.9-0.2-1.5L-165.7,86.2z M-168.1,81.1
			c1.7,0,2.7-0.7,2.7-2.7s-1-2.7-2.7-2.7h-3.1V81L-168.1,81.1L-168.1,81.1z"/>
		<path class="st2" d="M-161.1,89.7l5.3-16.5h3.5l5.3,16.5h-3.2l-1-3.4h-5.9l-1,3.4H-161.1z M-154.1,76.3l-2.2,7.5h4.4L-154.1,76.3z
			"/>
		<path class="st2" d="M-142.4,83.8v6h-3.1V73.2h6.6c3.3,0,5.3,1.9,5.3,5.3s-2,5.3-5.3,5.3H-142.4L-142.4,83.8z M-139.2,81.1
			c1.8,0,2.7-0.9,2.7-2.7s-0.9-2.7-2.7-2.7h-3.1V81L-139.2,81.1L-139.2,81.1z"/>
		<path class="st2" d="M-123,82.6h-5.6v7.2h-3.1V73.2h3.1V80h5.6v-6.8h3.1v16.5h-3.1C-123,89.7-123,82.6-123,82.6z"/>
		<path class="st2" d="M-114.2,89.7h-3.1V73.2h3.1V89.7z"/>
		<path class="st2" d="M-110.4,75.3c1-1.4,2.7-2.3,5.1-2.3c3.9,0,6.2,2.4,6.4,5.9h-3.1c-0.1-2-1.3-3.2-3.3-3.2
			c-1.2,0-2.1,0.5-2.6,1.2c-0.6,0.9-0.9,2.2-0.9,4.7s0.3,3.8,0.9,4.7c0.5,0.8,1.4,1.2,2.6,1.2c2.1,0,3.2-1.2,3.3-3.2h3.1
			c-0.2,3.5-2.5,5.8-6.4,5.8c-2.4,0-4-0.8-5.1-2.3c-1.2-1.7-1.5-3.9-1.5-6.3C-111.9,79.2-111.6,76.9-110.4,75.3z"/>
	</g>
</g>
<g class="st3">
	<path class="st2" d="M38.9,88.1h-6.1V71.5h6.1c5.5,0,6.5,4.1,6.5,8.3C45.4,84.1,44.4,88.1,38.9,88.1z M38.7,74.1h-2.8v11.4h2.8
		c2.6,0,3.6-1.3,3.6-5.7C42.3,75.4,41.2,74.1,38.7,74.1z"/>
	<path class="st2" d="M47.7,71.5h10.1v2.6h-7v4.2h6.2v2.6h-6.2v4.6h7.1v2.6H47.7V71.5z"/>
	<path class="st2" d="M65.6,88.4c-3.7,0-5.9-2.1-5.9-5v-0.3h3.1v0.4c0,1.4,1.1,2.3,2.8,2.3c1.7,0,2.8-0.9,2.8-2.3
		c0-1.2-0.8-2.1-2.3-2.4l-2-0.4c-2.7-0.5-4.3-2-4.3-4.7c0-2.6,1.9-4.7,5.6-4.7c3.7,0,5.6,2.2,5.6,4.7v0.2h-3.1v-0.2
		c0-1.2-0.9-2.1-2.5-2.1c-1.6,0-2.5,0.9-2.5,2.1s0.7,1.8,2.3,2.2l2,0.4c2.8,0.6,4.4,2.2,4.4,4.9C71.5,86.3,69.3,88.4,65.6,88.4z"/>
	<path class="st2" d="M76.7,88.1h-3.1V71.5h3.1V88.1z"/>
	<path class="st2" d="M85.6,71.2c3.9,0,6.2,2.4,6.4,5.9h-3.1c-0.1-2-1.3-3.3-3.3-3.3c-2.3,0-3.5,1.3-3.5,5.9c0,4.7,1.2,6,3.5,6
		c2.4,0,3.3-1.6,3.4-4h-3.3v-2.5H92v8.8h-2.2l-0.4-2c-0.6,1.3-2,2.3-4,2.3c-5,0-6.3-4.2-6.3-8.6C79,75.5,80.2,71.2,85.6,71.2z"/>
	<path class="st2" d="M97.6,76.8v11.3h-3V71.5h3.2l5.8,11.3V71.5h3v16.6h-3.2L97.6,76.8z"/>
</g>
</svg>
