<?xml version="1.0" encoding="utf-8"?>
<!-- Generator: Adobe Illustrator 23.1.0, SVG Export Plug-In . SVG Version: 6.00 Build 0)  -->
<svg version="1.1" id="Layer_1" xmlns="http://www.w3.org/2000/svg" xmlns:xlink="http://www.w3.org/1999/xlink" x="0px" y="0px"
	 viewBox="0 0 140 430" style="enable-background:new 0 0 140 430;" xml:space="preserve">
<style type="text/css">
	.st0{fill:#066D5E;}
	.st1{fill:#F7E5A9;}
	.st2{fill:#FFFFFF;}
</style>
<g>
	<path class="st0" d="M71.29,430h-2.58c-1.87,0-3.4-1.53-3.4-3.4V48.19c0-1.87,1.53-3.4,3.4-3.4h2.58c1.87,0,3.4,1.53,3.4,3.4V426.6
		C74.69,428.47,73.16,430,71.29,430z"/>
	<path class="st0" d="M109.69,163.77H30.31C13.64,163.77,0,150.14,0,133.47V30.31C0,13.64,13.64,0,30.31,0h79.39
		C126.36,0,140,13.64,140,30.31v103.16C140,150.14,126.36,163.77,109.69,163.77z"/>
	<path class="st1" d="M6.26,133.21V30.56c0-13.42,10.88-24.31,24.31-24.31h78.87c13.42,0,24.31,10.88,24.31,24.31v102.65
		c0,13.42-10.88,24.31-24.31,24.31H30.57C17.14,157.52,6.26,146.64,6.26,133.21z"/>
	<rect x="0" y="51.43" class="st0" width="140" height="60.91"/>
	<g>
		<path class="st2" d="M31.23,72.95c3.88,0,6.2,2.38,6.37,5.86h-3.05c-0.1-2-1.27-3.23-3.32-3.23c-2.32,0-3.51,1.27-3.51,5.9
			s1.15,5.94,3.51,5.94c2.4,0,3.24-1.58,3.38-3.94h-3.28v-2.44h6.24v8.7h-2.19l-0.42-1.98c-0.58,1.33-2.02,2.27-3.99,2.27
			c-4.99,0-6.3-4.21-6.3-8.55C24.67,77.24,25.86,72.95,31.23,72.95z"/>
		<path class="st2" d="M48.71,86.15c-0.08-1.71-0.86-2.4-2.69-2.4h-2.84v5.99h-3.07v-16.5h6.62c3.46,0,5.3,1.86,5.3,5.05
			c0,2.17-0.96,3.59-2.88,4.15c1.73,0.27,2.46,1.33,2.59,3.5l0.15,2.29c0.04,0.63,0.15,1.13,0.29,1.5h-3.09
			c-0.15-0.35-0.23-0.88-0.25-1.46L48.71,86.15z M46.23,81.14c1.69,0,2.74-0.71,2.74-2.65s-1.04-2.65-2.74-2.65h-3.05v5.3H46.23z"/>
		<path class="st2" d="M53.22,89.74l5.34-16.5h3.51l5.34,16.5h-3.15l-1-3.38h-5.91l-0.98,3.38H53.22z M60.32,76.26l-2.21,7.51h4.4
			L60.32,76.26z"/>
		<path class="st2" d="M72,83.75v5.99h-3.07v-16.5h6.6c3.32,0,5.3,1.92,5.3,5.26c0,3.36-1.98,5.26-5.3,5.26H72z M75.12,81.14
			c1.77,0,2.67-0.94,2.67-2.65c0-1.71-0.9-2.65-2.67-2.65H72v5.3H75.12z"/>
		<path class="st2" d="M91.42,82.58h-5.59v7.15h-3.07v-16.5h3.07V80h5.59v-6.76h3.07v16.5h-3.07V82.58z"/>
		<path class="st2" d="M100.22,89.74h-3.07v-16.5h3.07V89.74z"/>
		<path class="st2" d="M104,75.26c1.04-1.44,2.65-2.32,5.07-2.32c3.88,0,6.2,2.38,6.37,5.86h-3.05c-0.1-2-1.27-3.23-3.32-3.23
			c-1.21,0-2.07,0.46-2.61,1.25c-0.61,0.9-0.9,2.17-0.9,4.65c0,2.52,0.29,3.78,0.9,4.69c0.54,0.79,1.4,1.25,2.61,1.25
			c2.05,0,3.22-1.23,3.32-3.23h3.05c-0.17,3.48-2.48,5.84-6.37,5.84c-2.42,0-4.03-0.85-5.07-2.29c-1.21-1.69-1.48-3.94-1.48-6.26
			C102.52,79.18,102.79,76.95,104,75.26z"/>
	</g>
</g>
</svg>
