<?xml version="1.0" encoding="utf-8"?>
<!-- Generator: Adobe Illustrator 26.3.1, SVG Export Plug-In . SVG Version: 6.00 Build 0)  -->
<svg version="1.1" id="Layer_1" xmlns="http://www.w3.org/2000/svg" xmlns:xlink="http://www.w3.org/1999/xlink" x="0px" y="0px"
	 viewBox="0 0 140 490" style="enable-background:new 0 0 140 490;" xml:space="preserve">
<style type="text/css">
	.st0{fill:#066D5E;}
	.st1{fill:#F7E5A9;}
	.st2{fill:#FFFFFF;}
</style>
<g>
	<path class="st0" d="M71.1,490h-2.3c-2,0-3.6-1.6-3.6-3.6V107.3c0-2,1.6-3.6,3.6-3.6h2.3c2,0,3.6,1.6,3.6,3.6v379.2
		C74.7,488.4,73.1,490,71.1,490z"/>
	<path class="st0" d="M108.3,164.2H31.7C14.2,164.2,0,150,0,132.6V31.7C0,14.2,14.2,0,31.7,0h76.7C125.8,0,140,14.2,140,31.7v100.9
		C140,150,125.8,164.2,108.3,164.2z"/>
	<path class="st1" d="M6.3,132.6V31.7c0-14,11.4-25.4,25.4-25.4h76.7c14,0,25.4,11.4,25.4,25.4v100.9c0,14-11.4,25.4-25.4,25.4H31.7
		C17.6,158,6.3,146.6,6.3,132.6z"/>
	<rect x="0" y="51.6" class="st0" width="140" height="61.1"/>
	<g>
		<path class="st2" d="M45.2,67.8c0-3.1,0.3-5.5,1.4-6.8c0.7-0.9,1.8-1.4,3-1.4c1.3,0,2.3,0.5,3.1,1.4c0.5,0.6,0.8,1.4,1.1,2.5h3.3
			v-3.8h2.1v17.3h-2.1v-5.2h-3.3c-0.2,1.2-0.6,2.2-1.1,2.9C52,75.5,50.9,76,49.6,76c-1.3,0-2.3-0.4-3-1.3
			C45.5,73.3,45.2,70.9,45.2,67.8z M52,67.8c0-2.7-0.2-4.7-0.9-5.7c-0.3-0.5-0.9-0.7-1.5-0.7c-0.6,0-1.1,0.2-1.5,0.7
			c-0.7,0.9-0.9,2.9-0.9,5.7c0,2.7,0.2,4.7,0.9,5.7c0.4,0.4,0.9,0.7,1.5,0.7c0.6,0,1.2-0.2,1.5-0.7C51.8,72.6,52,70.6,52,67.8z
			 M54,65.3c0.1,0.8,0.1,1.6,0.1,2.6c0,0.8,0,1.5-0.1,2.2h3v-4.7H54z"/>
		<path class="st2" d="M69.9,63.7v-1.9h-6.2v-1.8h8.3v3.5c0,6.6-2.4,11-8.4,12.5v-2C67.9,72.7,69.9,69.1,69.9,63.7z M77.4,59.6v17.3
			h-2.1V59.6H77.4z"/>
		<path class="st2" d="M81.2,69.3v-1.6h15.5v1.6H81.2z M84.4,64V65h11.3v1.5H82.3v-4.1h11.2v-1H82.3v-1.6h13.3V64H84.4z M84.4,74.5
			v1.1H96v1.5H82.3V73h11.2v-1.1H82.3v-1.5h13.3v4.1H84.4z"/>
		<path class="st2" d="M17.3,96.4v-1.7h15.5v1.7H17.3z M29.6,91.1v-1.3H18.4v-1.7h13.3v3c0,1-0.1,2.1-0.3,2.9h-2
			c0.1-0.4,0.2-0.9,0.2-1.3C28.2,93,26.3,93,24.4,93h-6v-1.7h6C26.3,91.3,28.2,91.3,29.6,91.1z M20.5,102.4v1.3h11.6v1.7H18.4v-4.6
			h11.2v-1.3H18.4v-1.7h13.3v4.6H20.5z"/>
		<path class="st2" d="M44.1,97.7h-8V92h6.4v-2.2h-6.4v-1.7h8.4v5.6h-6.4V96h6.4c1.6,0,2.7-0.2,3.4-0.8v-7.3h2.1v10.5H48v-1.5
			C47.3,97.4,46,97.7,44.1,97.7z M48,105.5v-4h-11v-1.8h13.1v5.8H48z"/>
		<path class="st2" d="M61.5,91.7H54v-1.8h2.7v-2.5h2.1v2.5h2.6V91.7z M54.4,98.6c0-2.5,0.5-4.3,1.6-5.1c0.5-0.4,1.1-0.6,1.9-0.6
			c0.8,0,1.4,0.2,1.9,0.6c1,0.9,1.5,2.6,1.5,5.1c0,2.6-0.5,4.3-1.6,5.1c-0.5,0.4-1.1,0.6-1.9,0.6c-0.8,0-1.4-0.2-1.8-0.6
			C54.8,102.9,54.4,101.2,54.4,98.6z M56.3,98.6c0,2,0.2,3.1,0.7,3.7c0.2,0.2,0.4,0.3,0.7,0.3c0.3,0,0.5-0.1,0.7-0.3
			c0.5-0.5,0.7-1.7,0.7-3.7c0-2-0.2-3.2-0.7-3.7c-0.2-0.2-0.5-0.3-0.8-0.3c-0.3,0-0.6,0.1-0.8,0.4C56.6,95.6,56.3,96.7,56.3,98.6z
			 M68.5,105.2h-2v-8.6h-1.7v8.4h-1.9V88h1.9v6.8h1.7v-6.9h2V105.2z"/>
		<path class="st2" d="M72.2,100.8V99h15.3v1.8h-6.7v4.7h-2.1v-4.7H72.2z M86.6,89.9h-5.8V90c0,3,2.8,4.7,5.9,5.2V97
			c-3.1-0.5-5.6-1.8-6.9-3.7c-1.4,1.9-4,3.2-7,3.7v-1.8c3.1-0.5,5.9-2.2,5.9-5.2v-0.1h-5.7v-1.8h13.5V89.9z"/>
		<path class="st2" d="M93.9,100.3c-0.7,1.5-2.1,2.9-3.9,3.7v-1.9c1.7-1,2.9-2.8,2.9-6.6v-7.4h2v7.4c0,3.9,1.1,5.6,2.9,6.7v1.9
			C96.1,103.2,94.6,101.8,93.9,100.3z M101.3,105h-2v-9h-2.6v-1.8h2.6V88h2V105z M105.1,105.2h-2V87.9h2V105.2z"/>
		<path class="st2" d="M109.2,93.2c0-1.6,0.6-2.8,1.7-3.7c1.3-1,3.2-1.5,5.5-1.5c2.3,0,4.2,0.5,5.5,1.5c1,0.9,1.7,2.1,1.7,3.7
			c0,1.6-0.6,2.8-1.7,3.7c-0.4,0.3-0.8,0.5-1.2,0.7v5h3.4v1.8h-15.3v-1.8h3.5v-5c-0.5-0.2-0.9-0.5-1.3-0.8
			C109.8,96,109.2,94.8,109.2,93.2z M111.3,93.2c0,1,0.4,1.8,1.1,2.3c0.9,0.7,2.3,1.1,4,1.1s3.1-0.3,4-1.1c0.7-0.6,1.1-1.3,1.1-2.3
			c0-1-0.4-1.7-1.1-2.3c-0.9-0.7-2.3-1-4-1s-3.1,0.3-4,1C111.7,91.4,111.3,92.2,111.3,93.2z M118.5,98.2c-0.7,0.1-1.4,0.2-2.2,0.2
			c-0.7,0-1.4-0.1-2.1-0.2v4.4h4.3V98.2z"/>
	</g>
</g>
</svg>
