<?xml version="1.0" encoding="utf-8"?>
<!-- Generator: Adobe Illustrator 23.1.0, SVG Export Plug-In . SVG Version: 6.00 Build 0)  -->
<svg version="1.1" id="레이어_1" xmlns="http://www.w3.org/2000/svg" xmlns:xlink="http://www.w3.org/1999/xlink" x="0px"
	 y="0px" viewBox="0 0 150 150" style="enable-background:new 0 0 150 150;" xml:space="preserve">
<style type="text/css">
	.st0{clip-path:url(#SVGID_2_);}
	.st1{fill:#066D5E;}
	.st2{clip-path:url(#SVGID_4_);}
	.st3{clip-path:url(#SVGID_6_);}
	.st4{clip-path:url(#SVGID_8_);}
	.st5{clip-path:url(#SVGID_10_);}
	.st6{fill:#E54D26;}
	.st7{fill:#F66B3A;}
	.st8{fill:#FFFFFF;}
	.st9{fill:#E6C72F;}
	.st10{fill:#FFDE24;}
	.st11{fill:#006EBA;}
	.st12{fill:#15A0DB;}
	.st13{fill:#1ABCFE;}
	.st14{fill:#FF7262;}
	.st15{fill:#F24E1E;}
	.st16{fill:#A259FF;}
	.st17{fill:#0ACF83;}
	.st18{fill:#330000;}
	.st19{fill:#FF9A00;}
	.st20{fill:#001E36;}
	.st21{fill:#31A8FF;}
	.st22{fill:#0868AB;}
</style>
<g>
	<g>
		<defs>
			<circle id="SVGID_1_" cx="-392.5" cy="-309.6" r="75"/>
		</defs>
		<clipPath id="SVGID_2_">
			<use xlink:href="#SVGID_1_"  style="overflow:visible;"/>
		</clipPath>
		<g class="st0">
			<rect x="-472.5" y="-362.6" class="st1" width="163.1" height="133.2"/>
		</g>
	</g>
</g>
<g>
	<g>
		<defs>
			<circle id="SVGID_3_" cx="-210.2" cy="-309.6" r="75"/>
		</defs>
		<clipPath id="SVGID_4_">
			<use xlink:href="#SVGID_3_"  style="overflow:visible;"/>
		</clipPath>
		<g class="st2">
			<rect x="-290.1" y="-370.6" class="st1" width="163.1" height="141.2"/>
		</g>
	</g>
</g>
<g>
	<g>
		<defs>
			<circle id="SVGID_5_" cx="-24.5" cy="-318" r="75"/>
		</defs>
		<clipPath id="SVGID_6_">
			<use xlink:href="#SVGID_5_"  style="overflow:visible;"/>
		</clipPath>
		<g class="st3">
			<rect x="-104.5" y="-361.7" class="st1" width="163.1" height="123.8"/>
		</g>
	</g>
</g>
<g>
	<g>
		<defs>
			<circle id="SVGID_7_" cx="-290.2" cy="-137" r="75"/>
		</defs>
		<clipPath id="SVGID_8_">
			<use xlink:href="#SVGID_7_"  style="overflow:visible;"/>
		</clipPath>
		<g class="st4">
			<rect x="-370.2" y="-165.4" class="st1" width="163.1" height="108.5"/>
		</g>
	</g>
</g>
<g>
	<g>
		<defs>
			<circle id="SVGID_9_" cx="-64.4" cy="-131.8" r="75"/>
		</defs>
		<clipPath id="SVGID_10_">
			<use xlink:href="#SVGID_9_"  style="overflow:visible;"/>
		</clipPath>
		<g class="st5">
			<rect x="-144.3" y="-169.9" class="st1" width="163.1" height="118.3"/>
		</g>
	</g>
</g>
<text transform="matrix(1 0 0 1 -396.1549 114.9587)" class="st8" style="font-family:'NotoSansKR-Bold-KSCpc-EUC-H'; font-size:28px;">90%</text>
<text transform="matrix(1 0 0 1 -267.5878 114.5667)" class="st8" style="font-family:'NotoSansKR-Bold-KSCpc-EUC-H'; font-size:28px;">95%</text>
<text transform="matrix(1 0 0 1 -137.0968 118.519)" class="st8" style="font-family:'NotoSansKR-Bold-KSCpc-EUC-H'; font-size:28px;">85%</text>
<text transform="matrix(1 0 0 1 -353.4518 247.3323)" class="st8" style="font-family:'NotoSansKR-Bold-KSCpc-EUC-H'; font-size:28px;">80%</text>
<text transform="matrix(1 0 0 1 -216.5497 239.2088)" class="st8" style="font-family:'NotoSansKR-Bold-KSCpc-EUC-H'; font-size:28px;">83%</text>
<g>
	<path class="st6" d="M223,39.6l11.6,134.5l54,15.5l54.8-14.7L355,39.6H223z M331.9,166.4l-43.2,12.4v-126h52.5L331.9,166.4z"/>
	<polygon class="st7" points="288.6,178.7 331.9,166.4 341.1,52.7 288.6,52.7 	"/>
	<polygon class="st8" points="246.9,68.9 330.3,68.9 329.5,86.7 267.8,86.7 268.6,102.2 326.5,102.2 324.1,153.2 289.4,162.5 
		254.7,153.2 253.1,128.5 270.1,128.5 270.9,140.9 289.4,145.5 307.9,140.1 308.7,119.2 252.4,119.2 	"/>
</g>
<g>
	<path class="st9" d="M411.2,31.8l11.6,134.5l54,15.5l54.8-14.7l11.6-135.3C543.2,31.8,411.2,31.8,411.2,31.8z M520.1,158.6
		L476.9,171V45h52.5L520.1,158.6z"/>
	<polygon class="st10" points="476.8,170.9 520.1,158.6 529.3,44.9 476.8,44.9 	"/>
	<g>
		<path class="st8" d="M456.8,63.5h14.7V157l-40.1-10.8v-15.5l25.5,6.2C456.8,136.9,456.8,64.2,456.8,63.5z"/>
		<polygon class="st8" points="482.2,63.5 523.1,63.5 521.6,78.2 496.1,78.2 496.1,103.7 520.1,99.8 515.4,147.7 481.5,157 
			481.5,141.6 503.1,136.1 504.6,116.8 481.5,119.9 481.5,63.5 		"/>
	</g>
</g>
<g>
	<path class="st11" d="M655.6,32.5L667.2,167l54,15.5l54.8-14.7l11.6-135.3H655.6z M764.5,159.3l-43.2,12.4v-126h52.5L764.5,159.3z"
		/>
	<polygon class="st12" points="721.3,171.7 764.5,159.3 773.8,45.7 721.3,45.7 	"/>
	<polygon class="st8" points="680.3,62.7 762.9,62.7 762.2,78.9 729.8,95.9 760.6,95.9 756.8,147 722,155.5 687.3,147 685.8,120.7 
		703.5,120.7 704.3,134.6 722,139.2 740.6,133.8 742.1,113 685,113 683.4,95.9 715.9,79.7 681.9,79.7 	"/>
</g>
<g>
	<ellipse class="st13" cx="177.14" cy="-249.79" rx="25" ry="25.1"/>
	<g>
		<path class="st14" d="M177.54-325.19L177.54-325.19h-25.4v50.2h25.4l0,0c13.6-0.2,24.6-11.3,24.6-25.1
			C202.14-313.89,191.14-324.99,177.54-325.19z"/>
	</g>
	<g>
		<path class="st15" d="M126.74-325.19L126.74-325.19c-13.6,0.2-24.6,11.4-24.6,25.1c0,13.7,11,24.9,24.6,25.1l0,0h25.4v-50.2
			H126.74z"/>
	</g>
	<g>
		<path class="st16" d="M126.74-274.99L126.74-274.99c-13.6,0.3-24.6,11.4-24.6,25.2c0,13.8,11,24.9,24.6,25.1l0,0h25.4v-50.3
			H126.74z"/>
	</g>
	<path class="st17" d="M127.54-224.69c-13.6,0-24.6,11.1-24.6,24.8s11,24.8,24.6,24.8s24.6-11.2,24.6-24.9v-24.8h-24.6V-224.69z"/>
</g>
<g>
	<path class="st18" d="M1023,190.4H893.9c-5.8,0-10.4-4.7-10.4-10.4V50.8c0-5.8,4.7-10.4,10.4-10.4H1023c5.8,0,10.4,4.7,10.4,10.4
		v129.1C1033.5,185.7,1028.8,190.4,1023,190.4z"/>
	<g>
		<g>
			<path class="st19" d="M962.3,142.6l-3.8-13.5h-23.6l-3.8,13.5h-14.9l22.4-70.2h16.1l22.4,70.2H962.3z M938.2,117.3h16.9
				l-8.4-29.8L938.2,117.3z"/>
			<path class="st19" d="M982.8,72.5h13.8v12.1h-13.8V72.5z M982.8,92.5h13.8v50.1h-13.8V92.5z"/>
		</g>
	</g>
</g>
<g>
	<path class="st20" d="M1235.8,189.6h-129.1c-5.8,0-10.4-4.7-10.4-10.4V50c0-5.8,4.7-10.4,10.4-10.4h129.1c5.8,0,10.4,4.7,10.4,10.4
		v129.1C1246.2,184.9,1241.6,189.6,1235.8,189.6z"/>
	<g>
		<g>
			<path class="st21" d="M1137.8,116.9v24.9h-14.5V71.7h28.3c14.6,0,23.1,8.2,23.1,22.6c0,14.5-8.4,22.6-23.1,22.6
				C1151.6,116.9,1137.8,116.9,1137.8,116.9z M1149.6,104.8c6.9,0,10.4-3.5,10.4-10.5c0-6.9-3.5-10.5-10.4-10.5h-11.8v20.9h11.8
				V104.8z"/>
			<path class="st21" d="M1180.1,126.4h13.7v1.3c0,3.3,2.7,5.4,7.1,5.4c4.3,0,7-2.2,7-5.3c0-3.2-1.7-4.9-6.7-5.8l-4.9-0.9
				c-10.7-2-16.2-6.7-16.2-15.3c0-8.9,7.4-15.3,19.8-15.3c12.8,0,19.7,6.3,19.7,15v0.9h-13.7v-1c0-2.8-2-5-5.9-5
				c-3.8,0-5.9,2-5.9,4.9s1.9,4.4,6.7,5.3l5,0.9c11.3,2.1,16,6.7,16,15.8s-7.8,15.8-20.8,15.8c-13.3,0-20.8-6.8-20.8-15.8v-0.9
				H1180.1z"/>
		</g>
	</g>
</g>
<g>
	<path class="st22" d="M16.42,24.44c-0.12-0.04-0.27-0.04-0.46,0.03c-0.19,0.07-0.36,0.19-0.52,0.33c-0.75,0.64-1.31,1.45-1.92,2.22
		c-0.67,0.84-1.29,1.73-1.9,2.62c-1.21,1.78-2.34,3.63-3.41,5.5c-0.05,0.09-0.11,0.19-0.16,0.28c-1.51,2.67-2.86,5.44-3.98,8.3
		c-7.98,20.32-3.59,43.83,7.27,61.98c8.8,14.71,22.85,26.94,38.62,33.96c12.13,5.4,25.63,7.69,38.86,6.47
		c20.84-1.93,40.27-12.1,53.28-28.56c1.09-1.38,2.16-2.78,3.13-4.24c0.46-0.69,0.91-1.4,1.26-2.15c0.18-0.38,0.53-2.17,0.78-2.34
		c-2.21,1.48-4.09,3.73-6.22,5.37c-2.25,1.73-4.61,3.31-7.07,4.73c-16.67,9.61-37.28,11-55.74,6.44c-2.85-0.71-5.66-1.56-8.43-2.55
		c-18.21-6.56-34.04-19.84-44.54-36.01c-5.37-8.27-9.59-17.42-10.29-27.34c-0.32-4.48-0.52-8.97-0.5-13.47
		c0.02-4.5,0.26-9,0.83-13.47c0.2-1.57,0.4-3.15,0.83-4.68C16.3,27.35,17.24,24.73,16.42,24.44z"/>
	<path class="st22" d="M55.27,12.48c-0.08-0.03-0.19-0.03-0.33,0.02c-0.14,0.05-0.26,0.14-0.37,0.23c-0.54,0.45-0.95,1.02-1.39,1.56
		c-0.48,0.6-0.93,1.22-1.37,1.85c-0.88,1.26-1.69,2.56-2.46,3.88c-0.04,0.07-0.08,0.13-0.11,0.2c-1.1,1.88-2.07,3.84-2.88,5.85
		C40.57,40.41,43.74,57,51.6,69.8c6.37,10.38,16.54,19.01,27.95,23.96c8.78,3.81,18.56,5.42,28.13,4.56
		c15.09-1.36,29.15-8.54,38.57-20.15c0.79-0.97,1.56-1.96,2.27-2.99c0.33-0.49,0.66-0.99,0.91-1.52c0.13-0.27,0.38-1.53,0.57-1.65
		c-1.6,1.04-2.96,2.63-4.51,3.79c-1.63,1.22-3.34,2.34-5.11,3.34c-12.07,6.78-26.99,7.76-40.34,4.54c-2.06-0.5-4.1-1.1-6.1-1.8
		c-13.18-4.63-24.64-14-32.24-25.41c-3.89-5.84-6.94-12.29-7.45-19.29c-0.23-3.16-0.38-6.33-0.37-9.5c0.01-3.17,0.19-6.35,0.6-9.5
		c0.15-1.11,0.29-2.22,0.6-3.3C55.18,14.53,55.86,12.68,55.27,12.48z"/>
	<path class="st22" d="M90.3,3.58c-0.05-0.02-0.11-0.02-0.2,0.01c-0.08,0.03-0.16,0.08-0.22,0.14c-0.32,0.28-0.57,0.63-0.83,0.96
		c-0.29,0.37-0.56,0.75-0.82,1.14c-0.52,0.77-1.01,1.57-1.47,2.38c-0.02,0.04-0.05,0.08-0.07,0.12c-0.65,1.16-1.23,2.36-1.72,3.59
		c-3.44,8.8-1.55,18.98,3.13,26.84c3.79,6.37,9.85,11.67,16.64,14.71c5.23,2.34,11.05,3.33,16.75,2.8
		c8.98-0.83,17.36-5.24,22.97-12.37c0.47-0.6,0.93-1.21,1.35-1.84c0.2-0.3,0.39-0.61,0.54-0.93c0.08-0.17,0.23-0.94,0.34-1.01
		c-0.95,0.64-1.76,1.61-2.68,2.33c-0.97,0.75-1.99,1.43-3.05,2.05c-7.19,4.16-16.07,4.77-24.02,2.79c-1.23-0.31-2.44-0.67-3.63-1.11
		c-7.85-2.84-14.67-8.59-19.2-15.6C91.81,27,90,23.03,89.7,18.74c-0.14-1.94-0.22-3.89-0.22-5.83c0.01-1.95,0.11-3.9,0.36-5.83
		c0.09-0.68,0.17-1.37,0.36-2.03C90.25,4.84,90.65,3.71,90.3,3.58z"/>
</g>
</svg>
