<?xml version="1.0" encoding="utf-8"?>
<!-- Generator: Adobe Illustrator 26.3.1, SVG Export Plug-In . SVG Version: 6.00 Build 0)  -->
<svg version="1.1" id="Layer_1" xmlns="http://www.w3.org/2000/svg" xmlns:xlink="http://www.w3.org/1999/xlink" x="0px" y="0px"
	 viewBox="0 0 140 430" style="enable-background:new 0 0 140 430;" xml:space="preserve">
<style type="text/css">
	.st0{fill:#066D5E;}
	.st1{fill:#F7E5A9;}
	.st2{fill:#FFFFFF;}
</style>
<g>
	<path class="st0" d="M-254.4,411.1h-2.3c-2,0-3.5-1.6-3.5-3.5V29.5c0-2,1.6-3.5,3.5-3.5h2.3c2,0,3.5,1.6,3.5,3.5v378.1
		C-250.8,409.5-252.4,411.1-254.4,411.1z"/>
	<path class="st0" d="M-217.2,144.9h-76.8c-17.4,0-31.6-14.2-31.6-31.6V12.8c0-17.4,14.2-31.6,31.6-31.6h76.8
		c17.4,0,31.6,14.2,31.6,31.6v100.5C-185.5,130.7-199.8,144.9-217.2,144.9z"/>
	<path class="st1" d="M-319.3,113.3V12.7c0-14,11.4-25.4,25.4-25.4h76.8c14,0,25.4,11.4,25.4,25.4v100.6c0,14-11.4,25.4-25.4,25.4
		h-76.8C-307.9,138.7-319.3,127.3-319.3,113.3z"/>
	<rect x="-325.5" y="32.6" class="st0" width="140" height="60.9"/>
	
		<text transform="matrix(1.0008 0 0 1 -296.2249 70.9947)" class="st2" style="font-family:'S-CoreDream-5Medium'; font-size:21.1738px;">뒤로가기</text>
</g>
<g>
	<path class="st0" d="M71.1,430h-2.3c-2,0-3.5-1.6-3.5-3.5V48.3c0-2,1.6-3.5,3.5-3.5h2.3c2,0,3.5,1.6,3.5,3.5v378.1
		C74.7,428.4,73.1,430,71.1,430z"/>
	<path class="st0" d="M108.4,163.8H31.6C14.2,163.8,0,149.5,0,132.2V31.6C0,14.2,14.2,0,31.6,0h76.8C125.8,0,140,14.2,140,31.6
		v100.5C140,149.5,125.8,163.8,108.4,163.8z"/>
	<path class="st1" d="M6.3,132.2V31.6c0-14,11.4-25.4,25.4-25.4h76.8c14,0,25.4,11.4,25.4,25.4v100.6c0,14-11.4,25.4-25.4,25.4H31.6
		C17.6,157.5,6.3,146.2,6.3,132.2z"/>
	<rect x="0" y="51.4" class="st0" width="140" height="60.9"/>
	<g>
		<path class="st2" d="M21.4,73c3.8,0,6.1,2.4,6.3,5.8h-2.5c-0.1-2.2-1.5-3.6-3.8-3.6c-3.2,0-4,2.5-4,6.4c0,4.7,1.3,6.4,4,6.4
			c2.4,0,3.8-1.6,3.8-4.1v-0.6h-3.7v-2.1h6.1v8.7h-1.8l-0.4-2.1c-0.6,1.4-2.1,2.4-4.2,2.4c-5,0-6.3-4.2-6.3-8.6
			C15,77,16.2,73,21.4,73z"/>
		<path class="st2" d="M40.7,89.8l-1.2-3.7H33l-1.2,3.7h-2.5l5.5-16.6h2.9l5.6,16.6H40.7z M36.2,75.7L33.6,84h5.2L36.2,75.7z"/>
		<path class="st2" d="M47.4,89.8h-2.5V73.2h2.5V89.8z"/>
		<path class="st2" d="M59.6,89.8l-6.8-12.2v12.2h-2.5V73.2h2.5l6.8,12.2V73.2h2.5v16.6H59.6z"/>
		<path class="st2" d="M70.1,73.2h11.8v2.1h-4.7v14.5h-2.5V75.4h-4.7V73.2z"/>
		<path class="st2" d="M82.9,81.5c0-4.4,1.2-8.6,6.5-8.6c5.1,0,6.4,4.1,6.4,8.6c0,4.5-1.3,8.6-6.4,8.6C84.1,90.1,82.9,86,82.9,81.5z
			 M93.3,81.5c0-3.9-0.9-6.4-4-6.4c-3.2,0-4,2.5-4,6.4c0,4,0.9,6.4,4,6.4C92.4,88,93.3,85.6,93.3,81.5z"/>
		<path class="st2" d="M108,83.4V73.2h2.5v10.4c0,3.9-2,6.4-6.1,6.4s-6.1-2.5-6.1-6.4V73.2h2.5v10.1c0,3,1.1,4.6,3.7,4.6
			C106.9,88,108,86.4,108,83.4z"/>
		<path class="st2" d="M122.3,86.4c-0.1-2-0.9-2.8-3.1-2.8h-3.4v6.3h-2.5V73.2h6.5c3.5,0,5.2,1.8,5.2,5c0,2.2-1,3.7-2.9,4.2
			c1.7,0.3,2.4,1.4,2.6,3.5l0.1,2c0,0.7,0.1,1.4,0.3,1.8h-2.5c-0.1-0.4-0.2-0.9-0.3-1.5L122.3,86.4z M119.4,81.4c2,0,3.2-0.9,3.2-3
			s-1.2-3-3.2-3h-3.6v6.1H119.4z"/>
	</g>
</g>
<g>
	<path class="st0" d="M-497.6,430h-2.3c-2,0-3.5-1.6-3.5-3.5V48.3c0-2,1.6-3.5,3.5-3.5h2.3c2,0,3.5,1.6,3.5,3.5v378.1
		C-494.1,428.4-495.7,430-497.6,430z"/>
	<path class="st0" d="M-460.4,163.8h-76.8c-17.4,0-31.6-14.2-31.6-31.6V31.6c0-17.4,14.2-31.6,31.6-31.6h76.8
		c17.4,0,31.6,14.2,31.6,31.6v100.5C-428.8,149.5-443,163.8-460.4,163.8z"/>
	<path class="st1" d="M-562.5,132.2V31.6c0-14,11.4-25.4,25.4-25.4h76.8c14,0,25.4,11.4,25.4,25.4v100.6c0,14-11.4,25.4-25.4,25.4
		h-76.8C-551.2,157.5-562.5,146.2-562.5,132.2z"/>
	<rect x="-568.8" y="51.4" class="st0" width="140" height="60.9"/>
	
		<text transform="matrix(1.0008 0 0 1 -554.8841 89.856)" class="st2" style="font-family:'S-CoreDream-5Medium'; font-size:21.1738px;">GAIN TOUR</text>
</g>
</svg>
