<?xml version="1.0" encoding="utf-8"?>
<!-- Generator: Adobe Illustrator 23.1.0, SVG Export Plug-In . SVG Version: 6.00 Build 0)  -->
<svg version="1.1" id="Layer_1" xmlns="http://www.w3.org/2000/svg" xmlns:xlink="http://www.w3.org/1999/xlink" x="0px" y="0px"
	 viewBox="0 0 140 430" style="enable-background:new 0 0 140 430;" xml:space="preserve">
<style type="text/css">
	.st0{fill:#066D5E;}
	.st1{fill:#F7E5A9;}
	.st2{fill:#FFFFFF;}
</style>
<g>
	<path class="st0" d="M71.58,430.09H69c-1.87,0-3.4-1.53-3.4-3.4V48.28c0-1.87,1.53-3.4,3.4-3.4h2.58c1.87,0,3.4,1.53,3.4,3.4
		v378.41C74.98,428.56,73.45,430.09,71.58,430.09z"/>
	<path class="st0" d="M109.98,163.87H30.59c-16.67,0-30.31-13.64-30.31-30.31V30.4c0-16.67,13.64-30.31,30.31-30.31h79.39
		c16.67,0,30.31,13.64,30.31,30.31v103.16C140.29,150.23,126.65,163.87,109.98,163.87z"/>
	<path class="st1" d="M6.55,133.3V30.65c0-13.42,10.88-24.31,24.31-24.31h78.87c13.42,0,24.31,10.88,24.31,24.31V133.3
		c0,13.42-10.88,24.31-24.31,24.31H30.86C17.43,157.61,6.55,146.73,6.55,133.3z"/>
	<rect x="0.29" y="51.52" class="st0" width="140" height="60.91"/>
	<g>
		<path class="st2" d="M32.33,83.84v5.99h-3.07v-16.5h6.6c3.32,0,5.3,1.92,5.3,5.26c0,3.36-1.98,5.26-5.3,5.26H32.33z M35.44,81.23
			c1.77,0,2.67-0.94,2.67-2.65c0-1.71-0.9-2.65-2.67-2.65h-3.11v5.3H35.44z"/>
		<path class="st2" d="M51.67,86.24c-0.08-1.71-0.86-2.4-2.69-2.4h-2.84v5.99h-3.07v-16.5h6.62c3.47,0,5.3,1.86,5.3,5.05
			c0,2.17-0.96,3.59-2.88,4.15c1.73,0.27,2.46,1.33,2.59,3.5l0.15,2.29c0.04,0.63,0.15,1.13,0.29,1.5h-3.09
			c-0.15-0.35-0.23-0.88-0.25-1.46L51.67,86.24z M49.19,81.23c1.69,0,2.73-0.71,2.73-2.65s-1.04-2.65-2.73-2.65h-3.05v5.3H49.19z"/>
		<path class="st2" d="M68.45,87.83c-1.04,1.44-2.65,2.29-5.05,2.29c-2.42,0-4.03-0.85-5.07-2.29c-1.21-1.69-1.48-3.94-1.48-6.26
			c0-2.29,0.27-4.53,1.48-6.22c1.04-1.44,2.65-2.32,5.07-2.32c2.4,0,4.01,0.88,5.05,2.32c1.21,1.69,1.48,3.92,1.48,6.22
			C69.94,83.88,69.66,86.14,68.45,87.83z M65.99,76.92c-0.54-0.79-1.4-1.25-2.59-1.25c-1.21,0-2.07,0.46-2.61,1.25
			c-0.61,0.9-0.9,2.17-0.9,4.65c0,2.52,0.29,3.78,0.9,4.69c0.54,0.79,1.4,1.25,2.61,1.25c1.19,0,2.05-0.46,2.59-1.25
			c0.63-0.92,0.9-2.17,0.9-4.69C66.89,79.09,66.62,77.81,65.99,76.92z"/>
		<path class="st2" d="M72.23,73.33h9.94v2.61H75.3v4.38h6.14v2.59H75.3v6.92h-3.07V73.33z"/>
		<path class="st2" d="M87.15,89.83h-3.07v-16.5h3.07V89.83z"/>
		<path class="st2" d="M89.82,73.33h3.07v13.89h7.1v2.61H89.82V73.33z"/>
		<path class="st2" d="M101.64,73.33h10.06v2.61h-6.99v4.15h6.14v2.59h-6.14v4.55h7.1v2.61h-10.17V73.33z"/>
	</g>
</g>
</svg>
