<?xml version="1.0" encoding="utf-8"?>
<!-- Generator: Adobe Illustrator 23.1.0, SVG Export Plug-In . SVG Version: 6.00 Build 0)  -->
<svg version="1.1" id="Layer_1" xmlns="http://www.w3.org/2000/svg" xmlns:xlink="http://www.w3.org/1999/xlink" x="0px" y="0px"
	 viewBox="0 0 140 430" style="enable-background:new 0 0 140 430;" xml:space="preserve">
<style type="text/css">
	.st0{fill:#066D5E;}
	.st1{fill:#F7E5A9;}
	.st2{fill:#FFFFFF;}
</style>
<g>
	<path class="st0" d="M71.29,430h-2.58c-1.87,0-3.4-1.53-3.4-3.4V48.19c0-1.87,1.53-3.4,3.4-3.4h2.58c1.87,0,3.4,1.53,3.4,3.4V426.6
		C74.69,428.47,73.16,430,71.29,430z"/>
	<path class="st0" d="M109.69,163.77H30.31C13.64,163.77,0,150.14,0,133.47V30.31C0,13.64,13.64,0,30.31,0h79.39
		C126.36,0,140,13.64,140,30.31v103.16C140,150.14,126.36,163.77,109.69,163.77z"/>
	<path class="st1" d="M6.26,133.21V30.56c0-13.42,10.88-24.31,24.31-24.31h78.87c13.42,0,24.31,10.88,24.31,24.31v102.65
		c0,13.42-10.88,24.31-24.31,24.31H30.57C17.14,157.52,6.26,146.64,6.26,133.21z"/>
	<rect x="0" y="51.43" class="st0" width="140" height="60.91"/>
	<g>
		<path class="st2" d="M59.93,74.37c-0.08-1.71-0.86-2.4-2.69-2.4H54.4v5.99h-3.07v-16.5h6.62c3.47,0,5.3,1.86,5.3,5.05
			c0,2.17-0.96,3.59-2.88,4.15c1.73,0.27,2.46,1.33,2.59,3.5l0.15,2.29c0.04,0.63,0.15,1.13,0.29,1.5h-3.09
			c-0.15-0.35-0.23-0.88-0.25-1.46L59.93,74.37z M57.45,69.36c1.69,0,2.73-0.71,2.73-2.65s-1.04-2.65-2.73-2.65H54.4v5.3H57.45z"/>
		<path class="st2" d="M65.59,61.46h10.06v2.61h-6.99v4.15h6.14v2.59h-6.14v4.55h7.1v2.61H65.59V61.46z"/>
		<path class="st2" d="M83.41,78.25c-3.67,0-5.85-2.04-5.85-4.96v-0.27h3.05v0.35c0,1.38,1.06,2.32,2.8,2.32
			c1.73,0,2.8-0.94,2.8-2.32c0-1.21-0.77-2.04-2.32-2.36l-2-0.42c-2.67-0.54-4.32-2.02-4.32-4.71c0-2.57,1.88-4.71,5.53-4.71
			c3.65,0,5.55,2.17,5.55,4.69v0.23h-3.07v-0.23c0-1.23-0.88-2.11-2.48-2.11c-1.63,0-2.48,0.88-2.48,2.11s0.73,1.84,2.32,2.17
			l1.98,0.42c2.75,0.56,4.34,2.17,4.34,4.82C89.26,76.18,87.11,78.25,83.41,78.25z"/>
		<path class="st2" d="M29.65,95.95v5.99h-3.07v-16.5h6.6c3.32,0,5.3,1.92,5.3,5.26c0,3.36-1.98,5.26-5.3,5.26H29.65z M32.76,93.34
			c1.77,0,2.67-0.94,2.67-2.65s-0.9-2.65-2.67-2.65h-3.11v5.3H32.76z"/>
		<path class="st2" d="M51.63,99.94c-1.04,1.44-2.65,2.3-5.05,2.3c-2.42,0-4.03-0.86-5.07-2.3c-1.21-1.69-1.48-3.94-1.48-6.26
			c0-2.29,0.27-4.53,1.48-6.22c1.04-1.44,2.65-2.32,5.07-2.32c2.4,0,4.01,0.88,5.05,2.32c1.21,1.69,1.48,3.92,1.48,6.22
			C53.11,95.99,52.84,98.25,51.63,99.94z M49.16,89.03c-0.54-0.79-1.4-1.25-2.59-1.25c-1.21,0-2.07,0.46-2.61,1.25
			c-0.61,0.9-0.9,2.17-0.9,4.65c0,2.52,0.29,3.78,0.9,4.69c0.54,0.79,1.4,1.25,2.61,1.25c1.19,0,2.05-0.46,2.59-1.25
			c0.63-0.92,0.9-2.17,0.9-4.69C50.06,91.2,49.79,89.92,49.16,89.03z"/>
		<path class="st2" d="M58.43,90.74v11.2H55.4v-16.5h3.13l5.8,11.22V85.44h3.03v16.5h-3.13L58.43,90.74z"/>
		<path class="st2" d="M75.5,102.23c-3.67,0-5.85-2.04-5.85-4.97V97h3.05v0.35c0,1.38,1.06,2.32,2.8,2.32c1.73,0,2.8-0.94,2.8-2.32
			c0-1.21-0.77-2.04-2.32-2.36l-2-0.42c-2.67-0.54-4.32-2.02-4.32-4.71c0-2.57,1.88-4.71,5.53-4.71c3.65,0,5.55,2.17,5.55,4.69v0.23
			h-3.07v-0.23c0-1.23-0.88-2.11-2.48-2.11c-1.63,0-2.48,0.88-2.48,2.11c0,1.23,0.73,1.84,2.32,2.17L77,92.43
			c2.75,0.56,4.34,2.17,4.34,4.82C81.35,100.17,79.2,102.23,75.5,102.23z"/>
		<path class="st2" d="M86.5,101.94h-3.07v-16.5h3.07V101.94z"/>
		<path class="st2" d="M99.06,85.44h3.15l-5.34,16.5h-3.51l-5.34-16.5h3.15l3.95,13.02L99.06,85.44z"/>
		<path class="st2" d="M103.74,85.44h10.06v2.61h-6.99v4.15h6.14v2.59h-6.14v4.55h7.1v2.61h-10.17V85.44z"/>
	</g>
</g>
</svg>
