<?xml version="1.0" encoding="utf-8"?>
<!-- Generator: Adobe Illustrator 26.3.1, SVG Export Plug-In . SVG Version: 6.00 Build 0)  -->
<svg version="1.1" id="Layer_1" xmlns="http://www.w3.org/2000/svg" xmlns:xlink="http://www.w3.org/1999/xlink" x="0px" y="0px"
	 viewBox="0 0 500 380" style="enable-background:new 0 0 500 380;" xml:space="preserve">
<style type="text/css">
	.st0{clip-path:url(#SVGID_00000034810865476930467970000008517498060822964370_);}
	.st1{opacity:0.5;fill:#C0EAFF;enable-background:new    ;}
	.st2{fill:#2E383D;}
	.st3{fill:#066D5E;}
	.st4{fill:#202C33;}
	.st5{fill:#F4D7A8;}
	.st6{clip-path:url(#SVGID_00000119815227834320596530000010745081850443833762_);}
	.st7{opacity:0.5;fill:#C0EAFF;}
	.st8{fill:#FFFFFF;}
	.st9{clip-path:url(#SVGID_00000109005566949687125500000013227951218435646883_);}
	.st10{clip-path:url(#SVGID_00000101075567308885218950000014788447820665706638_);}
	.st11{clip-path:url(#SVGID_00000160186003202974770490000011824245562938596026_);}
</style>
<g>
	<g>
		<defs>
			<rect id="SVGID_1_" x="768.9" y="-35.7" width="500" height="380"/>
		</defs>
		<clipPath id="SVGID_00000081617447811758125510000014385439634506474636_">
			<use xlink:href="#SVGID_1_"  style="overflow:visible;"/>
		</clipPath>
		<g style="clip-path:url(#SVGID_00000081617447811758125510000014385439634506474636_);">
			<g>
				<g>
					<rect x="804" y="22" class="st1" width="429.8" height="336.6"/>
					<path class="st2" d="M810,362.3h-1c-2.7,0-5-2.2-5-5V33.9c0-2.7,2.2-5,5-5h1c2.7,0,5,2.2,5,5v323.4
						C815,360.1,812.7,362.3,810,362.3z"/>
					<path class="st2" d="M1228.8,362.3h-1c-2.7,0-5-2.2-5-5V33.9c0-2.7,2.2-5,5-5h1c2.7,0,5,2.2,5,5v323.4
						C1233.8,360.1,1231.5,362.3,1228.8,362.3z"/>
					<path class="st2" d="M1089.2,362.3h-1c-2.7,0-5-2.2-5-5V33.9c0-2.7,2.2-5,5-5h1c2.7,0,5,2.2,5,5v323.4
						C1094.2,360.1,1091.9,362.3,1089.2,362.3z"/>
					<path class="st2" d="M949.6,362.3h-1c-2.7,0-5-2.2-5-5V33.9c0-2.7,2.2-5,5-5h1c2.7,0,5,2.2,5,5v323.4
						C954.6,360.1,952.3,362.3,949.6,362.3z"/>
				</g>
				<path class="st3" d="M1258.8,29.7H779V-0.8c0-19.2,15.6-34.8,34.9-34.8h410.1c19.2,0,34.8,15.6,34.8,34.8V29.7z"/>
				<g>
					<path class="st4" d="M1172.2,349h-1.1c-3,0-5.5-2.5-5.5-5.5V236c0-3,2.5-5.5,5.5-5.5h1.1c3,0,5.5,2.5,5.5,5.5v107.5
						C1177.7,346.5,1175.3,349,1172.2,349z"/>
					<path class="st4" d="M866.6,349h-1.1c-3,0-5.5-2.5-5.5-5.5V236c0-3,2.5-5.5,5.5-5.5h1.1c3,0,5.5,2.5,5.5,5.5v107.5
						C872.1,346.5,869.6,349,866.6,349z"/>
					<path class="st5" d="M1195.7,247H842.1c-7.2,0-13.2-5.9-13.2-13.2v-3.5c0-7.2,5.9-13.2,13.2-13.2h353.6
						c7.2,0,13.2,5.9,13.2,13.2v3.5C1208.9,241.1,1202.9,247,1195.7,247z"/>
				</g>
			</g>
			<path class="st2" d="M1263.4,37.4h-489c-3,0-5.5-2.5-5.5-5.5v-4.4c0-3,2.5-5.5,5.5-5.5h489c3,0,5.5,2.5,5.5,5.5v4.4
				C1268.9,34.9,1266.4,37.4,1263.4,37.4z"/>
		</g>
	</g>
</g>
<g>
	<defs>
		<rect id="SVGID_00000073702625439375806650000016754797589750971276_" x="-47" y="-548.4" width="500" height="380"/>
	</defs>
	<clipPath id="SVGID_00000065777155693274340800000000839896779844174012_">
		<use xlink:href="#SVGID_00000073702625439375806650000016754797589750971276_"  style="overflow:visible;"/>
	</clipPath>
	<g style="clip-path:url(#SVGID_00000065777155693274340800000000839896779844174012_);">
		<g>
			<g>
				<rect x="-12" y="-490.8" class="st7" width="429.8" height="335.9"/>
				<path class="st2" d="M-6.5-151.3L-6.5-151.3c-3,0-5.5-2.5-5.5-5.5v-321.7c0-3,2.5-5.5,5.5-5.5h0c3,0,5.5,2.5,5.5,5.5l0,321.7
					C-1-153.7-3.4-151.3-6.5-151.3z"/>
				<path class="st2" d="M412.4-151.3L412.4-151.3c-3,0-5.5-2.5-5.5-5.5v-321.7c0-3,2.5-5.5,5.5-5.5l0,0c3,0,5.5,2.5,5.5,5.5v321.7
					C417.9-153.7,415.4-151.3,412.4-151.3z"/>
				<path class="st2" d="M272.8-151.3L272.8-151.3c-3,0-5.5-2.5-5.5-5.5v-321.7c0-3,2.5-5.5,5.5-5.5l0,0c3,0,5.5,2.5,5.5,5.5v321.7
					C278.3-153.7,275.8-151.3,272.8-151.3z"/>
				<path class="st2" d="M133.1-151.3L133.1-151.3c-3,0-5.5-2.5-5.5-5.5v-321.7c0-3,2.5-5.5,5.5-5.5h0c3,0,5.5,2.5,5.5,5.5v321.7
					C138.6-153.7,136.2-151.3,133.1-151.3z"/>
			</g>
			<path class="st3" d="M442.9-483.1H-37V-510c0-21.2,17.2-38.4,38.4-38.4h403.1c21.2,0,38.4,17.2,38.4,38.4V-483.1z"/>
			<g>
				<path class="st4" d="M355.8-152.1L355.8-152.1c-3.3,0-6-2.7-6-6v-106.1c0-3.3,2.7-6,6-6l0,0c3.3,0,6,2.7,6,6v106.1
					C361.8-154.8,359.1-152.1,355.8-152.1z"/>
				<path class="st4" d="M50.1-152.1L50.1-152.1c-3.3,0-6-2.7-6-6v-106.1c0-3.3,2.7-6,6-6h0c3.3,0,6,2.7,6,6v106.1
					C56.2-154.8,53.5-152.1,50.1-152.1z"/>
				<path class="st5" d="M378.4-253.8h-351c-8,0-14.5-6.5-14.5-14.5v-0.8c0-8,6.5-14.5,14.5-14.5h351c8,0,14.5,6.5,14.5,14.5v0.8
					C393-260.3,386.4-253.8,378.4-253.8z"/>
			</g>
		</g>
		<path class="st2" d="M446.9-475.5H-41c-3.3,0-6-2.7-6-6v-3.2c0-3.3,2.7-6,6-6h487.9c3.3,0,6,2.7,6,6v3.2
			C453-478.2,450.2-475.5,446.9-475.5z"/>
	</g>
	<g style="clip-path:url(#SVGID_00000065777155693274340800000000839896779844174012_);">
		<path class="st8" d="M122.5-515.5v13.2h-3.8v-34.5h13c7,0,10.8,4.1,10.8,10.7s-3.8,10.7-10.8,10.7H122.5z M131.2-518.9
			c4.9,0,7.4-2.8,7.4-7.3c0-4.6-2.5-7.3-7.4-7.3h-8.8v14.6H131.2z"/>
		<path class="st8" d="M167.4-502.3c-0.3-0.8-0.4-1.8-0.5-3.1c-0.5-7.5-0.4-10.5-7.5-10.5H151v13.6h-3.8v-34.5h13.1
			c7.2,0,10.8,3.8,10.8,10.3c0,4.6-2,7.8-6.3,8.9c3.6,0.7,5.2,2.8,5.6,7.3c0.2,2.9,0.4,6.2,0.9,8H167.4z M159.8-519.3
			c4.8,0,7.4-2.3,7.4-7.1c0-4.8-2.6-7.1-7.4-7.1H151v14.2H159.8z"/>
		<path class="st8" d="M188.7-501.7c-10.2,0-13.1-7.9-13.1-17.8c0-9.8,2.9-17.8,13.1-17.8c10.3,0,13.2,8,13.2,17.8
			C201.9-509.6,199-501.7,188.7-501.7z M188.7-534.1c-7.2,0-9.3,5.6-9.3,14.5c0,8.9,2.1,14.5,9.3,14.5c7.3,0,9.4-5.6,9.4-14.5
			C198.1-528.4,196-534.1,188.7-534.1z"/>
		<path class="st8" d="M207.7-536.8h19.7v3.3h-15.9v12.3h14.3v3.3h-14.3v15.5h-3.8V-536.8z"/>
		<path class="st8" d="M236.1-502.3h-3.8v-34.5h3.8V-502.3z"/>
		<path class="st8" d="M242.9-536.8h3.8v31.2H263v3.3h-20.2V-536.8z"/>
		<path class="st8" d="M267.1-536.8H287v3.3h-16.1v11.8h14.3v3.4h-14.3v12.7h16.3v3.3h-20.2V-536.8z"/>
	</g>
</g>
<g>
	<defs>
		<rect id="SVGID_00000127739408928354833900000003421521212551808427_" width="500" height="380"/>
	</defs>
	<clipPath id="SVGID_00000009556514290472697720000011720187658836607892_">
		<use xlink:href="#SVGID_00000127739408928354833900000003421521212551808427_"  style="overflow:visible;"/>
	</clipPath>
	<g style="clip-path:url(#SVGID_00000009556514290472697720000011720187658836607892_);">
		<g>
			<g>
				<rect x="35.1" y="57.6" class="st7" width="429.8" height="335.9"/>
				<path class="st2" d="M40.6,397.1L40.6,397.1c-3,0-5.5-2.5-5.5-5.5V69.9c0-3,2.5-5.5,5.5-5.5h0c3,0,5.5,2.5,5.5,5.5v321.7
					C46.1,394.6,43.6,397.1,40.6,397.1z"/>
				<path class="st2" d="M459.4,397.1L459.4,397.1c-3,0-5.5-2.5-5.5-5.5V69.9c0-3,2.5-5.5,5.5-5.5l0,0c3,0,5.5,2.5,5.5,5.5v321.7
					C464.9,394.6,462.4,397.1,459.4,397.1z"/>
				<path class="st2" d="M319.8,397.1L319.8,397.1c-3,0-5.5-2.5-5.5-5.5V69.9c0-3,2.5-5.5,5.5-5.5h0c3,0,5.5,2.5,5.5,5.5v321.7
					C325.3,394.6,322.8,397.1,319.8,397.1z"/>
				<path class="st2" d="M180.2,397.1L180.2,397.1c-3,0-5.5-2.5-5.5-5.5V69.9c0-3,2.5-5.5,5.5-5.5h0c3,0,5.5,2.5,5.5,5.5v321.7
					C185.7,394.6,183.2,397.1,180.2,397.1z"/>
			</g>
			<path class="st3" d="M489.9,65.2H10.1V38.4C10.1,17.2,27.3,0,48.4,0h403.1c21.2,0,38.4,17.2,38.4,38.4V65.2z"/>
			<g>
				<path class="st4" d="M402.8,396.3L402.8,396.3c-3.3,0-6-2.7-6-6V284.2c0-3.3,2.7-6,6-6l0,0c3.3,0,6,2.7,6,6v106.1
					C408.9,393.6,406.1,396.3,402.8,396.3z"/>
				<path class="st4" d="M97.2,396.3L97.2,396.3c-3.3,0-6-2.7-6-6V284.2c0-3.3,2.7-6,6-6h0c3.3,0,6,2.7,6,6v106.1
					C103.2,393.6,100.5,396.3,97.2,396.3z"/>
				<path class="st5" d="M425.5,294.6h-351c-8,0-14.5-6.5-14.5-14.5v-0.8c0-8,6.5-14.5,14.5-14.5h351c8,0,14.5,6.5,14.5,14.5v0.8
					C440,288,433.5,294.6,425.5,294.6z"/>
			</g>
		</g>
		<path class="st2" d="M494,72.9H6c-3.3,0-6-2.7-6-6l0-3.2c0-3.3,2.7-6,6-6H494c3.3,0,6,2.7,6,6v3.2C500,70.2,497.3,72.9,494,72.9z"
			/>
	</g>
	<g style="clip-path:url(#SVGID_00000009556514290472697720000011720187658836607892_);">
		<path class="st8" d="M230.8,46.1l-8.1-28.2l-8.1,28.2H210l-9.5-34.5h4l8,29.2l8.4-29.2h3.8l8.4,29.2l8-29.2h4l-9.6,34.5H230.8z"/>
		<path class="st8" d="M249.1,11.5H269v3.3h-16.1v11.8h14.3v3.4h-14.3v12.7h16.3v3.3h-20.2V11.5z"/>
		<path class="st8" d="M274.6,46.1V11.5h12.6c6.8,0,10.2,3.2,10.2,9c0,4.2-2.2,6.9-5.5,7.7c4.2,0.7,6.5,3.9,6.5,8.4
			c0,6.3-3.6,9.5-10.7,9.5H274.6z M286.3,26.6c4.9,0,7.3-1.8,7.3-5.9c0-4.1-2.4-5.9-7.3-5.9h-7.9v11.8H286.3z M286.9,30h-8.5v12.8
			h8.5c5.5,0,7.7-2.2,7.7-6.4C294.6,32.1,292.4,30,286.9,30z"/>
	</g>
</g>
<g>
	<defs>
		<rect id="SVGID_00000044868140283652916280000009694997967364296073_" x="-2021.8" y="-10.1" width="500" height="380"/>
	</defs>
	<clipPath id="SVGID_00000021828779227529562310000010257656405294654865_">
		<use xlink:href="#SVGID_00000044868140283652916280000009694997967364296073_"  style="overflow:visible;"/>
	</clipPath>
	<g style="clip-path:url(#SVGID_00000021828779227529562310000010257656405294654865_);">
		<g>
			<g>
				<rect x="-1986.4" y="47.5" class="st7" width="429.8" height="335.9"/>
				<path class="st2" d="M-1980.9,387L-1980.9,387c-3,0-5.5-2.5-5.5-5.5V59.8c0-3,2.5-5.5,5.5-5.5l0,0c3,0,5.5,2.5,5.5,5.5v321.7
					C-1975.4,384.5-1977.9,387-1980.9,387z"/>
				<path class="st2" d="M-1562.1,387L-1562.1,387c-3,0-5.5-2.5-5.5-5.5V59.8c0-3,2.5-5.5,5.5-5.5h0c3,0,5.5,2.5,5.5,5.5v321.7
					C-1556.6,384.5-1559,387-1562.1,387z"/>
				<path class="st2" d="M-1701.7,387L-1701.7,387c-3,0-5.5-2.5-5.5-5.5V59.8c0-3,2.5-5.5,5.5-5.5l0,0c3,0,5.5,2.5,5.5,5.5v321.7
					C-1696.2,384.5-1698.6,387-1701.7,387z"/>
				<path class="st2" d="M-1841.3,387L-1841.3,387c-3,0-5.5-2.5-5.5-5.5V59.8c0-3,2.5-5.5,5.5-5.5l0,0c3,0,5.5,2.5,5.5,5.5v321.7
					C-1835.8,384.5-1838.3,387-1841.3,387z"/>
			</g>
			<path class="st3" d="M-1531.6,55.1h-479.8V28.3c0-21.2,17.2-38.4,38.4-38.4h403.1c21.2,0,38.4,17.2,38.4,38.4V55.1z"/>
			<g>
				<path class="st4" d="M-1618.7,386.2L-1618.7,386.2c-3.3,0-6-2.7-6-6V274.1c0-3.3,2.7-6,6-6h0c3.3,0,6,2.7,6,6v106.1
					C-1612.6,383.5-1615.3,386.2-1618.7,386.2z"/>
				<path class="st4" d="M-1924.3,386.2L-1924.3,386.2c-3.3,0-6-2.7-6-6V274.1c0-3.3,2.7-6,6-6l0,0c3.3,0,6,2.7,6,6v106.1
					C-1918.2,383.5-1921,386.2-1924.3,386.2z"/>
				<path class="st5" d="M-1596,284.5h-351c-8,0-14.5-6.5-14.5-14.5v-0.8c0-8,6.5-14.5,14.5-14.5h351c8,0,14.5,6.5,14.5,14.5v0.8
					C-1581.5,277.9-1588,284.5-1596,284.5z"/>
			</g>
		</g>
		<path class="st2" d="M-1527.5,62.8h-487.9c-3.3,0-6-2.7-6-6v-3.2c0-3.3,2.7-6,6-6h487.9c3.3,0,6,2.7,6,6v3.2
			C-1521.5,60.1-1524.2,62.8-1527.5,62.8z"/>
	</g>
	<g style="clip-path:url(#SVGID_00000021828779227529562310000010257656405294654865_);">
		<path class="st8" d="M-1881.9,35.9c-0.3-0.8-0.4-1.8-0.5-3.1c-0.5-7.5-0.4-10.5-7.5-10.5h-8.3v13.6h-3.8V1.4h13.1
			c7.2,0,10.8,3.8,10.8,10.3c0,4.6-2,7.8-6.3,8.9c3.6,0.7,5.2,2.8,5.6,7.3c0.2,2.9,0.4,6.2,0.9,8H-1881.9z M-1889.5,19
			c4.8,0,7.4-2.3,7.4-7.1c0-4.8-2.6-7.1-7.4-7.1h-8.8V19H-1889.5z"/>
		<path class="st8" d="M-1872.5,1.4h19.9v3.3h-16.1v11.8h14.3V20h-14.3v12.7h16.3v3.3h-20.2V1.4z"/>
		<path class="st8" d="M-1836.3,36.5c-7.5,0-11.7-4.2-11.7-9.8v-0.9h3.8v1c0,3.7,2.9,6.5,7.9,6.5c4.9,0,7.8-2.7,7.8-6.5
			c0-3.2-2-5.5-6.5-6.5l-4.4-0.9c-5.4-1.1-8.5-4.1-8.5-9.2s3.8-9.3,11-9.3c7.2,0,11,4.2,11,9.3v0.7h-3.8v-0.7c0-3.6-2.6-6-7.2-6
			s-7.2,2.4-7.2,6c0,3.3,2,5.1,5.9,5.9l4.4,0.9c6,1.3,9.1,4.5,9.1,9.7C-1824.6,32.3-1828.8,36.5-1836.3,36.5z"/>
		<path class="st8" d="M-1815.4,22.7v13.2h-3.8V1.4h13c7,0,10.8,4.1,10.8,10.7s-3.8,10.7-10.8,10.7H-1815.4z M-1806.7,19.4
			c4.9,0,7.4-2.8,7.4-7.3c0-4.6-2.5-7.3-7.4-7.3h-8.8v14.6H-1806.7z"/>
		<path class="st8" d="M-1778.5,36.5c-10.2,0-13.1-7.9-13.1-17.8c0-9.8,2.9-17.8,13.1-17.8c10.3,0,13.2,8,13.2,17.8
			C-1765.4,28.7-1768.3,36.5-1778.5,36.5z M-1778.5,4.2c-7.2,0-9.3,5.6-9.3,14.5c0,8.9,2.1,14.5,9.3,14.5c7.3,0,9.4-5.6,9.4-14.5
			C-1769.1,9.8-1771.3,4.2-1778.5,4.2z"/>
		<path class="st8" d="M-1739.5,35.9l-16.2-27.6v27.6h-3.8V1.4h3.8l16.2,27.6V1.4h3.8v34.5H-1739.5z"/>
		<path class="st8" d="M-1718.1,36.5c-7.5,0-11.7-4.2-11.7-9.8v-0.9h3.8v1c0,3.7,2.9,6.5,7.9,6.5c4.9,0,7.8-2.7,7.8-6.5
			c0-3.2-2-5.5-6.5-6.5l-4.4-0.9c-5.4-1.1-8.5-4.1-8.5-9.2s3.8-9.3,11-9.3c7.2,0,11,4.2,11,9.3v0.7h-3.8v-0.7c0-3.6-2.6-6-7.2-6
			s-7.2,2.4-7.2,6c0,3.3,2,5.1,5.9,5.9l4.4,0.9c6,1.3,9.1,4.5,9.1,9.7C-1706.5,32.3-1710.7,36.5-1718.1,36.5z"/>
		<path class="st8" d="M-1697.3,35.9h-3.8V1.4h3.8V35.9z"/>
		<path class="st8" d="M-1681.4,35.9l-12.1-34.5h4l10.3,29.8l10.3-29.8h4l-12.1,34.5H-1681.4z"/>
		<path class="st8" d="M-1661,1.4h19.9v3.3h-16.1v11.8h14.3V20h-14.3v12.7h16.3v3.3h-20.2V1.4z"/>
	</g>
</g>
<g>
	<defs>
		<rect id="SVGID_00000022539685864606040270000012696906629078750092_" x="-2646" y="-10.1" width="500" height="380"/>
	</defs>
	<clipPath id="SVGID_00000072244623336596105450000017444861530962204602_">
		<use xlink:href="#SVGID_00000022539685864606040270000012696906629078750092_"  style="overflow:visible;"/>
	</clipPath>
	<g style="clip-path:url(#SVGID_00000072244623336596105450000017444861530962204602_);">
		<g>
			<g>
				<rect x="-2611" y="47.5" class="st7" width="429.8" height="335.9"/>
				<path class="st2" d="M-2605.5,387L-2605.5,387c-3,0-5.5-2.5-5.5-5.5V59.8c0-3,2.5-5.5,5.5-5.5l0,0c3,0,5.5,2.5,5.5,5.5v321.7
					C-2600,384.5-2602.4,387-2605.5,387z"/>
				<path class="st2" d="M-2186.6,387L-2186.6,387c-3,0-5.5-2.5-5.5-5.5V59.8c0-3,2.5-5.5,5.5-5.5l0,0c3,0,5.5,2.5,5.5,5.5v321.7
					C-2181.1,384.5-2183.6,387-2186.6,387z"/>
				<path class="st2" d="M-2326.2,387L-2326.2,387c-3,0-5.5-2.5-5.5-5.5V59.8c0-3,2.5-5.5,5.5-5.5l0,0c3,0,5.5,2.5,5.5,5.5v321.7
					C-2320.7,384.5-2323.2,387-2326.2,387z"/>
				<path class="st2" d="M-2465.8,387L-2465.8,387c-3,0-5.5-2.5-5.5-5.5V59.8c0-3,2.5-5.5,5.5-5.5l0,0c3,0,5.5,2.5,5.5,5.5v321.7
					C-2460.4,384.5-2462.8,387-2465.8,387z"/>
			</g>
			<path class="st3" d="M-2156.1,55.1H-2636V28.3c0-21.2,17.2-38.4,38.4-38.4h403.1c21.2,0,38.4,17.2,38.4,38.4V55.1z"/>
			<g>
				<path class="st4" d="M-2243.2,386.2L-2243.2,386.2c-3.3,0-6-2.7-6-6V274.1c0-3.3,2.7-6,6-6l0,0c3.3,0,6,2.7,6,6v106.1
					C-2237.2,383.5-2239.9,386.2-2243.2,386.2z"/>
				<path class="st4" d="M-2548.8,386.2L-2548.8,386.2c-3.3,0-6-2.7-6-6V274.1c0-3.3,2.7-6,6-6l0,0c3.3,0,6,2.7,6,6v106.1
					C-2542.8,383.5-2545.5,386.2-2548.8,386.2z"/>
				<path class="st5" d="M-2220.6,284.5h-351c-8,0-14.5-6.5-14.5-14.5v-0.8c0-8,6.5-14.5,14.5-14.5h351c8,0,14.5,6.5,14.5,14.5v0.8
					C-2206,277.9-2212.6,284.5-2220.6,284.5z"/>
			</g>
		</g>
		<path class="st2" d="M-2152.1,62.8H-2640c-3.3,0-6-2.7-6-6v-3.2c0-3.3,2.7-6,6-6h487.9c3.3,0,6,2.7,6,6v3.2
			C-2146,60.1-2148.8,62.8-2152.1,62.8z"/>
	</g>
	<g style="clip-path:url(#SVGID_00000072244623336596105450000017444861530962204602_);">
		<path class="st8" d="M-2460.8,0.8c7.8,0,12.3,4.8,12.8,11.9h-3.8c-0.4-5.3-3.4-8.6-9-8.6c-7.1,0-9.3,5.5-9.3,14.5
			c0,9.9,2.6,14.5,9.3,14.5c5.5,0,9.1-3.7,9.1-9.8v-1.8h-8.8v-3.3h12.6v17.7h-2.8l-0.7-4.6c-1.3,3-4.7,5.2-9.5,5.2
			c-10.3,0-12.9-8.3-12.9-17.8C-2473.9,8.8-2471,0.8-2460.8,0.8z"/>
		<path class="st8" d="M-2421.3,35.9c-0.3-0.8-0.4-1.8-0.5-3.1c-0.5-7.5-0.4-10.5-7.5-10.5h-8.3v13.6h-3.8V1.4h13.1
			c7.2,0,10.8,3.8,10.8,10.3c0,4.6-2,7.8-6.3,8.9c3.6,0.7,5.2,2.8,5.6,7.3c0.2,2.9,0.4,6.2,0.9,8H-2421.3z M-2428.9,19
			c4.8,0,7.4-2.3,7.4-7.1c0-4.8-2.6-7.1-7.4-7.1h-8.8V19H-2428.9z"/>
		<path class="st8" d="M-2398.3,1.4l12.1,34.5h-4l-2.8-8.2h-15.1l-2.8,8.2h-4l12.1-34.5H-2398.3z M-2400.5,5.4l-6.4,19h12.8
			L-2400.5,5.4z"/>
		<path class="st8" d="M-2378.5,22.7v13.2h-3.8V1.4h13c7,0,10.8,4.1,10.8,10.7s-3.8,10.7-10.8,10.7H-2378.5z M-2369.7,19.4
			c4.9,0,7.4-2.8,7.4-7.3c0-4.6-2.5-7.3-7.4-7.3h-8.8v14.6H-2369.7z"/>
		<path class="st8" d="M-2349.8,35.9h-3.8V1.4h3.8V35.9z"/>
		<path class="st8" d="M-2344.1,18.7c0-9.9,3-17.8,13.1-17.8c7.8,0,12.3,4.8,12.8,11.9h-3.8c-0.4-5.3-3.4-8.6-9-8.6
			c-7.3,0-9.3,5.6-9.3,14.5c0,9.2,2.3,14.5,9.3,14.5c5.5,0,8.6-3.3,9-8.5h3.8c-0.4,7.2-4.9,11.9-12.8,11.9
			C-2341.2,36.5-2344.1,28.6-2344.1,18.7z"/>
	</g>
</g>
<rect x="-1362" y="-131.6" class="st8" width="428.7" height="57.6"/>
</svg>
