<?xml version="1.0" encoding="utf-8"?>
<!-- Generator: Adobe Illustrator 26.3.1, SVG Export Plug-In . SVG Version: 6.00 Build 0)  -->
<svg version="1.1" id="Layer_1" xmlns="http://www.w3.org/2000/svg" xmlns:xlink="http://www.w3.org/1999/xlink" x="0px" y="0px"
	 viewBox="0 0 500 380" style="enable-background:new 0 0 500 380;" xml:space="preserve">
<style type="text/css">
	.st0{clip-path:url(#SVGID_00000002346398617512564840000006514056433189136810_);}
	.st1{opacity:0.5;fill:#C0EAFF;enable-background:new    ;}
	.st2{fill:#2E383D;}
	.st3{fill:#066D5E;}
	.st4{fill:#202C33;}
	.st5{fill:#F4D7A8;}
	.st6{clip-path:url(#SVGID_00000084508797360108530530000007117834872918528940_);}
	.st7{opacity:0.5;fill:#C0EAFF;}
	.st8{fill:#FFFFFF;}
	.st9{clip-path:url(#SVGID_00000055699651817203128250000014656902631860805263_);}
	.st10{clip-path:url(#SVGID_00000107571397510333892430000014630128973655753367_);}
	.st11{clip-path:url(#SVGID_00000155830605265559008120000007653358772701089451_);}
</style>
<g>
	<g>
		<defs>
			<rect id="SVGID_1_" x="768.9" y="-35.7" width="500" height="380"/>
		</defs>
		<clipPath id="SVGID_00000170994524957026873650000003463106060837477023_">
			<use xlink:href="#SVGID_1_"  style="overflow:visible;"/>
		</clipPath>
		<g style="clip-path:url(#SVGID_00000170994524957026873650000003463106060837477023_);">
			<g>
				<g>
					<rect x="804" y="22" class="st1" width="429.8" height="336.6"/>
					<path class="st2" d="M810,362.3h-1c-2.7,0-5-2.2-5-5V33.9c0-2.7,2.2-5,5-5h1c2.7,0,5,2.2,5,5v323.4
						C815,360.1,812.7,362.3,810,362.3z"/>
					<path class="st2" d="M1228.8,362.3h-1c-2.7,0-5-2.2-5-5V33.9c0-2.7,2.2-5,5-5h1c2.7,0,5,2.2,5,5v323.4
						C1233.8,360.1,1231.5,362.3,1228.8,362.3z"/>
					<path class="st2" d="M1089.2,362.3h-1c-2.7,0-5-2.2-5-5V33.9c0-2.7,2.2-5,5-5h1c2.7,0,5,2.2,5,5v323.4
						C1094.2,360.1,1091.9,362.3,1089.2,362.3z"/>
					<path class="st2" d="M949.6,362.3h-1c-2.7,0-5-2.2-5-5V33.9c0-2.7,2.2-5,5-5h1c2.7,0,5,2.2,5,5v323.4
						C954.6,360.1,952.3,362.3,949.6,362.3z"/>
				</g>
				<path class="st3" d="M1258.8,29.7H779V-0.8c0-19.2,15.6-34.8,34.9-34.8h410.1c19.2,0,34.8,15.6,34.8,34.8V29.7z"/>
				<g>
					<path class="st4" d="M1172.2,349h-1.1c-3,0-5.5-2.5-5.5-5.5V236c0-3,2.5-5.5,5.5-5.5h1.1c3,0,5.5,2.5,5.5,5.5v107.5
						C1177.7,346.5,1175.3,349,1172.2,349z"/>
					<path class="st4" d="M866.6,349h-1.1c-3,0-5.5-2.5-5.5-5.5V236c0-3,2.5-5.5,5.5-5.5h1.1c3,0,5.5,2.5,5.5,5.5v107.5
						C872.1,346.5,869.6,349,866.6,349z"/>
					<path class="st5" d="M1195.7,247H842.1c-7.2,0-13.2-5.9-13.2-13.2v-3.5c0-7.2,5.9-13.2,13.2-13.2h353.6
						c7.2,0,13.2,5.9,13.2,13.2v3.5C1208.9,241.1,1202.9,247,1195.7,247z"/>
				</g>
			</g>
			<path class="st2" d="M1263.4,37.4h-489c-3,0-5.5-2.5-5.5-5.5v-4.4c0-3,2.5-5.5,5.5-5.5h489c3,0,5.5,2.5,5.5,5.5v4.4
				C1268.9,34.9,1266.4,37.4,1263.4,37.4z"/>
		</g>
	</g>
</g>
<g>
	<defs>
		<rect id="SVGID_00000023984463985914519790000011413823109946976941_" x="-47" y="-548.4" width="500" height="380"/>
	</defs>
	<clipPath id="SVGID_00000000213951041094395900000007356765887657916568_">
		<use xlink:href="#SVGID_00000023984463985914519790000011413823109946976941_"  style="overflow:visible;"/>
	</clipPath>
	<g style="clip-path:url(#SVGID_00000000213951041094395900000007356765887657916568_);">
		<g>
			<g>
				<rect x="-12" y="-490.8" class="st7" width="429.8" height="335.9"/>
				<path class="st2" d="M-6.5-151.3L-6.5-151.3c-3,0-5.5-2.5-5.5-5.5v-321.7c0-3,2.5-5.5,5.5-5.5h0c3,0,5.5,2.5,5.5,5.5l0,321.7
					C-1-153.7-3.4-151.3-6.5-151.3z"/>
				<path class="st2" d="M412.4-151.3L412.4-151.3c-3,0-5.5-2.5-5.5-5.5v-321.7c0-3,2.5-5.5,5.5-5.5l0,0c3,0,5.5,2.5,5.5,5.5v321.7
					C417.9-153.7,415.4-151.3,412.4-151.3z"/>
				<path class="st2" d="M272.8-151.3L272.8-151.3c-3,0-5.5-2.5-5.5-5.5v-321.7c0-3,2.5-5.5,5.5-5.5l0,0c3,0,5.5,2.5,5.5,5.5v321.7
					C278.3-153.7,275.8-151.3,272.8-151.3z"/>
				<path class="st2" d="M133.1-151.3L133.1-151.3c-3,0-5.5-2.5-5.5-5.5v-321.7c0-3,2.5-5.5,5.5-5.5h0c3,0,5.5,2.5,5.5,5.5v321.7
					C138.6-153.7,136.2-151.3,133.1-151.3z"/>
			</g>
			<path class="st3" d="M442.9-483.1H-37V-510c0-21.2,17.2-38.4,38.4-38.4h403.1c21.2,0,38.4,17.2,38.4,38.4V-483.1z"/>
			<g>
				<path class="st4" d="M355.8-152.1L355.8-152.1c-3.3,0-6-2.7-6-6v-106.1c0-3.3,2.7-6,6-6l0,0c3.3,0,6,2.7,6,6v106.1
					C361.8-154.8,359.1-152.1,355.8-152.1z"/>
				<path class="st4" d="M50.1-152.1L50.1-152.1c-3.3,0-6-2.7-6-6v-106.1c0-3.3,2.7-6,6-6h0c3.3,0,6,2.7,6,6v106.1
					C56.2-154.8,53.5-152.1,50.1-152.1z"/>
				<path class="st5" d="M378.4-253.8h-351c-8,0-14.5-6.5-14.5-14.5v-0.8c0-8,6.5-14.5,14.5-14.5h351c8,0,14.5,6.5,14.5,14.5v0.8
					C393-260.3,386.4-253.8,378.4-253.8z"/>
			</g>
		</g>
		<path class="st2" d="M446.9-475.5H-41c-3.3,0-6-2.7-6-6v-3.2c0-3.3,2.7-6,6-6h487.9c3.3,0,6,2.7,6,6v3.2
			C453-478.2,450.2-475.5,446.9-475.5z"/>
	</g>
	<g style="clip-path:url(#SVGID_00000000213951041094395900000007356765887657916568_);">
		<path class="st8" d="M122.5-515.5v13.2h-3.8v-34.5h13c7,0,10.8,4.1,10.8,10.7s-3.8,10.7-10.8,10.7H122.5z M131.2-518.9
			c4.9,0,7.4-2.8,7.4-7.3c0-4.6-2.5-7.3-7.4-7.3h-8.8v14.6H131.2z"/>
		<path class="st8" d="M167.4-502.3c-0.3-0.8-0.4-1.8-0.5-3.1c-0.5-7.5-0.4-10.5-7.5-10.5H151v13.6h-3.8v-34.5h13.1
			c7.2,0,10.8,3.8,10.8,10.3c0,4.6-2,7.8-6.3,8.9c3.6,0.7,5.2,2.8,5.6,7.3c0.2,2.9,0.4,6.2,0.9,8H167.4z M159.8-519.3
			c4.8,0,7.4-2.3,7.4-7.1c0-4.8-2.6-7.1-7.4-7.1H151v14.2H159.8z"/>
		<path class="st8" d="M188.7-501.7c-10.2,0-13.1-7.9-13.1-17.8c0-9.8,2.9-17.8,13.1-17.8c10.3,0,13.2,8,13.2,17.8
			C201.9-509.6,199-501.7,188.7-501.7z M188.7-534.1c-7.2,0-9.3,5.6-9.3,14.5c0,8.9,2.1,14.5,9.3,14.5c7.3,0,9.4-5.6,9.4-14.5
			C198.1-528.4,196-534.1,188.7-534.1z"/>
		<path class="st8" d="M207.7-536.8h19.7v3.3h-15.9v12.3h14.3v3.3h-14.3v15.5h-3.8V-536.8z"/>
		<path class="st8" d="M236.1-502.3h-3.8v-34.5h3.8V-502.3z"/>
		<path class="st8" d="M242.9-536.8h3.8v31.2H263v3.3h-20.2V-536.8z"/>
		<path class="st8" d="M267.1-536.8H287v3.3h-16.1v11.8h14.3v3.4h-14.3v12.7h16.3v3.3h-20.2V-536.8z"/>
	</g>
</g>
<g>
	<defs>
		<rect id="SVGID_00000129185935965965759890000002017600455605977497_" x="-903.5" y="-738.4" width="500" height="380"/>
	</defs>
	<clipPath id="SVGID_00000169555561056133511570000010953572146902891926_">
		<use xlink:href="#SVGID_00000129185935965965759890000002017600455605977497_"  style="overflow:visible;"/>
	</clipPath>
	<g style="clip-path:url(#SVGID_00000169555561056133511570000010953572146902891926_);">
		<g>
			<g>
				<rect x="-868.4" y="-680.8" class="st7" width="429.8" height="335.9"/>
				<path class="st2" d="M-862.9-341.3L-862.9-341.3c-3,0-5.5-2.5-5.5-5.5v-321.7c0-3,2.5-5.5,5.5-5.5l0,0c3,0,5.5,2.5,5.5,5.5
					v321.7C-857.4-343.7-859.9-341.3-862.9-341.3z"/>
				<path class="st2" d="M-444.1-341.3L-444.1-341.3c-3,0-5.5-2.5-5.5-5.5v-321.7c0-3,2.5-5.5,5.5-5.5h0c3,0,5.5,2.5,5.5,5.5v321.7
					C-438.6-343.7-441-341.3-444.1-341.3z"/>
				<path class="st2" d="M-583.7-341.3L-583.7-341.3c-3,0-5.5-2.5-5.5-5.5v-321.7c0-3,2.5-5.5,5.5-5.5l0,0c3,0,5.5,2.5,5.5,5.5
					v321.7C-578.2-343.7-580.6-341.3-583.7-341.3z"/>
				<path class="st2" d="M-723.3-341.3L-723.3-341.3c-3,0-5.5-2.5-5.5-5.5v-321.7c0-3,2.5-5.5,5.5-5.5h0c3,0,5.5,2.5,5.5,5.5v321.7
					C-717.8-343.7-720.3-341.3-723.3-341.3z"/>
			</g>
			<path class="st3" d="M-413.6-673.1h-479.8V-700c0-21.2,17.2-38.4,38.4-38.4h403.1c21.2,0,38.4,17.2,38.4,38.4V-673.1z"/>
			<g>
				<path class="st4" d="M-500.7-342.1L-500.7-342.1c-3.3,0-6-2.7-6-6v-106.1c0-3.3,2.7-6,6-6h0c3.3,0,6,2.7,6,6v106.1
					C-494.6-344.8-497.3-342.1-500.7-342.1z"/>
				<path class="st4" d="M-806.3-342.1L-806.3-342.1c-3.3,0-6-2.7-6-6v-106.1c0-3.3,2.7-6,6-6l0,0c3.3,0,6,2.7,6,6v106.1
					C-800.2-344.8-803-342.1-806.3-342.1z"/>
				<path class="st5" d="M-478-443.8h-351c-8,0-14.5-6.5-14.5-14.5v-0.8c0-8,6.5-14.5,14.5-14.5h351c8,0,14.5,6.5,14.5,14.5v0.8
					C-463.5-450.3-470-443.8-478-443.8z"/>
			</g>
		</g>
		<path class="st2" d="M-409.5-665.5h-487.9c-3.3,0-6-2.7-6-6v-3.2c0-3.3,2.7-6,6-6h487.9c3.3,0,6,2.7,6,6v3.2
			C-403.5-668.2-406.2-665.5-409.5-665.5z"/>
	</g>
	<g style="clip-path:url(#SVGID_00000169555561056133511570000010953572146902891926_);">
		<path class="st8" d="M-672.7-692.3l-8.1-28.2l-8.1,28.2h-4.6l-9.5-34.5h4l8,29.2l8.4-29.2h3.8l8.4,29.2l8-29.2h4l-9.6,34.5H-672.7
			z"/>
		<path class="st8" d="M-654.4-726.8h19.9v3.3h-16.1v11.8h14.3v3.4h-14.3v12.7h16.3v3.3h-20.2V-726.8z"/>
		<path class="st8" d="M-628.9-692.3v-34.5h12.6c6.8,0,10.2,3.2,10.2,9c0,4.2-2.2,6.9-5.5,7.7c4.2,0.7,6.5,3.9,6.5,8.4
			c0,6.3-3.6,9.5-10.7,9.5H-628.9z M-617.1-711.7c4.9,0,7.3-1.8,7.3-5.9c0-4.1-2.4-5.9-7.3-5.9h-7.9v11.8H-617.1z M-616.6-708.4
			h-8.5v12.8h8.5c5.5,0,7.7-2.2,7.7-6.4C-608.9-706.3-611.1-708.4-616.6-708.4z"/>
	</g>
</g>
<g>
	<defs>
		<rect id="SVGID_00000108307853821365095210000004528982625000643246_" x="584.4" y="-671.4" width="500" height="380"/>
	</defs>
	<clipPath id="SVGID_00000137824285757421622170000014959517512791472298_">
		<use xlink:href="#SVGID_00000108307853821365095210000004528982625000643246_"  style="overflow:visible;"/>
	</clipPath>
	<g style="clip-path:url(#SVGID_00000137824285757421622170000014959517512791472298_);">
		<g>
			<g>
				<rect x="619.9" y="-613.8" class="st7" width="429.8" height="335.9"/>
				<path class="st2" d="M625.4-274.3L625.4-274.3c-3,0-5.5-2.5-5.5-5.5v-321.7c0-3,2.5-5.5,5.5-5.5l0,0c3,0,5.5,2.5,5.5,5.5v321.7
					C630.9-276.7,628.4-274.3,625.4-274.3z"/>
				<path class="st2" d="M1044.2-274.3L1044.2-274.3c-3,0-5.5-2.5-5.5-5.5v-321.7c0-3,2.5-5.5,5.5-5.5l0,0c3,0,5.5,2.5,5.5,5.5
					v321.7C1049.7-276.7,1047.2-274.3,1044.2-274.3z"/>
				<path class="st2" d="M904.6-274.3L904.6-274.3c-3,0-5.5-2.5-5.5-5.5v-321.7c0-3,2.5-5.5,5.5-5.5h0c3,0,5.5,2.5,5.5,5.5v321.7
					C910.1-276.7,907.6-274.3,904.6-274.3z"/>
				<path class="st2" d="M765-274.3L765-274.3c-3,0-5.5-2.5-5.5-5.5v-321.7c0-3,2.5-5.5,5.5-5.5l0,0c3,0,5.5,2.5,5.5,5.5v321.7
					C770.5-276.7,768-274.3,765-274.3z"/>
			</g>
			<path class="st3" d="M1074.7-606.1H594.9V-633c0-21.2,17.2-38.4,38.4-38.4h403.1c21.2,0,38.4,17.2,38.4,38.4V-606.1z"/>
			<g>
				<path class="st4" d="M987.6-275L987.6-275c-3.3,0-6-2.7-6-6v-106.1c0-3.3,2.7-6,6-6l0,0c3.3,0,6,2.7,6,6v106.1
					C993.6-277.8,990.9-275,987.6-275z"/>
				<path class="st4" d="M682-275L682-275c-3.3,0-6-2.7-6-6v-106.1c0-3.3,2.7-6,6-6l0,0c3.3,0,6,2.7,6,6v106.1
					C688-277.8,685.3-275,682-275z"/>
				<path class="st5" d="M1010.3-376.8h-351c-8,0-14.5-6.5-14.5-14.5v-0.8c0-8,6.5-14.5,14.5-14.5h351c8,0,14.5,6.5,14.5,14.5v0.8
					C1024.8-383.3,1018.3-376.8,1010.3-376.8z"/>
			</g>
		</g>
		<path class="st2" d="M1078.7-598.5H590.8c-3.3,0-6-2.7-6-6v-3.2c0-3.3,2.7-6,6-6h487.9c3.3,0,6,2.7,6,6v3.2
			C1084.8-601.2,1082.1-598.5,1078.7-598.5z"/>
	</g>
	<g style="clip-path:url(#SVGID_00000137824285757421622170000014959517512791472298_);">
		<path class="st8" d="M724.3-625.3c-0.3-0.8-0.4-1.8-0.5-3.1c-0.5-7.5-0.4-10.5-7.5-10.5H708v13.6h-3.8v-34.5h13.1
			c7.2,0,10.8,3.8,10.8,10.3c0,4.6-2,7.8-6.3,8.9c3.6,0.7,5.2,2.8,5.6,7.3c0.2,2.9,0.4,6.2,0.9,8H724.3z M716.7-642.3
			c4.8,0,7.4-2.3,7.4-7.1c0-4.8-2.6-7.1-7.4-7.1H708v14.2H716.7z"/>
		<path class="st8" d="M733.8-659.8h19.9v3.3h-16.1v11.8H752v3.4h-14.3v12.7H754v3.3h-20.2V-659.8z"/>
		<path class="st8" d="M770-624.7c-7.5,0-11.7-4.2-11.7-9.8v-0.9h3.8v1c0,3.7,2.9,6.5,7.9,6.5c4.9,0,7.8-2.7,7.8-6.5
			c0-3.2-2-5.5-6.5-6.5l-4.4-0.9c-5.4-1.1-8.5-4.1-8.5-9.2s3.8-9.3,11-9.3c7.2,0,11,4.2,11,9.3v0.7h-3.8v-0.7c0-3.6-2.6-6-7.2-6
			s-7.2,2.4-7.2,6c0,3.3,2,5.1,5.9,5.9l4.4,0.9c6,1.3,9.1,4.5,9.1,9.7C781.6-629,777.5-624.7,770-624.7z"/>
		<path class="st8" d="M790.8-638.5v13.2H787v-34.5h13c7,0,10.8,4.1,10.8,10.7s-3.8,10.7-10.8,10.7H790.8z M799.6-641.9
			c4.9,0,7.4-2.8,7.4-7.3c0-4.6-2.5-7.3-7.4-7.3h-8.8v14.6H799.6z"/>
		<path class="st8" d="M827.7-624.7c-10.2,0-13.1-7.9-13.1-17.8c0-9.8,2.9-17.8,13.1-17.8c10.3,0,13.2,8,13.2,17.8
			C840.9-632.6,838-624.7,827.7-624.7z M827.7-657.1c-7.2,0-9.3,5.6-9.3,14.5c0,8.9,2.1,14.5,9.3,14.5c7.3,0,9.4-5.6,9.4-14.5
			C837.1-651.4,835-657.1,827.7-657.1z"/>
		<path class="st8" d="M866.8-625.3l-16.2-27.6v27.6h-3.8v-34.5h3.8l16.2,27.6v-27.6h3.8v34.5H866.8z"/>
		<path class="st8" d="M888.1-624.7c-7.5,0-11.7-4.2-11.7-9.8v-0.9h3.8v1c0,3.7,2.9,6.5,7.9,6.5c4.9,0,7.8-2.7,7.8-6.5
			c0-3.2-2-5.5-6.5-6.5l-4.4-0.9c-5.4-1.1-8.5-4.1-8.5-9.2s3.8-9.3,11-9.3c7.2,0,11,4.2,11,9.3v0.7h-3.8v-0.7c0-3.6-2.6-6-7.2-6
			s-7.2,2.4-7.2,6c0,3.3,2,5.1,5.9,5.9l4.4,0.9c6,1.3,9.1,4.5,9.1,9.7C899.7-629,895.6-624.7,888.1-624.7z"/>
		<path class="st8" d="M908.9-625.3h-3.8v-34.5h3.8V-625.3z"/>
		<path class="st8" d="M924.9-625.3l-12.1-34.5h4l10.3,29.8l10.3-29.8h4l-12.1,34.5H924.9z"/>
		<path class="st8" d="M945.3-659.8h19.9v3.3h-16.1v11.8h14.3v3.4h-14.3v12.7h16.3v3.3h-20.2V-659.8z"/>
	</g>
</g>
<g>
	<defs>
		<rect id="SVGID_00000011727796365223870660000000012911501196990647_" width="500" height="380"/>
	</defs>
	<clipPath id="SVGID_00000171001022510603413920000009716908805775518866_">
		<use xlink:href="#SVGID_00000011727796365223870660000000012911501196990647_"  style="overflow:visible;"/>
	</clipPath>
	<g style="clip-path:url(#SVGID_00000171001022510603413920000009716908805775518866_);">
		<g>
			<g>
				<rect x="35.1" y="57.6" class="st7" width="429.8" height="335.9"/>
				<path class="st2" d="M40.6,397.1L40.6,397.1c-3,0-5.5-2.5-5.5-5.5V69.9c0-3,2.5-5.5,5.5-5.5h0c3,0,5.5,2.5,5.5,5.5v321.7
					C46.1,394.6,43.6,397.1,40.6,397.1z"/>
				<path class="st2" d="M459.4,397.1L459.4,397.1c-3,0-5.5-2.5-5.5-5.5V69.9c0-3,2.5-5.5,5.5-5.5l0,0c3,0,5.5,2.5,5.5,5.5v321.7
					C464.9,394.6,462.4,397.1,459.4,397.1z"/>
				<path class="st2" d="M319.8,397.1L319.8,397.1c-3,0-5.5-2.5-5.5-5.5V69.9c0-3,2.5-5.5,5.5-5.5h0c3,0,5.5,2.5,5.5,5.5v321.7
					C325.3,394.6,322.8,397.1,319.8,397.1z"/>
				<path class="st2" d="M180.2,397.1L180.2,397.1c-3,0-5.5-2.5-5.5-5.5V69.9c0-3,2.5-5.5,5.5-5.5h0c3,0,5.5,2.5,5.5,5.5v321.7
					C185.7,394.6,183.2,397.1,180.2,397.1z"/>
			</g>
			<path class="st3" d="M489.9,65.2H10.1V38.4C10.1,17.2,27.3,0,48.4,0h403.1c21.2,0,38.4,17.2,38.4,38.4V65.2z"/>
			<g>
				<path class="st4" d="M402.8,396.3L402.8,396.3c-3.3,0-6-2.7-6-6V284.2c0-3.3,2.7-6,6-6l0,0c3.3,0,6,2.7,6,6v106.1
					C408.9,393.6,406.1,396.3,402.8,396.3z"/>
				<path class="st4" d="M97.2,396.3L97.2,396.3c-3.3,0-6-2.7-6-6V284.2c0-3.3,2.7-6,6-6h0c3.3,0,6,2.7,6,6v106.1
					C103.2,393.6,100.5,396.3,97.2,396.3z"/>
				<path class="st5" d="M425.5,294.6h-351c-8,0-14.5-6.5-14.5-14.5v-0.8c0-8,6.5-14.5,14.5-14.5h351c8,0,14.5,6.5,14.5,14.5v0.8
					C440,288,433.5,294.6,425.5,294.6z"/>
			</g>
		</g>
		<path class="st2" d="M494,72.9H6c-3.3,0-6-2.7-6-6l0-3.2c0-3.3,2.7-6,6-6H494c3.3,0,6,2.7,6,6v3.2C500,70.2,497.3,72.9,494,72.9z"
			/>
	</g>
	<g style="clip-path:url(#SVGID_00000171001022510603413920000009716908805775518866_);">
		<path class="st8" d="M185.3,11c7.8,0,12.3,4.8,12.8,11.9h-3.8c-0.4-5.3-3.4-8.6-9-8.6c-7.1,0-9.3,5.5-9.3,14.5
			c0,9.9,2.6,14.5,9.3,14.5c5.5,0,9.1-3.7,9.1-9.8v-1.8h-8.8v-3.3h12.6v17.7h-2.8l-0.7-4.6c-1.3,3-4.7,5.2-9.5,5.2
			c-10.3,0-12.9-8.3-12.9-17.8C172.1,18.9,175.1,11,185.3,11z"/>
		<path class="st8" d="M224.7,46.1c-0.3-0.8-0.4-1.8-0.5-3.1c-0.5-7.5-0.4-10.5-7.5-10.5h-8.3v13.6h-3.8V11.5h13.1
			c7.2,0,10.8,3.8,10.8,10.3c0,4.6-2,7.8-6.3,8.9c3.6,0.7,5.2,2.8,5.6,7.3c0.2,2.9,0.4,6.2,0.9,8H224.7z M217.1,29.1
			c4.8,0,7.4-2.3,7.4-7.1c0-4.8-2.6-7.1-7.4-7.1h-8.8v14.2H217.1z"/>
		<path class="st8" d="M247.8,11.5l12.1,34.5h-4l-2.8-8.2H238l-2.8,8.2h-4l12.1-34.5H247.8z M245.6,15.5l-6.4,19h12.8L245.6,15.5z"
			/>
		<path class="st8" d="M267.6,32.8v13.2h-3.8V11.5h13c7,0,10.8,4.1,10.8,10.7s-3.8,10.7-10.8,10.7H267.6z M276.3,29.5
			c4.9,0,7.4-2.8,7.4-7.3c0-4.6-2.5-7.3-7.4-7.3h-8.8v14.6H276.3z"/>
		<path class="st8" d="M296.2,46.1h-3.8V11.5h3.8V46.1z"/>
		<path class="st8" d="M302,28.8c0-9.9,3-17.8,13.1-17.8c7.8,0,12.3,4.8,12.8,11.9h-3.8c-0.4-5.3-3.4-8.6-9-8.6
			c-7.3,0-9.3,5.6-9.3,14.5c0,9.2,2.3,14.5,9.3,14.5c5.5,0,8.6-3.3,9-8.5h3.8c-0.4,7.2-4.9,11.9-12.8,11.9
			C304.9,46.6,302,38.7,302,28.8z"/>
	</g>
</g>
<rect x="-1362" y="-131.6" class="st8" width="428.7" height="57.6"/>
</svg>
