<?xml version="1.0" encoding="utf-8"?>
<!-- Generator: Adobe Illustrator 26.3.1, SVG Export Plug-In . SVG Version: 6.00 Build 0)  -->
<svg version="1.1" id="Layer_1" xmlns="http://www.w3.org/2000/svg" xmlns:xlink="http://www.w3.org/1999/xlink" x="0px" y="0px"
	 viewBox="0 0 500 380" style="enable-background:new 0 0 500 380;" xml:space="preserve">
<style type="text/css">
	.st0{clip-path:url(#SVGID_00000110451988745410587900000004318163869101038523_);}
	.st1{opacity:0.5;fill:#C0EAFF;enable-background:new    ;}
	.st2{fill:#2E383D;}
	.st3{fill:#066D5E;}
	.st4{fill:#202C33;}
	.st5{fill:#F4D7A8;}
	.st6{clip-path:url(#SVGID_00000006667170838797424300000014303346741487876748_);}
	.st7{opacity:0.5;fill:#C0EAFF;}
	.st8{fill:#FFFFFF;}
	.st9{clip-path:url(#SVGID_00000077316869219797576560000006134048033272101266_);}
	.st10{clip-path:url(#SVGID_00000062907557899870405660000007629780721501390253_);}
	.st11{clip-path:url(#SVGID_00000047033121850589283100000008729062402578424211_);}
</style>
<g>
	<g>
		<defs>
			<rect id="SVGID_1_" x="768.9" y="-35.7" width="500" height="380"/>
		</defs>
		<clipPath id="SVGID_00000016763489736345017330000007028012437013471927_">
			<use xlink:href="#SVGID_1_"  style="overflow:visible;"/>
		</clipPath>
		<g style="clip-path:url(#SVGID_00000016763489736345017330000007028012437013471927_);">
			<g>
				<g>
					<rect x="804" y="22" class="st1" width="429.8" height="336.6"/>
					<path class="st2" d="M810,362.3h-1c-2.7,0-5-2.2-5-5V33.9c0-2.7,2.2-5,5-5h1c2.7,0,5,2.2,5,5v323.4
						C815,360.1,812.7,362.3,810,362.3z"/>
					<path class="st2" d="M1228.8,362.3h-1c-2.7,0-5-2.2-5-5V33.9c0-2.7,2.2-5,5-5h1c2.7,0,5,2.2,5,5v323.4
						C1233.8,360.1,1231.5,362.3,1228.8,362.3z"/>
					<path class="st2" d="M1089.2,362.3h-1c-2.7,0-5-2.2-5-5V33.9c0-2.7,2.2-5,5-5h1c2.7,0,5,2.2,5,5v323.4
						C1094.2,360.1,1091.9,362.3,1089.2,362.3z"/>
					<path class="st2" d="M949.6,362.3h-1c-2.7,0-5-2.2-5-5V33.9c0-2.7,2.2-5,5-5h1c2.7,0,5,2.2,5,5v323.4
						C954.6,360.1,952.3,362.3,949.6,362.3z"/>
				</g>
				<path class="st3" d="M1258.8,29.7H779V-0.8c0-19.2,15.6-34.8,34.9-34.8h410.1c19.2,0,34.8,15.6,34.8,34.8V29.7z"/>
				<g>
					<path class="st4" d="M1172.2,349h-1.1c-3,0-5.5-2.5-5.5-5.5V236c0-3,2.5-5.5,5.5-5.5h1.1c3,0,5.5,2.5,5.5,5.5v107.5
						C1177.7,346.5,1175.3,349,1172.2,349z"/>
					<path class="st4" d="M866.6,349h-1.1c-3,0-5.5-2.5-5.5-5.5V236c0-3,2.5-5.5,5.5-5.5h1.1c3,0,5.5,2.5,5.5,5.5v107.5
						C872.1,346.5,869.6,349,866.6,349z"/>
					<path class="st5" d="M1195.7,247H842.1c-7.2,0-13.2-5.9-13.2-13.2v-3.5c0-7.2,5.9-13.2,13.2-13.2h353.6
						c7.2,0,13.2,5.9,13.2,13.2v3.5C1208.9,241.1,1202.9,247,1195.7,247z"/>
				</g>
			</g>
			<path class="st2" d="M1263.4,37.4h-489c-3,0-5.5-2.5-5.5-5.5v-4.4c0-3,2.5-5.5,5.5-5.5h489c3,0,5.5,2.5,5.5,5.5v4.4
				C1268.9,34.9,1266.4,37.4,1263.4,37.4z"/>
		</g>
	</g>
</g>
<g>
	<defs>
		<rect id="SVGID_00000121965657521269999480000000807234807570650243_" width="500" height="380"/>
	</defs>
	<clipPath id="SVGID_00000159458822885141299510000001104995923128492725_">
		<use xlink:href="#SVGID_00000121965657521269999480000000807234807570650243_"  style="overflow:visible;"/>
	</clipPath>
	<g style="clip-path:url(#SVGID_00000159458822885141299510000001104995923128492725_);">
		<g>
			<g>
				<rect x="35.1" y="57.6" class="st7" width="429.8" height="335.9"/>
				<path class="st2" d="M40.6,397.1L40.6,397.1c-3,0-5.5-2.5-5.5-5.5V69.9c0-3,2.5-5.5,5.5-5.5h0c3,0,5.5,2.5,5.5,5.5v321.7
					C46.1,394.6,43.6,397.1,40.6,397.1z"/>
				<path class="st2" d="M459.4,397.1L459.4,397.1c-3,0-5.5-2.5-5.5-5.5V69.9c0-3,2.5-5.5,5.5-5.5l0,0c3,0,5.5,2.5,5.5,5.5v321.7
					C464.9,394.6,462.4,397.1,459.4,397.1z"/>
				<path class="st2" d="M319.8,397.1L319.8,397.1c-3,0-5.5-2.5-5.5-5.5V69.9c0-3,2.5-5.5,5.5-5.5h0c3,0,5.5,2.5,5.5,5.5v321.7
					C325.3,394.6,322.8,397.1,319.8,397.1z"/>
				<path class="st2" d="M180.2,397.1L180.2,397.1c-3,0-5.5-2.5-5.5-5.5V69.9c0-3,2.5-5.5,5.5-5.5h0c3,0,5.5,2.5,5.5,5.5v321.7
					C185.7,394.6,183.2,397.1,180.2,397.1z"/>
			</g>
			<path class="st3" d="M489.9,65.2H10.1V38.4C10.1,17.2,27.3,0,48.4,0h403.1c21.2,0,38.4,17.2,38.4,38.4V65.2z"/>
			<g>
				<path class="st4" d="M402.8,396.3L402.8,396.3c-3.3,0-6-2.7-6-6V284.2c0-3.3,2.7-6,6-6l0,0c3.3,0,6,2.7,6,6v106.1
					C408.9,393.6,406.1,396.3,402.8,396.3z"/>
				<path class="st4" d="M97.2,396.3L97.2,396.3c-3.3,0-6-2.7-6-6V284.2c0-3.3,2.7-6,6-6h0c3.3,0,6,2.7,6,6v106.1
					C103.2,393.6,100.5,396.3,97.2,396.3z"/>
				<path class="st5" d="M425.5,294.6h-351c-8,0-14.5-6.5-14.5-14.5v-0.8c0-8,6.5-14.5,14.5-14.5h351c8,0,14.5,6.5,14.5,14.5v0.8
					C440,288,433.5,294.6,425.5,294.6z"/>
			</g>
		</g>
		<path class="st2" d="M494,72.9H6c-3.3,0-6-2.7-6-6l0-3.2c0-3.3,2.7-6,6-6H494c3.3,0,6,2.7,6,6v3.2C500,70.2,497.3,72.9,494,72.9z"
			/>
	</g>
	<g style="clip-path:url(#SVGID_00000159458822885141299510000001104995923128492725_);">
		<path class="st8" d="M169.5,32.8v13.2h-3.8V11.5h13c7,0,10.8,4.1,10.8,10.7s-3.8,10.7-10.8,10.7H169.5z M178.3,29.5
			c4.9,0,7.4-2.8,7.4-7.3c0-4.6-2.5-7.3-7.4-7.3h-8.8v14.6H178.3z"/>
		<path class="st8" d="M214.5,46.1c-0.3-0.8-0.4-1.8-0.5-3.1c-0.5-7.5-0.4-10.5-7.5-10.5h-8.3v13.6h-3.8V11.5h13.1
			c7.2,0,10.8,3.8,10.8,10.3c0,4.6-2,7.8-6.3,8.9c3.6,0.7,5.2,2.8,5.6,7.3c0.2,2.9,0.4,6.2,0.9,8H214.5z M206.8,29.1
			c4.8,0,7.4-2.3,7.4-7.1c0-4.8-2.6-7.1-7.4-7.1h-8.8v14.2H206.8z"/>
		<path class="st8" d="M235.8,46.6c-10.2,0-13.1-7.9-13.1-17.8c0-9.8,2.9-17.8,13.1-17.8c10.3,0,13.2,8,13.2,17.8
			C248.9,38.8,246,46.6,235.8,46.6z M235.8,14.3c-7.2,0-9.3,5.6-9.3,14.5c0,8.9,2.1,14.5,9.3,14.5c7.3,0,9.4-5.6,9.4-14.5
			C245.2,19.9,243,14.3,235.8,14.3z"/>
		<path class="st8" d="M254.8,11.5h19.7v3.3h-15.9v12.3h14.3v3.3h-14.3v15.5h-3.8V11.5z"/>
		<path class="st8" d="M283.1,46.1h-3.8V11.5h3.8V46.1z"/>
		<path class="st8" d="M289.9,11.5h3.8v31.2h16.3v3.3h-20.2V11.5z"/>
		<path class="st8" d="M314.2,11.5h19.9v3.3H318v11.8h14.3v3.4H318v12.7h16.3v3.3h-20.2V11.5z"/>
	</g>
</g>
<g>
	<defs>
		<rect id="SVGID_00000175299172341395319130000005140358043537145016_" x="-1397.6" y="-10.1" width="500" height="380"/>
	</defs>
	<clipPath id="SVGID_00000103264153566157693330000009213069908554958467_">
		<use xlink:href="#SVGID_00000175299172341395319130000005140358043537145016_"  style="overflow:visible;"/>
	</clipPath>
	<g style="clip-path:url(#SVGID_00000103264153566157693330000009213069908554958467_);">
		<g>
			<g>
				<rect x="-1362.5" y="47.5" class="st7" width="429.8" height="335.9"/>
				<path class="st2" d="M-1357,387L-1357,387c-3,0-5.5-2.5-5.5-5.5V59.8c0-3,2.5-5.5,5.5-5.5l0,0c3,0,5.5,2.5,5.5,5.5v321.7
					C-1351.5,384.5-1354,387-1357,387z"/>
				<path class="st2" d="M-938.2,387L-938.2,387c-3,0-5.5-2.5-5.5-5.5V59.8c0-3,2.5-5.5,5.5-5.5l0,0c3,0,5.5,2.5,5.5,5.5v321.7
					C-932.7,384.5-935.2,387-938.2,387z"/>
				<path class="st2" d="M-1077.8,387L-1077.8,387c-3,0-5.5-2.5-5.5-5.5V59.8c0-3,2.5-5.5,5.5-5.5l0,0c3,0,5.5,2.5,5.5,5.5v321.7
					C-1072.3,384.5-1074.8,387-1077.8,387z"/>
				<path class="st2" d="M-1217.4,387L-1217.4,387c-3,0-5.5-2.5-5.5-5.5V59.8c0-3,2.5-5.5,5.5-5.5l0,0c3,0,5.5,2.5,5.5,5.5v321.7
					C-1211.9,384.5-1214.4,387-1217.4,387z"/>
			</g>
			<path class="st3" d="M-907.7,55.1h-479.8V28.3c0-21.2,17.2-38.4,38.4-38.4h403.1c21.2,0,38.4,17.2,38.4,38.4V55.1z"/>
			<g>
				<path class="st4" d="M-994.8,386.2L-994.8,386.2c-3.3,0-6-2.7-6-6V274.1c0-3.3,2.7-6,6-6l0,0c3.3,0,6,2.7,6,6v106.1
					C-988.8,383.5-991.5,386.2-994.8,386.2z"/>
				<path class="st4" d="M-1300.4,386.2L-1300.4,386.2c-3.3,0-6-2.7-6-6V274.1c0-3.3,2.7-6,6-6l0,0c3.3,0,6,2.7,6,6v106.1
					C-1294.4,383.5-1297.1,386.2-1300.4,386.2z"/>
				<path class="st5" d="M-972.1,284.5h-351c-8,0-14.5-6.5-14.5-14.5v-0.8c0-8,6.5-14.5,14.5-14.5h351c8,0,14.5,6.5,14.5,14.5v0.8
					C-957.6,277.9-964.1,284.5-972.1,284.5z"/>
			</g>
		</g>
		<path class="st2" d="M-903.6,62.8h-487.9c-3.3,0-6-2.7-6-6v-3.2c0-3.3,2.7-6,6-6h487.9c3.3,0,6,2.7,6,6v3.2
			C-897.6,60.1-900.3,62.8-903.6,62.8z"/>
	</g>
	<g style="clip-path:url(#SVGID_00000103264153566157693330000009213069908554958467_);">
		<path class="st8" d="M-1166.8,35.9l-8.1-28.2l-8.1,28.2h-4.6l-9.5-34.5h4l8,29.2l8.4-29.2h3.8l8.4,29.2l8-29.2h4l-9.6,34.5
			H-1166.8z"/>
		<path class="st8" d="M-1148.5,1.4h19.9v3.3h-16.1v11.8h14.3V20h-14.3v12.7h16.3v3.3h-20.2V1.4z"/>
		<path class="st8" d="M-1123,35.9V1.4h12.6c6.8,0,10.2,3.2,10.2,9c0,4.2-2.2,6.9-5.5,7.7c4.2,0.7,6.5,3.9,6.5,8.4
			c0,6.3-3.6,9.5-10.7,9.5H-1123z M-1111.3,16.5c4.9,0,7.3-1.8,7.3-5.9c0-4.1-2.4-5.9-7.3-5.9h-7.9v11.8H-1111.3z M-1110.7,19.9
			h-8.5v12.8h8.5c5.5,0,7.7-2.2,7.7-6.4C-1103,22-1105.2,19.9-1110.7,19.9z"/>
	</g>
</g>
<g>
	<defs>
		<rect id="SVGID_00000183931353995864949370000011764683532375232152_" x="-2021.8" y="-10.1" width="500" height="380"/>
	</defs>
	<clipPath id="SVGID_00000134948367419117179520000003696712358411071388_">
		<use xlink:href="#SVGID_00000183931353995864949370000011764683532375232152_"  style="overflow:visible;"/>
	</clipPath>
	<g style="clip-path:url(#SVGID_00000134948367419117179520000003696712358411071388_);">
		<g>
			<g>
				<rect x="-1986.4" y="47.5" class="st7" width="429.8" height="335.9"/>
				<path class="st2" d="M-1980.9,387L-1980.9,387c-3,0-5.5-2.5-5.5-5.5V59.8c0-3,2.5-5.5,5.5-5.5l0,0c3,0,5.5,2.5,5.5,5.5v321.7
					C-1975.4,384.5-1977.9,387-1980.9,387z"/>
				<path class="st2" d="M-1562.1,387L-1562.1,387c-3,0-5.5-2.5-5.5-5.5V59.8c0-3,2.5-5.5,5.5-5.5h0c3,0,5.5,2.5,5.5,5.5v321.7
					C-1556.6,384.5-1559,387-1562.1,387z"/>
				<path class="st2" d="M-1701.7,387L-1701.7,387c-3,0-5.5-2.5-5.5-5.5V59.8c0-3,2.5-5.5,5.5-5.5l0,0c3,0,5.5,2.5,5.5,5.5v321.7
					C-1696.2,384.5-1698.6,387-1701.7,387z"/>
				<path class="st2" d="M-1841.3,387L-1841.3,387c-3,0-5.5-2.5-5.5-5.5V59.8c0-3,2.5-5.5,5.5-5.5l0,0c3,0,5.5,2.5,5.5,5.5v321.7
					C-1835.8,384.5-1838.3,387-1841.3,387z"/>
			</g>
			<path class="st3" d="M-1531.6,55.1h-479.8V28.3c0-21.2,17.2-38.4,38.4-38.4h403.1c21.2,0,38.4,17.2,38.4,38.4V55.1z"/>
			<g>
				<path class="st4" d="M-1618.7,386.2L-1618.7,386.2c-3.3,0-6-2.7-6-6V274.1c0-3.3,2.7-6,6-6h0c3.3,0,6,2.7,6,6v106.1
					C-1612.6,383.5-1615.3,386.2-1618.7,386.2z"/>
				<path class="st4" d="M-1924.3,386.2L-1924.3,386.2c-3.3,0-6-2.7-6-6V274.1c0-3.3,2.7-6,6-6l0,0c3.3,0,6,2.7,6,6v106.1
					C-1918.2,383.5-1921,386.2-1924.3,386.2z"/>
				<path class="st5" d="M-1596,284.5h-351c-8,0-14.5-6.5-14.5-14.5v-0.8c0-8,6.5-14.5,14.5-14.5h351c8,0,14.5,6.5,14.5,14.5v0.8
					C-1581.5,277.9-1588,284.5-1596,284.5z"/>
			</g>
		</g>
		<path class="st2" d="M-1527.5,62.8h-487.9c-3.3,0-6-2.7-6-6v-3.2c0-3.3,2.7-6,6-6h487.9c3.3,0,6,2.7,6,6v3.2
			C-1521.5,60.1-1524.2,62.8-1527.5,62.8z"/>
	</g>
	<g style="clip-path:url(#SVGID_00000134948367419117179520000003696712358411071388_);">
		<path class="st8" d="M-1881.9,35.9c-0.3-0.8-0.4-1.8-0.5-3.1c-0.5-7.5-0.4-10.5-7.5-10.5h-8.3v13.6h-3.8V1.4h13.1
			c7.2,0,10.8,3.8,10.8,10.3c0,4.6-2,7.8-6.3,8.9c3.6,0.7,5.2,2.8,5.6,7.3c0.2,2.9,0.4,6.2,0.9,8H-1881.9z M-1889.5,19
			c4.8,0,7.4-2.3,7.4-7.1c0-4.8-2.6-7.1-7.4-7.1h-8.8V19H-1889.5z"/>
		<path class="st8" d="M-1872.5,1.4h19.9v3.3h-16.1v11.8h14.3V20h-14.3v12.7h16.3v3.3h-20.2V1.4z"/>
		<path class="st8" d="M-1836.3,36.5c-7.5,0-11.7-4.2-11.7-9.8v-0.9h3.8v1c0,3.7,2.9,6.5,7.9,6.5c4.9,0,7.8-2.7,7.8-6.5
			c0-3.2-2-5.5-6.5-6.5l-4.4-0.9c-5.4-1.1-8.5-4.1-8.5-9.2s3.8-9.3,11-9.3c7.2,0,11,4.2,11,9.3v0.7h-3.8v-0.7c0-3.6-2.6-6-7.2-6
			s-7.2,2.4-7.2,6c0,3.3,2,5.1,5.9,5.9l4.4,0.9c6,1.3,9.1,4.5,9.1,9.7C-1824.6,32.3-1828.8,36.5-1836.3,36.5z"/>
		<path class="st8" d="M-1815.4,22.7v13.2h-3.8V1.4h13c7,0,10.8,4.1,10.8,10.7s-3.8,10.7-10.8,10.7H-1815.4z M-1806.7,19.4
			c4.9,0,7.4-2.8,7.4-7.3c0-4.6-2.5-7.3-7.4-7.3h-8.8v14.6H-1806.7z"/>
		<path class="st8" d="M-1778.5,36.5c-10.2,0-13.1-7.9-13.1-17.8c0-9.8,2.9-17.8,13.1-17.8c10.3,0,13.2,8,13.2,17.8
			C-1765.4,28.7-1768.3,36.5-1778.5,36.5z M-1778.5,4.2c-7.2,0-9.3,5.6-9.3,14.5c0,8.9,2.1,14.5,9.3,14.5c7.3,0,9.4-5.6,9.4-14.5
			C-1769.1,9.8-1771.3,4.2-1778.5,4.2z"/>
		<path class="st8" d="M-1739.5,35.9l-16.2-27.6v27.6h-3.8V1.4h3.8l16.2,27.6V1.4h3.8v34.5H-1739.5z"/>
		<path class="st8" d="M-1718.1,36.5c-7.5,0-11.7-4.2-11.7-9.8v-0.9h3.8v1c0,3.7,2.9,6.5,7.9,6.5c4.9,0,7.8-2.7,7.8-6.5
			c0-3.2-2-5.5-6.5-6.5l-4.4-0.9c-5.4-1.1-8.5-4.1-8.5-9.2s3.8-9.3,11-9.3c7.2,0,11,4.2,11,9.3v0.7h-3.8v-0.7c0-3.6-2.6-6-7.2-6
			s-7.2,2.4-7.2,6c0,3.3,2,5.1,5.9,5.9l4.4,0.9c6,1.3,9.1,4.5,9.1,9.7C-1706.5,32.3-1710.7,36.5-1718.1,36.5z"/>
		<path class="st8" d="M-1697.3,35.9h-3.8V1.4h3.8V35.9z"/>
		<path class="st8" d="M-1681.4,35.9l-12.1-34.5h4l10.3,29.8l10.3-29.8h4l-12.1,34.5H-1681.4z"/>
		<path class="st8" d="M-1661,1.4h19.9v3.3h-16.1v11.8h14.3V20h-14.3v12.7h16.3v3.3h-20.2V1.4z"/>
	</g>
</g>
<g>
	<defs>
		<rect id="SVGID_00000000201697457443007890000004808629677318775700_" x="-2646" y="-10.1" width="500" height="380"/>
	</defs>
	<clipPath id="SVGID_00000138539029572782619580000004207174082732975804_">
		<use xlink:href="#SVGID_00000000201697457443007890000004808629677318775700_"  style="overflow:visible;"/>
	</clipPath>
	<g style="clip-path:url(#SVGID_00000138539029572782619580000004207174082732975804_);">
		<g>
			<g>
				<rect x="-2611" y="47.5" class="st7" width="429.8" height="335.9"/>
				<path class="st2" d="M-2605.5,387L-2605.5,387c-3,0-5.5-2.5-5.5-5.5V59.8c0-3,2.5-5.5,5.5-5.5l0,0c3,0,5.5,2.5,5.5,5.5v321.7
					C-2600,384.5-2602.4,387-2605.5,387z"/>
				<path class="st2" d="M-2186.6,387L-2186.6,387c-3,0-5.5-2.5-5.5-5.5V59.8c0-3,2.5-5.5,5.5-5.5l0,0c3,0,5.5,2.5,5.5,5.5v321.7
					C-2181.1,384.5-2183.6,387-2186.6,387z"/>
				<path class="st2" d="M-2326.2,387L-2326.2,387c-3,0-5.5-2.5-5.5-5.5V59.8c0-3,2.5-5.5,5.5-5.5l0,0c3,0,5.5,2.5,5.5,5.5v321.7
					C-2320.7,384.5-2323.2,387-2326.2,387z"/>
				<path class="st2" d="M-2465.8,387L-2465.8,387c-3,0-5.5-2.5-5.5-5.5V59.8c0-3,2.5-5.5,5.5-5.5l0,0c3,0,5.5,2.5,5.5,5.5v321.7
					C-2460.4,384.5-2462.8,387-2465.8,387z"/>
			</g>
			<path class="st3" d="M-2156.1,55.1H-2636V28.3c0-21.2,17.2-38.4,38.4-38.4h403.1c21.2,0,38.4,17.2,38.4,38.4V55.1z"/>
			<g>
				<path class="st4" d="M-2243.2,386.2L-2243.2,386.2c-3.3,0-6-2.7-6-6V274.1c0-3.3,2.7-6,6-6l0,0c3.3,0,6,2.7,6,6v106.1
					C-2237.2,383.5-2239.9,386.2-2243.2,386.2z"/>
				<path class="st4" d="M-2548.8,386.2L-2548.8,386.2c-3.3,0-6-2.7-6-6V274.1c0-3.3,2.7-6,6-6l0,0c3.3,0,6,2.7,6,6v106.1
					C-2542.8,383.5-2545.5,386.2-2548.8,386.2z"/>
				<path class="st5" d="M-2220.6,284.5h-351c-8,0-14.5-6.5-14.5-14.5v-0.8c0-8,6.5-14.5,14.5-14.5h351c8,0,14.5,6.5,14.5,14.5v0.8
					C-2206,277.9-2212.6,284.5-2220.6,284.5z"/>
			</g>
		</g>
		<path class="st2" d="M-2152.1,62.8H-2640c-3.3,0-6-2.7-6-6v-3.2c0-3.3,2.7-6,6-6h487.9c3.3,0,6,2.7,6,6v3.2
			C-2146,60.1-2148.8,62.8-2152.1,62.8z"/>
	</g>
	<g style="clip-path:url(#SVGID_00000138539029572782619580000004207174082732975804_);">
		<path class="st8" d="M-2460.8,0.8c7.8,0,12.3,4.8,12.8,11.9h-3.8c-0.4-5.3-3.4-8.6-9-8.6c-7.1,0-9.3,5.5-9.3,14.5
			c0,9.9,2.6,14.5,9.3,14.5c5.5,0,9.1-3.7,9.1-9.8v-1.8h-8.8v-3.3h12.6v17.7h-2.8l-0.7-4.6c-1.3,3-4.7,5.2-9.5,5.2
			c-10.3,0-12.9-8.3-12.9-17.8C-2473.9,8.8-2471,0.8-2460.8,0.8z"/>
		<path class="st8" d="M-2421.3,35.9c-0.3-0.8-0.4-1.8-0.5-3.1c-0.5-7.5-0.4-10.5-7.5-10.5h-8.3v13.6h-3.8V1.4h13.1
			c7.2,0,10.8,3.8,10.8,10.3c0,4.6-2,7.8-6.3,8.9c3.6,0.7,5.2,2.8,5.6,7.3c0.2,2.9,0.4,6.2,0.9,8H-2421.3z M-2428.9,19
			c4.8,0,7.4-2.3,7.4-7.1c0-4.8-2.6-7.1-7.4-7.1h-8.8V19H-2428.9z"/>
		<path class="st8" d="M-2398.3,1.4l12.1,34.5h-4l-2.8-8.2h-15.1l-2.8,8.2h-4l12.1-34.5H-2398.3z M-2400.5,5.4l-6.4,19h12.8
			L-2400.5,5.4z"/>
		<path class="st8" d="M-2378.5,22.7v13.2h-3.8V1.4h13c7,0,10.8,4.1,10.8,10.7s-3.8,10.7-10.8,10.7H-2378.5z M-2369.7,19.4
			c4.9,0,7.4-2.8,7.4-7.3c0-4.6-2.5-7.3-7.4-7.3h-8.8v14.6H-2369.7z"/>
		<path class="st8" d="M-2349.8,35.9h-3.8V1.4h3.8V35.9z"/>
		<path class="st8" d="M-2344.1,18.7c0-9.9,3-17.8,13.1-17.8c7.8,0,12.3,4.8,12.8,11.9h-3.8c-0.4-5.3-3.4-8.6-9-8.6
			c-7.3,0-9.3,5.6-9.3,14.5c0,9.2,2.3,14.5,9.3,14.5c5.5,0,8.6-3.3,9-8.5h3.8c-0.4,7.2-4.9,11.9-12.8,11.9
			C-2341.2,36.5-2344.1,28.6-2344.1,18.7z"/>
	</g>
</g>
<rect x="-1362" y="-131.6" class="st8" width="428.7" height="57.6"/>
</svg>
