<?xml version="1.0" encoding="utf-8"?>
<!-- Generator: Adobe Illustrator 26.3.1, SVG Export Plug-In . SVG Version: 6.00 Build 0)  -->
<svg version="1.1" id="레이어_1" xmlns="http://www.w3.org/2000/svg" xmlns:xlink="http://www.w3.org/1999/xlink" x="0px"
	 y="0px" viewBox="0 0 150 150" style="enable-background:new 0 0 150 150;" xml:space="preserve">
<style type="text/css">
	.st0{opacity:0.9;}
	.st1{clip-path:url(#SVGID_00000015315421113946810970000010309572323172917925_);fill:#066D5E;}
	.st2{clip-path:url(#SVGID_00000133506511052136428200000013855124489490480544_);fill:#066D5E;}
	.st3{clip-path:url(#SVGID_00000170239427142975715750000009485117925178265771_);fill:#066D5E;}
	.st4{clip-path:url(#SVGID_00000064328310523917695180000013821383600617883582_);fill:#066D5E;}
	.st5{clip-path:url(#SVGID_00000137121662540965992480000017728958715219150231_);fill:#066D5E;}
	.st6{fill:#E54D26;}
	.st7{fill:#F66B3A;}
	.st8{fill:#FFFFFF;}
	.st9{fill:#E6C72F;}
	.st10{fill:#FFDE24;}
	.st11{fill:#006EBA;}
	.st12{fill:#15A0DB;}
	.st13{fill:#1ABCFE;}
	.st14{fill:#FF7262;}
	.st15{fill:#F24E1E;}
	.st16{fill:#A259FF;}
	.st17{fill:#0ACF83;}
	.st18{fill:#330000;}
	.st19{fill:#FF9A00;}
	.st20{fill:#001E36;}
	.st21{fill:#31A8FF;}
	.st22{fill:#066D5E;}
</style>
<g class="st0">
	<defs>
		<circle id="SVGID_1_" class="st0" cx="-427.1" cy="-293.6" r="75"/>
	</defs>
	<clipPath id="SVGID_00000085950979892112616360000000284364777158483593_">
		<use xlink:href="#SVGID_1_"  style="overflow:visible;"/>
	</clipPath>
	
		<rect x="-507.1" y="-346.6" style="clip-path:url(#SVGID_00000085950979892112616360000000284364777158483593_);fill:#066D5E;" width="163.1" height="133.2"/>
</g>
<g class="st0">
	<defs>
		<circle id="SVGID_00000030449555286231129950000001347903166695703943_" class="st0" cx="-215.2" cy="-289.6" r="75"/>
	</defs>
	<clipPath id="SVGID_00000078041716111189920940000014085866977978394781_">
		<use xlink:href="#SVGID_00000030449555286231129950000001347903166695703943_"  style="overflow:visible;"/>
	</clipPath>
	
		<rect x="-295.2" y="-350.6" style="clip-path:url(#SVGID_00000078041716111189920940000014085866977978394781_);fill:#066D5E;" width="163.1" height="141.2"/>
</g>
<g class="st0">
	<defs>
		<circle id="SVGID_00000123406755885589175480000001560367186092292287_" class="st0" cx="22.5" cy="-293.6" r="75"/>
	</defs>
	<clipPath id="SVGID_00000119097351861117180850000007050309900728950685_">
		<use xlink:href="#SVGID_00000123406755885589175480000001560367186092292287_"  style="overflow:visible;"/>
	</clipPath>
	
		<rect x="-57.5" y="-337.2" style="clip-path:url(#SVGID_00000119097351861117180850000007050309900728950685_);fill:#066D5E;" width="163.1" height="123.8"/>
</g>
<g class="st0">
	<defs>
		<circle id="SVGID_00000116937812360321185390000014213661696186617277_" class="st0" cx="-360" cy="-106.3" r="75"/>
	</defs>
	<clipPath id="SVGID_00000065787910324961521920000004165769801972482750_">
		<use xlink:href="#SVGID_00000116937812360321185390000014213661696186617277_"  style="overflow:visible;"/>
	</clipPath>
	
		<rect x="-439.9" y="-134.6" style="clip-path:url(#SVGID_00000065787910324961521920000004165769801972482750_);fill:#066D5E;" width="163.1" height="108.5"/>
</g>
<g class="st0">
	<defs>
		<circle id="SVGID_00000060732855889412959870000011989812498074246309_" class="st0" cx="75" cy="75" r="75"/>
	</defs>
	<clipPath id="SVGID_00000008844792146373752270000013948008173598142340_">
		<use xlink:href="#SVGID_00000060732855889412959870000011989812498074246309_"  style="overflow:visible;"/>
	</clipPath>
	
		<rect x="-5" y="36.9" style="clip-path:url(#SVGID_00000008844792146373752270000013948008173598142340_);fill:#066D5E;" width="163.1" height="118.3"/>
</g>
<text transform="matrix(1 0 0 1 -396.1549 114.9587)" class="st8" style="font-family:'NotoSansKR-Bold-KSCpc-EUC-H'; font-size:28px;">90%</text>
<text transform="matrix(1 0 0 1 -267.5878 114.5667)" class="st8" style="font-family:'NotoSansKR-Bold-KSCpc-EUC-H'; font-size:28px;">95%</text>
<text transform="matrix(1 0 0 1 -137.0968 118.519)" class="st8" style="font-family:'NotoSansKR-Bold-KSCpc-EUC-H'; font-size:28px;">85%</text>
<text transform="matrix(1 0 0 1 -353.4518 247.3323)" class="st8" style="font-family:'NotoSansKR-Bold-KSCpc-EUC-H'; font-size:28px;">80%</text>
<text transform="matrix(1 0 0 1 -216.5497 239.2088)" class="st8" style="font-family:'NotoSansKR-Bold-KSCpc-EUC-H'; font-size:28px;">83%</text>
<g>
	<path class="st6" d="M223,39.6l11.6,134.5l54,15.5l54.8-14.7L355,39.6H223z M331.9,166.4l-43.2,12.4v-126h52.5L331.9,166.4z"/>
	<polygon class="st7" points="288.6,178.7 331.9,166.4 341.1,52.7 288.6,52.7 	"/>
	<polygon class="st8" points="246.9,68.9 330.3,68.9 329.5,86.7 267.8,86.7 268.6,102.2 326.5,102.2 324.1,153.2 289.4,162.5 
		254.7,153.2 253.1,128.5 270.1,128.5 270.9,140.9 289.4,145.5 307.9,140.1 308.7,119.2 252.4,119.2 	"/>
</g>
<g>
	<path class="st9" d="M411.2,31.8l11.6,134.5l54,15.5l54.8-14.7l11.6-135.3H411.2z M520.1,158.6l-43.2,12.4v-126h52.5L520.1,158.6z"
		/>
	<polygon class="st10" points="476.8,170.9 520.1,158.6 529.3,44.9 476.8,44.9 	"/>
	<g>
		<path class="st8" d="M456.8,63.5h14.7V157l-40.1-10.8v-15.5l25.5,6.2C456.8,136.9,456.8,64.2,456.8,63.5z"/>
		<polygon class="st8" points="482.2,63.5 523.1,63.5 521.6,78.2 496.1,78.2 496.1,103.7 520.1,99.8 515.4,147.7 481.5,157 
			481.5,141.6 503.1,136.1 504.6,116.8 481.5,119.9 481.5,63.5 		"/>
	</g>
</g>
<g>
	<path class="st11" d="M655.6,32.5l11.6,134.5l54,15.5l54.8-14.7l11.6-135.3H655.6z M764.5,159.3l-43.2,12.4v-126h52.5L764.5,159.3z
		"/>
	<polygon class="st12" points="721.3,171.7 764.5,159.3 773.8,45.7 721.3,45.7 	"/>
	<polygon class="st8" points="680.3,62.7 762.9,62.7 762.2,78.9 729.8,95.9 760.6,95.9 756.8,147 722,155.5 687.3,147 685.8,120.7 
		703.5,120.7 704.3,134.6 722,139.2 740.6,133.8 742.1,113 685,113 683.4,95.9 715.9,79.7 681.9,79.7 	"/>
</g>
<g>
	<ellipse class="st13" cx="496.4" cy="-131.4" rx="25" ry="25.1"/>
	<g>
		<path class="st14" d="M496.8-206.7L496.8-206.7l-25.4,0v50.2h25.4v0c13.6-0.2,24.6-11.4,24.6-25.1S510.4-206.5,496.8-206.7z"/>
	</g>
	<g>
		<path class="st15" d="M446.1-206.8L446.1-206.8c-13.6,0.2-24.6,11.4-24.6,25.1s11,24.9,24.6,25.1v0h25.4v-50.2H446.1z"/>
	</g>
	<g>
		<path class="st16" d="M446.1-156.5L446.1-156.5c-13.6,0.2-24.6,11.4-24.6,25.1s11,24.9,24.6,25.1v0h25.4v-50.2H446.1z"/>
	</g>
	<path class="st17" d="M446.8-106.3c-13.6,0-24.6,11.1-24.6,24.8s11,24.8,24.6,24.8s24.6-11.1,24.6-24.8v-24.8H446.8z"/>
</g>
<g>
	<path class="st18" d="M1023,190.4H893.9c-5.8,0-10.4-4.7-10.4-10.4V50.8c0-5.8,4.7-10.4,10.4-10.4H1023c5.8,0,10.4,4.7,10.4,10.4
		v129.1C1033.5,185.7,1028.8,190.4,1023,190.4z"/>
	<g>
		<g>
			<path class="st19" d="M962.3,142.6l-3.8-13.5h-23.6l-3.8,13.5h-14.9l22.4-70.2h16.1l22.4,70.2H962.3z M938.2,117.3h16.9
				l-8.4-29.8L938.2,117.3z"/>
			<path class="st19" d="M982.8,72.5h13.8v12.1h-13.8V72.5z M982.8,92.5h13.8v50.1h-13.8V92.5z"/>
		</g>
	</g>
</g>
<g>
	<path class="st20" d="M1235.8,189.6h-129.1c-5.8,0-10.4-4.7-10.4-10.4V50c0-5.8,4.7-10.4,10.4-10.4h129.1c5.8,0,10.4,4.7,10.4,10.4
		v129.1C1246.2,184.9,1241.6,189.6,1235.8,189.6z"/>
	<g>
		<g>
			<path class="st21" d="M1137.8,116.9v24.9h-14.5V71.7h28.3c14.6,0,23.1,8.2,23.1,22.6c0,14.5-8.4,22.6-23.1,22.6H1137.8z
				 M1149.6,104.8c6.9,0,10.4-3.5,10.4-10.5c0-6.9-3.5-10.5-10.4-10.5h-11.8v20.9H1149.6z"/>
			<path class="st21" d="M1180.1,126.4h13.7v1.3c0,3.3,2.7,5.4,7.1,5.4c4.3,0,7-2.2,7-5.3c0-3.2-1.7-4.9-6.7-5.8l-4.9-0.9
				c-10.7-2-16.2-6.7-16.2-15.3c0-8.9,7.4-15.3,19.8-15.3c12.8,0,19.7,6.3,19.7,15v0.9h-13.7v-1c0-2.8-2-5-5.9-5
				c-3.8,0-5.9,2-5.9,4.9s1.9,4.4,6.7,5.3l5,0.9c11.3,2.1,16,6.7,16,15.8s-7.8,15.8-20.8,15.8c-13.3,0-20.8-6.8-20.8-15.8V126.4z"/>
		</g>
	</g>
</g>
<rect x="-844.8" y="-307.2" class="st22" width="159.1" height="212.1"/>
</svg>
