<?xml version="1.0" encoding="utf-8"?>
<!-- Generator: Adobe Illustrator 26.3.1, SVG Export Plug-In . SVG Version: 6.00 Build 0)  -->
<svg version="1.1" id="레이어_1" xmlns="http://www.w3.org/2000/svg" xmlns:xlink="http://www.w3.org/1999/xlink" x="0px"
	 y="0px" viewBox="0 0 150 150" style="enable-background:new 0 0 150 150;" xml:space="preserve">
<style type="text/css">
	.st0{opacity:0.75;}
	.st1{clip-path:url(#SVGID_00000115507300299147358440000004850898925082633648_);}
	.st2{fill:#FFF8E1;}
	.st3{clip-path:url(#SVGID_00000097467448221067974160000012316756814483841691_);}
	.st4{clip-path:url(#SVGID_00000083802424630607353640000013062871504039166649_);}
	.st5{clip-path:url(#SVGID_00000044881925285347092950000000421860948176088743_);}
	.st6{clip-path:url(#SVGID_00000181796527604715656110000002665694919403647167_);}
	.st7{fill:#E54D26;}
	.st8{fill:#F66B3A;}
	.st9{fill:#FFFFFF;}
	.st10{fill:#E6C72F;}
	.st11{fill:#FFDE24;}
	.st12{fill:#006EBA;}
	.st13{fill:#15A0DB;}
	.st14{fill:#1ABCFE;}
	.st15{fill:#FF7262;}
	.st16{fill:#F24E1E;}
	.st17{fill:#A259FF;}
	.st18{fill:#0ACF83;}
	.st19{fill:#330000;}
	.st20{fill:#FF9A00;}
	.st21{fill:#001E36;}
	.st22{fill:#31A8FF;}
</style>
<g class="st0">
	<defs>
		<circle id="SVGID_1_" class="st0" cx="-435.3" cy="-318" r="75"/>
	</defs>
	<clipPath id="SVGID_00000066481275696898311630000014347515607524879794_">
		<use xlink:href="#SVGID_1_"  style="overflow:visible;"/>
	</clipPath>
	<g style="clip-path:url(#SVGID_00000066481275696898311630000014347515607524879794_);">
		<rect x="-515.2" y="-371.1" class="st2" width="163.1" height="133.2"/>
	</g>
</g>
<g class="st0">
	<defs>
		<circle id="SVGID_00000173155721854395199020000011361921279020470705_" class="st0" cx="-228" cy="-301.5" r="75"/>
	</defs>
	<clipPath id="SVGID_00000000919972866836537880000002906110181488348851_">
		<use xlink:href="#SVGID_00000173155721854395199020000011361921279020470705_"  style="overflow:visible;"/>
	</clipPath>
	<g style="clip-path:url(#SVGID_00000000919972866836537880000002906110181488348851_);">
		<rect x="-308" y="-362.5" class="st2" width="163.1" height="141.2"/>
	</g>
</g>
<g class="st0">
	<defs>
		<circle id="SVGID_00000035507903601982634290000013139242784130013583_" class="st0" cx="75" cy="75" r="75"/>
	</defs>
	<clipPath id="SVGID_00000028312079859775993250000016326438087635478937_">
		<use xlink:href="#SVGID_00000035507903601982634290000013139242784130013583_"  style="overflow:visible;"/>
	</clipPath>
	<g style="clip-path:url(#SVGID_00000028312079859775993250000016326438087635478937_);">
		<rect x="-5" y="31.3" class="st2" width="163.1" height="123.8"/>
	</g>
</g>
<g class="st0">
	<defs>
		<circle id="SVGID_00000010274255581164294960000005994598939371317172_" class="st0" cx="-352.1" cy="-106.3" r="75"/>
	</defs>
	<clipPath id="SVGID_00000039097718440787525630000018065916611692128675_">
		<use xlink:href="#SVGID_00000010274255581164294960000005994598939371317172_"  style="overflow:visible;"/>
	</clipPath>
	<g style="clip-path:url(#SVGID_00000039097718440787525630000018065916611692128675_);">
		<rect x="-432.1" y="-134.6" class="st2" width="163.1" height="108.5"/>
	</g>
</g>
<g class="st0">
	<defs>
		<circle id="SVGID_00000085945480810176249070000003516497917901214112_" class="st0" cx="-96.4" cy="-118.2" r="75"/>
	</defs>
	<clipPath id="SVGID_00000145754971146293054970000008633075126942830522_">
		<use xlink:href="#SVGID_00000085945480810176249070000003516497917901214112_"  style="overflow:visible;"/>
	</clipPath>
	<g style="clip-path:url(#SVGID_00000145754971146293054970000008633075126942830522_);">
		<rect x="-176.4" y="-156.3" class="st2" width="163.1" height="118.3"/>
	</g>
</g>
<text transform="matrix(1 0 0 1 -396.1549 114.9587)" class="st9" style="font-family:'NotoSansKR-Bold-KSCpc-EUC-H'; font-size:28px;">90%</text>
<text transform="matrix(1 0 0 1 -267.5878 114.5667)" class="st9" style="font-family:'NotoSansKR-Bold-KSCpc-EUC-H'; font-size:28px;">95%</text>
<text transform="matrix(1 0 0 1 -137.0968 118.519)" class="st9" style="font-family:'NotoSansKR-Bold-KSCpc-EUC-H'; font-size:28px;">85%</text>
<text transform="matrix(1 0 0 1 -353.4518 247.3323)" class="st9" style="font-family:'NotoSansKR-Bold-KSCpc-EUC-H'; font-size:28px;">80%</text>
<text transform="matrix(1 0 0 1 -216.5497 239.2088)" class="st9" style="font-family:'NotoSansKR-Bold-KSCpc-EUC-H'; font-size:28px;">83%</text>
<g>
	<path class="st7" d="M223,39.6l11.6,134.5l54,15.5l54.8-14.7L355,39.6H223z M331.9,166.4l-43.2,12.4v-126h52.5L331.9,166.4z"/>
	<polygon class="st8" points="288.6,178.7 331.9,166.4 341.1,52.7 288.6,52.7 	"/>
	<polygon class="st9" points="246.9,68.9 330.3,68.9 329.5,86.7 267.8,86.7 268.6,102.2 326.5,102.2 324.1,153.2 289.4,162.5 
		254.7,153.2 253.1,128.5 270.1,128.5 270.9,140.9 289.4,145.5 307.9,140.1 308.7,119.2 252.4,119.2 	"/>
</g>
<g>
	<path class="st10" d="M411.2,31.8l11.6,134.5l54,15.5l54.8-14.7l11.6-135.3H411.2z M520.1,158.6l-43.2,12.4v-126h52.5L520.1,158.6z
		"/>
	<polygon class="st11" points="476.8,170.9 520.1,158.6 529.3,44.9 476.8,44.9 	"/>
	<g>
		<path class="st9" d="M456.8,63.5h14.7V157l-40.1-10.8v-15.5l25.5,6.2C456.8,136.9,456.8,64.2,456.8,63.5z"/>
		<polygon class="st9" points="482.2,63.5 523.1,63.5 521.6,78.2 496.1,78.2 496.1,103.7 520.1,99.8 515.4,147.7 481.5,157 
			481.5,141.6 503.1,136.1 504.6,116.8 481.5,119.9 481.5,63.5 		"/>
	</g>
</g>
<g>
	<path class="st12" d="M655.6,32.5l11.6,134.5l54,15.5l54.8-14.7l11.6-135.3H655.6z M764.5,159.3l-43.2,12.4v-126h52.5L764.5,159.3z
		"/>
	<polygon class="st13" points="721.3,171.7 764.5,159.3 773.8,45.7 721.3,45.7 	"/>
	<polygon class="st9" points="680.3,62.7 762.9,62.7 762.2,78.9 729.8,95.9 760.6,95.9 756.8,147 722,155.5 687.3,147 685.8,120.7 
		703.5,120.7 704.3,134.6 722,139.2 740.6,133.8 742.1,113 685,113 683.4,95.9 715.9,79.7 681.9,79.7 	"/>
</g>
<g>
	<ellipse class="st14" cx="496.4" cy="-131.4" rx="25" ry="25.1"/>
	<g>
		<path class="st15" d="M496.8-206.7L496.8-206.7l-25.4,0v50.2h25.4v0c13.6-0.2,24.6-11.4,24.6-25.1S510.4-206.5,496.8-206.7z"/>
	</g>
	<g>
		<path class="st16" d="M446.1-206.8L446.1-206.8c-13.6,0.2-24.6,11.4-24.6,25.1s11,24.9,24.6,25.1v0h25.4v-50.2H446.1z"/>
	</g>
	<g>
		<path class="st17" d="M446.1-156.5L446.1-156.5c-13.6,0.2-24.6,11.4-24.6,25.1s11,24.9,24.6,25.1v0h25.4v-50.2H446.1z"/>
	</g>
	<path class="st18" d="M446.8-106.3c-13.6,0-24.6,11.1-24.6,24.8s11,24.8,24.6,24.8s24.6-11.1,24.6-24.8v-24.8H446.8z"/>
</g>
<g>
	<path class="st19" d="M1023,190.4H893.9c-5.8,0-10.4-4.7-10.4-10.4V50.8c0-5.8,4.7-10.4,10.4-10.4H1023c5.8,0,10.4,4.7,10.4,10.4
		v129.1C1033.5,185.7,1028.8,190.4,1023,190.4z"/>
	<g>
		<g>
			<path class="st20" d="M962.3,142.6l-3.8-13.5h-23.6l-3.8,13.5h-14.9l22.4-70.2h16.1l22.4,70.2H962.3z M938.2,117.3h16.9
				l-8.4-29.8L938.2,117.3z"/>
			<path class="st20" d="M982.8,72.5h13.8v12.1h-13.8V72.5z M982.8,92.5h13.8v50.1h-13.8V92.5z"/>
		</g>
	</g>
</g>
<g>
	<path class="st21" d="M1235.8,189.6h-129.1c-5.8,0-10.4-4.7-10.4-10.4V50c0-5.8,4.7-10.4,10.4-10.4h129.1c5.8,0,10.4,4.7,10.4,10.4
		v129.1C1246.2,184.9,1241.6,189.6,1235.8,189.6z"/>
	<g>
		<g>
			<path class="st22" d="M1137.8,116.9v24.9h-14.5V71.7h28.3c14.6,0,23.1,8.2,23.1,22.6c0,14.5-8.4,22.6-23.1,22.6H1137.8z
				 M1149.6,104.8c6.9,0,10.4-3.5,10.4-10.5c0-6.9-3.5-10.5-10.4-10.5h-11.8v20.9H1149.6z"/>
			<path class="st22" d="M1180.1,126.4h13.7v1.3c0,3.3,2.7,5.4,7.1,5.4c4.3,0,7-2.2,7-5.3c0-3.2-1.7-4.9-6.7-5.8l-4.9-0.9
				c-10.7-2-16.2-6.7-16.2-15.3c0-8.9,7.4-15.3,19.8-15.3c12.8,0,19.7,6.3,19.7,15v0.9h-13.7v-1c0-2.8-2-5-5.9-5
				c-3.8,0-5.9,2-5.9,4.9s1.9,4.4,6.7,5.3l5,0.9c11.3,2.1,16,6.7,16,15.8s-7.8,15.8-20.8,15.8c-13.3,0-20.8-6.8-20.8-15.8V126.4z"/>
		</g>
	</g>
</g>
</svg>
