<?xml version="1.0" encoding="utf-8"?>
<!-- Generator: Adobe Illustrator 23.1.0, SVG Export Plug-In . SVG Version: 6.00 Build 0)  -->
<svg version="1.1" id="Layer_1" xmlns="http://www.w3.org/2000/svg" xmlns:xlink="http://www.w3.org/1999/xlink" x="0px" y="0px"
	 viewBox="0 0 140 430" style="enable-background:new 0 0 140 430;" xml:space="preserve">
<style type="text/css">
	.st0{fill:#066D5E;}
	.st1{fill:#F7E5A9;}
	.st2{fill:#FFFFFF;}
</style>
<g>
	<path class="st0" d="M71.29,430h-2.58c-1.87,0-3.4-1.53-3.4-3.4V48.19c0-1.87,1.53-3.4,3.4-3.4h2.58c1.87,0,3.4,1.53,3.4,3.4V426.6
		C74.69,428.47,73.16,430,71.29,430z"/>
	<path class="st0" d="M109.69,163.77H30.31C13.64,163.77,0,150.14,0,133.47V30.31C0,13.64,13.64,0,30.31,0h79.39
		C126.36,0,140,13.64,140,30.31v103.16C140,150.14,126.36,163.77,109.69,163.77z"/>
	<path class="st1" d="M6.26,133.21V30.56c0-13.42,10.88-24.31,24.31-24.31h78.87c13.42,0,24.31,10.88,24.31,24.31v102.65
		c0,13.42-10.88,24.31-24.31,24.31H30.57C17.14,157.52,6.26,146.64,6.26,133.21z"/>
	<rect x="0" y="51.43" class="st0" width="140" height="60.91"/>
	<g>
		<path class="st2" d="M61.54,85.84l3.05-12.6h3.13l-4.28,16.5h-3.53l-3.07-11.97l-3.07,11.97h-3.53l-4.3-16.5h3.13l3.05,12.6
			l3.22-12.6h3.01L61.54,85.84z"/>
		<path class="st2" d="M69.34,73.24H79.4v2.61h-6.99V80h6.14v2.59h-6.14v4.55h7.1v2.61H69.34V73.24z"/>
		<path class="st2" d="M81.7,89.74v-16.5h6.24c3.44,0,5.2,1.5,5.2,4.46c0,1.75-0.92,2.94-2.4,3.44c1.8,0.44,2.88,1.92,2.88,3.86
			c0,3.09-1.71,4.73-5.24,4.73H81.7z M87.38,75.85h-2.61v4.13h2.61c1.75,0,2.71-0.48,2.71-2.07C90.09,76.32,89.13,75.85,87.38,75.85
			z M87.77,82.56h-3.01v4.57h3.01c1.88,0,2.78-0.6,2.78-2.27C90.55,83.19,89.65,82.56,87.77,82.56z"/>
	</g>
</g>
</svg>
