<?xml version="1.0" encoding="utf-8"?>
<!-- Generator: Adobe Illustrator 27.5.0, SVG Export Plug-In . SVG Version: 6.00 Build 0)  -->
<svg version="1.1" id="Layer_1" xmlns="http://www.w3.org/2000/svg" xmlns:xlink="http://www.w3.org/1999/xlink" x="0px" y="0px"
	 viewBox="0 0 140 430" style="enable-background:new 0 0 140 430;" xml:space="preserve">
<style type="text/css">
	.st0{fill:#066D5E;}
	.st1{fill:#F7E5A9;}
	.st2{fill:#FFFFFF;}
	.st3{font-family:'S-CoreDream-6Bold';}
	.st4{font-size:21.0045px;}
</style>
<path class="st0" d="M71.3,430h-2.6c-1.9,0-3.4-1.5-3.4-3.4V48.2c0-1.9,1.5-3.4,3.4-3.4h2.6c1.9,0,3.4,1.5,3.4,3.4v378.4
	C74.7,428.5,73.2,430,71.3,430z"/>
<path class="st0" d="M109.7,163.8H30.3C13.6,163.8,0,150.1,0,133.5V30.3C0,13.6,13.6,0,30.3,0h79.4C126.4,0,140,13.6,140,30.3v103.2
	C140,150.1,126.4,163.8,109.7,163.8z"/>
<path class="st1" d="M6.3,133.2V30.6c0-13.4,10.9-24.3,24.3-24.3h78.9c13.4,0,24.3,10.9,24.3,24.3v102.7c0,13.4-10.9,24.3-24.3,24.3
	H30.6C17.1,157.5,6.3,146.6,6.3,133.2z"/>
<rect y="51.4" class="st0" width="140" height="60.9"/>
<g>
	<path class="st0" d="M-268.8,430h-2.6c-1.9,0-3.4-1.5-3.4-3.4V48.2c0-1.9,1.5-3.4,3.4-3.4h2.6c1.9,0,3.4,1.5,3.4,3.4v378.4
		C-265.4,428.5-266.9,430-268.8,430z"/>
	<path class="st0" d="M-230.4,163.8h-79.4c-16.7,0-30.3-13.6-30.3-30.3V30.3c0-16.7,13.6-30.3,30.3-30.3h79.4
		c16.7,0,30.3,13.6,30.3,30.3v103.2C-200.1,150.1-213.7,163.8-230.4,163.8z"/>
	<path class="st1" d="M-333.8,133.2V30.6c0-13.4,10.9-24.3,24.3-24.3h78.9c13.4,0,24.3,10.9,24.3,24.3v102.7
		c0,13.4-10.9,24.3-24.3,24.3h-78.9C-322.9,157.5-333.8,146.6-333.8,133.2z"/>
	<rect x="-340.1" y="51.4" class="st0" width="140" height="60.9"/>
	<g>
		<path class="st2" d="M-278.5,85.8l3-12.6h3.1l-4.3,16.5h-3.5l-3.1-12l-3.1,12h-3.5l-4.3-16.5h3.1l3,12.6l3.2-12.6h3L-278.5,85.8z"
			/>
		<path class="st2" d="M-270.7,73.2h10.1v2.6h-7V80h6.1v2.6h-6.1v4.6h7.1v2.6h-10.2V73.2z"/>
		<path class="st2" d="M-258.4,89.7V73.2h6.2c3.4,0,5.2,1.5,5.2,4.5c0,1.8-0.9,2.9-2.4,3.4c1.8,0.4,2.9,1.9,2.9,3.9
			c0,3.1-1.7,4.7-5.2,4.7L-258.4,89.7L-258.4,89.7z M-252.7,75.8h-2.6V80h2.6c1.8,0,2.7-0.5,2.7-2.1S-250.9,75.8-252.7,75.8z
			 M-252.3,82.6h-3v4.6h3c1.9,0,2.8-0.6,2.8-2.3C-249.5,83.2-250.4,82.6-252.3,82.6z"/>
	</g>
</g>
<text transform="matrix(1 0 0 1 18.9283 89.302)" class="st2 st3 st4">WEB/APP</text>
</svg>
